<?xml version="1.0" encoding="UTF-8"?>
<svg xmlns="http://www.w3.org/2000/svg" version="1.1" width="600" height="600" viewBox="0 0 600 600"><rect x="0" y="0" width="600" height="600" fill="#ffffff"/><g transform="scale(18.182)"><g transform="translate(2,2)"><path fill-rule="evenodd" d="M10.75 0.5A0.25 0.25 0 0 1 10.5 0.75A0.25 0.25 0 0 1 10.25 0.5A0.25 0.25 0 0 1 10.5 0.25A0.25 0.25 0 0 1 10.75 0.5ZM13.75 0.5A0.25 0.25 0 0 1 13.5 0.75A0.25 0.25 0 0 1 13.25 0.5A0.25 0.25 0 0 1 13.5 0.25A0.25 0.25 0 0 1 13.75 0.5ZM15.75 0.5A0.25 0.25 0 0 1 15.5 0.75A0.25 0.25 0 0 1 15.25 0.5A0.25 0.25 0 0 1 15.5 0.25A0.25 0.25 0 0 1 15.75 0.5ZM16.75 0.5A0.25 0.25 0 0 1 16.5 0.75A0.25 0.25 0 0 1 16.25 0.5A0.25 0.25 0 0 1 16.5 0.25A0.25 0.25 0 0 1 16.75 0.5ZM18.75 0.5A0.25 0.25 0 0 1 18.5 0.75A0.25 0.25 0 0 1 18.25 0.5A0.25 0.25 0 0 1 18.5 0.25A0.25 0.25 0 0 1 18.75 0.5ZM20.75 0.5A0.25 0.25 0 0 1 20.5 0.75A0.25 0.25 0 0 1 20.25 0.5A0.25 0.25 0 0 1 20.5 0.25A0.25 0.25 0 0 1 20.75 0.5ZM11.75 1.5A0.25 0.25 0 0 1 11.5 1.75A0.25 0.25 0 0 1 11.25 1.5A0.25 0.25 0 0 1 11.5 1.25A0.25 0.25 0 0 1 11.75 1.5ZM12.75 1.5A0.25 0.25 0 0 1 12.5 1.75A0.25 0.25 0 0 1 12.25 1.5A0.25 0.25 0 0 1 12.5 1.25A0.25 0.25 0 0 1 12.75 1.5ZM13.75 1.5A0.25 0.25 0 0 1 13.5 1.75A0.25 0.25 0 0 1 13.25 1.5A0.25 0.25 0 0 1 13.5 1.25A0.25 0.25 0 0 1 13.75 1.5ZM14.75 1.5A0.25 0.25 0 0 1 14.5 1.75A0.25 0.25 0 0 1 14.25 1.5A0.25 0.25 0 0 1 14.5 1.25A0.25 0.25 0 0 1 14.75 1.5ZM16.75 1.5A0.25 0.25 0 0 1 16.5 1.75A0.25 0.25 0 0 1 16.25 1.5A0.25 0.25 0 0 1 16.5 1.25A0.25 0.25 0 0 1 16.75 1.5ZM18.75 1.5A0.25 0.25 0 0 1 18.5 1.75A0.25 0.25 0 0 1 18.25 1.5A0.25 0.25 0 0 1 18.5 1.25A0.25 0.25 0 0 1 18.75 1.5ZM19.75 1.5A0.25 0.25 0 0 1 19.5 1.75A0.25 0.25 0 0 1 19.25 1.5A0.25 0.25 0 0 1 19.5 1.25A0.25 0.25 0 0 1 19.75 1.5ZM20.75 1.5A0.25 0.25 0 0 1 20.5 1.75A0.25 0.25 0 0 1 20.25 1.5A0.25 0.25 0 0 1 20.5 1.25A0.25 0.25 0 0 1 20.75 1.5ZM9.75 2.5A0.25 0.25 0 0 1 9.5 2.75A0.25 0.25 0 0 1 9.25 2.5A0.25 0.25 0 0 1 9.5 2.25A0.25 0.25 0 0 1 9.75 2.5ZM10.75 2.5A0.25 0.25 0 0 1 10.5 2.75A0.25 0.25 0 0 1 10.25 2.5A0.25 0.25 0 0 1 10.5 2.25A0.25 0.25 0 0 1 10.75 2.5ZM17.75 2.5A0.25 0.25 0 0 1 17.5 2.75A0.25 0.25 0 0 1 17.25 2.5A0.25 0.25 0 0 1 17.5 2.25A0.25 0.25 0 0 1 17.75 2.5ZM20.75 2.5A0.25 0.25 0 0 1 20.5 2.75A0.25 0.25 0 0 1 20.25 2.5A0.25 0.25 0 0 1 20.5 2.25A0.25 0.25 0 0 1 20.75 2.5ZM9.75 3.5A0.25 0.25 0 0 1 9.5 3.75A0.25 0.25 0 0 1 9.25 3.5A0.25 0.25 0 0 1 9.5 3.25A0.25 0.25 0 0 1 9.75 3.5ZM10.75 3.5A0.25 0.25 0 0 1 10.5 3.75A0.25 0.25 0 0 1 10.25 3.5A0.25 0.25 0 0 1 10.5 3.25A0.25 0.25 0 0 1 10.75 3.5ZM11.75 3.5A0.25 0.25 0 0 1 11.5 3.75A0.25 0.25 0 0 1 11.25 3.5A0.25 0.25 0 0 1 11.5 3.25A0.25 0.25 0 0 1 11.75 3.5ZM15.75 3.5A0.25 0.25 0 0 1 15.5 3.75A0.25 0.25 0 0 1 15.25 3.5A0.25 0.25 0 0 1 15.5 3.25A0.25 0.25 0 0 1 15.75 3.5ZM19.75 3.5A0.25 0.25 0 0 1 19.5 3.75A0.25 0.25 0 0 1 19.25 3.5A0.25 0.25 0 0 1 19.5 3.25A0.25 0.25 0 0 1 19.75 3.5ZM20.75 3.5A0.25 0.25 0 0 1 20.5 3.75A0.25 0.25 0 0 1 20.25 3.5A0.25 0.25 0 0 1 20.5 3.25A0.25 0.25 0 0 1 20.75 3.5ZM8.75 4.5A0.25 0.25 0 0 1 8.5 4.75A0.25 0.25 0 0 1 8.25 4.5A0.25 0.25 0 0 1 8.5 4.25A0.25 0.25 0 0 1 8.75 4.5ZM9.75 4.5A0.25 0.25 0 0 1 9.5 4.75A0.25 0.25 0 0 1 9.25 4.5A0.25 0.25 0 0 1 9.5 4.25A0.25 0.25 0 0 1 9.75 4.5ZM10.75 4.5A0.25 0.25 0 0 1 10.5 4.75A0.25 0.25 0 0 1 10.25 4.5A0.25 0.25 0 0 1 10.5 4.25A0.25 0.25 0 0 1 10.75 4.5ZM12.75 4.5A0.25 0.25 0 0 1 12.5 4.75A0.25 0.25 0 0 1 12.25 4.5A0.25 0.25 0 0 1 12.5 4.25A0.25 0.25 0 0 1 12.75 4.5ZM13.75 4.5A0.25 0.25 0 0 1 13.5 4.75A0.25 0.25 0 0 1 13.25 4.5A0.25 0.25 0 0 1 13.5 4.25A0.25 0.25 0 0 1 13.75 4.5ZM15.75 4.5A0.25 0.25 0 0 1 15.5 4.75A0.25 0.25 0 0 1 15.25 4.5A0.25 0.25 0 0 1 15.5 4.25A0.25 0.25 0 0 1 15.75 4.5ZM16.75 4.5A0.25 0.25 0 0 1 16.5 4.75A0.25 0.25 0 0 1 16.25 4.5A0.25 0.25 0 0 1 16.5 4.25A0.25 0.25 0 0 1 16.75 4.5ZM17.75 4.5A0.25 0.25 0 0 1 17.5 4.75A0.25 0.25 0 0 1 17.25 4.5A0.25 0.25 0 0 1 17.5 4.25A0.25 0.25 0 0 1 17.75 4.5ZM18.75 4.5A0.25 0.25 0 0 1 18.5 4.75A0.25 0.25 0 0 1 18.25 4.5A0.25 0.25 0 0 1 18.5 4.25A0.25 0.25 0 0 1 18.75 4.5ZM19.75 5.5A0.25 0.25 0 0 1 19.5 5.75A0.25 0.25 0 0 1 19.25 5.5A0.25 0.25 0 0 1 19.5 5.25A0.25 0.25 0 0 1 19.75 5.5ZM8.75 6.5A0.25 0.25 0 0 1 8.5 6.75A0.25 0.25 0 0 1 8.25 6.5A0.25 0.25 0 0 1 8.5 6.25A0.25 0.25 0 0 1 8.75 6.5ZM10.75 6.5A0.25 0.25 0 0 1 10.5 6.75A0.25 0.25 0 0 1 10.25 6.5A0.25 0.25 0 0 1 10.5 6.25A0.25 0.25 0 0 1 10.75 6.5ZM12.75 6.5A0.25 0.25 0 0 1 12.5 6.75A0.25 0.25 0 0 1 12.25 6.5A0.25 0.25 0 0 1 12.5 6.25A0.25 0.25 0 0 1 12.75 6.5ZM14.75 6.5A0.25 0.25 0 0 1 14.5 6.75A0.25 0.25 0 0 1 14.25 6.5A0.25 0.25 0 0 1 14.5 6.25A0.25 0.25 0 0 1 14.75 6.5ZM16.75 6.5A0.25 0.25 0 0 1 16.5 6.75A0.25 0.25 0 0 1 16.25 6.5A0.25 0.25 0 0 1 16.5 6.25A0.25 0.25 0 0 1 16.75 6.5ZM18.75 6.5A0.25 0.25 0 0 1 18.5 6.75A0.25 0.25 0 0 1 18.25 6.5A0.25 0.25 0 0 1 18.5 6.25A0.25 0.25 0 0 1 18.75 6.5ZM20.75 6.5A0.25 0.25 0 0 1 20.5 6.75A0.25 0.25 0 0 1 20.25 6.5A0.25 0.25 0 0 1 20.5 6.25A0.25 0.25 0 0 1 20.75 6.5ZM8.75 7.5A0.25 0.25 0 0 1 8.5 7.75A0.25 0.25 0 0 1 8.25 7.5A0.25 0.25 0 0 1 8.5 7.25A0.25 0.25 0 0 1 8.75 7.5ZM9.75 7.5A0.25 0.25 0 0 1 9.5 7.75A0.25 0.25 0 0 1 9.25 7.5A0.25 0.25 0 0 1 9.5 7.25A0.25 0.25 0 0 1 9.75 7.5ZM10.75 7.5A0.25 0.25 0 0 1 10.5 7.75A0.25 0.25 0 0 1 10.25 7.5A0.25 0.25 0 0 1 10.5 7.25A0.25 0.25 0 0 1 10.75 7.5ZM12.75 7.5A0.25 0.25 0 0 1 12.5 7.75A0.25 0.25 0 0 1 12.25 7.5A0.25 0.25 0 0 1 12.5 7.25A0.25 0.25 0 0 1 12.75 7.5ZM14.75 7.5A0.25 0.25 0 0 1 14.5 7.75A0.25 0.25 0 0 1 14.25 7.5A0.25 0.25 0 0 1 14.5 7.25A0.25 0.25 0 0 1 14.75 7.5ZM15.75 7.5A0.25 0.25 0 0 1 15.5 7.75A0.25 0.25 0 0 1 15.25 7.5A0.25 0.25 0 0 1 15.5 7.25A0.25 0.25 0 0 1 15.75 7.5ZM17.75 7.5A0.25 0.25 0 0 1 17.5 7.75A0.25 0.25 0 0 1 17.25 7.5A0.25 0.25 0 0 1 17.5 7.25A0.25 0.25 0 0 1 17.75 7.5ZM18.75 7.5A0.25 0.25 0 0 1 18.5 7.75A0.25 0.25 0 0 1 18.25 7.5A0.25 0.25 0 0 1 18.5 7.25A0.25 0.25 0 0 1 18.75 7.5ZM19.75 7.5A0.25 0.25 0 0 1 19.5 7.75A0.25 0.25 0 0 1 19.25 7.5A0.25 0.25 0 0 1 19.5 7.25A0.25 0.25 0 0 1 19.75 7.5ZM2.75 8.5A0.25 0.25 0 0 1 2.5 8.75A0.25 0.25 0 0 1 2.25 8.5A0.25 0.25 0 0 1 2.5 8.25A0.25 0.25 0 0 1 2.75 8.5ZM3.75 8.5A0.25 0.25 0 0 1 3.5 8.75A0.25 0.25 0 0 1 3.25 8.5A0.25 0.25 0 0 1 3.5 8.25A0.25 0.25 0 0 1 3.75 8.5ZM6.75 8.5A0.25 0.25 0 0 1 6.5 8.75A0.25 0.25 0 0 1 6.25 8.5A0.25 0.25 0 0 1 6.5 8.25A0.25 0.25 0 0 1 6.75 8.5ZM7.75 8.5A0.25 0.25 0 0 1 7.5 8.75A0.25 0.25 0 0 1 7.25 8.5A0.25 0.25 0 0 1 7.5 8.25A0.25 0.25 0 0 1 7.75 8.5ZM8.75 8.5A0.25 0.25 0 0 1 8.5 8.75A0.25 0.25 0 0 1 8.25 8.5A0.25 0.25 0 0 1 8.5 8.25A0.25 0.25 0 0 1 8.75 8.5ZM9.75 8.5A0.25 0.25 0 0 1 9.5 8.75A0.25 0.25 0 0 1 9.25 8.5A0.25 0.25 0 0 1 9.5 8.25A0.25 0.25 0 0 1 9.75 8.5ZM10.75 8.5A0.25 0.25 0 0 1 10.5 8.75A0.25 0.25 0 0 1 10.25 8.5A0.25 0.25 0 0 1 10.5 8.25A0.25 0.25 0 0 1 10.75 8.5ZM11.75 8.5A0.25 0.25 0 0 1 11.5 8.75A0.25 0.25 0 0 1 11.25 8.5A0.25 0.25 0 0 1 11.5 8.25A0.25 0.25 0 0 1 11.75 8.5ZM12.75 8.5A0.25 0.25 0 0 1 12.5 8.75A0.25 0.25 0 0 1 12.25 8.5A0.25 0.25 0 0 1 12.5 8.25A0.25 0.25 0 0 1 12.75 8.5ZM13.75 8.5A0.25 0.25 0 0 1 13.5 8.75A0.25 0.25 0 0 1 13.25 8.5A0.25 0.25 0 0 1 13.5 8.25A0.25 0.25 0 0 1 13.75 8.5ZM14.75 8.5A0.25 0.25 0 0 1 14.5 8.75A0.25 0.25 0 0 1 14.25 8.5A0.25 0.25 0 0 1 14.5 8.25A0.25 0.25 0 0 1 14.75 8.5ZM15.75 8.5A0.25 0.25 0 0 1 15.5 8.75A0.25 0.25 0 0 1 15.25 8.5A0.25 0.25 0 0 1 15.5 8.25A0.25 0.25 0 0 1 15.75 8.5ZM19.75 8.5A0.25 0.25 0 0 1 19.5 8.75A0.25 0.25 0 0 1 19.25 8.5A0.25 0.25 0 0 1 19.5 8.25A0.25 0.25 0 0 1 19.75 8.5ZM21.75 8.5A0.25 0.25 0 0 1 21.5 8.75A0.25 0.25 0 0 1 21.25 8.5A0.25 0.25 0 0 1 21.5 8.25A0.25 0.25 0 0 1 21.75 8.5ZM22.75 8.5A0.25 0.25 0 0 1 22.5 8.75A0.25 0.25 0 0 1 22.25 8.5A0.25 0.25 0 0 1 22.5 8.25A0.25 0.25 0 0 1 22.75 8.5ZM24.75 8.5A0.25 0.25 0 0 1 24.5 8.75A0.25 0.25 0 0 1 24.25 8.5A0.25 0.25 0 0 1 24.5 8.25A0.25 0.25 0 0 1 24.75 8.5ZM0.75 9.5A0.25 0.25 0 0 1 0.5 9.75A0.25 0.25 0 0 1 0.25 9.5A0.25 0.25 0 0 1 0.5 9.25A0.25 0.25 0 0 1 0.75 9.5ZM1.75 9.5A0.25 0.25 0 0 1 1.5 9.75A0.25 0.25 0 0 1 1.25 9.5A0.25 0.25 0 0 1 1.5 9.25A0.25 0.25 0 0 1 1.75 9.5ZM2.75 9.5A0.25 0.25 0 0 1 2.5 9.75A0.25 0.25 0 0 1 2.25 9.5A0.25 0.25 0 0 1 2.5 9.25A0.25 0.25 0 0 1 2.75 9.5ZM3.75 9.5A0.25 0.25 0 0 1 3.5 9.75A0.25 0.25 0 0 1 3.25 9.5A0.25 0.25 0 0 1 3.5 9.25A0.25 0.25 0 0 1 3.75 9.5ZM4.75 9.5A0.25 0.25 0 0 1 4.5 9.75A0.25 0.25 0 0 1 4.25 9.5A0.25 0.25 0 0 1 4.5 9.25A0.25 0.25 0 0 1 4.75 9.5ZM7.75 9.5A0.25 0.25 0 0 1 7.5 9.75A0.25 0.25 0 0 1 7.25 9.5A0.25 0.25 0 0 1 7.5 9.25A0.25 0.25 0 0 1 7.75 9.5ZM8.75 9.5A0.25 0.25 0 0 1 8.5 9.75A0.25 0.25 0 0 1 8.25 9.5A0.25 0.25 0 0 1 8.5 9.25A0.25 0.25 0 0 1 8.75 9.5ZM9.75 9.5A0.25 0.25 0 0 1 9.5 9.75A0.25 0.25 0 0 1 9.25 9.5A0.25 0.25 0 0 1 9.5 9.25A0.25 0.25 0 0 1 9.75 9.5ZM10.75 9.5A0.25 0.25 0 0 1 10.5 9.75A0.25 0.25 0 0 1 10.25 9.5A0.25 0.25 0 0 1 10.5 9.25A0.25 0.25 0 0 1 10.75 9.5ZM11.75 9.5A0.25 0.25 0 0 1 11.5 9.75A0.25 0.25 0 0 1 11.25 9.5A0.25 0.25 0 0 1 11.5 9.25A0.25 0.25 0 0 1 11.75 9.5ZM14.75 9.5A0.25 0.25 0 0 1 14.5 9.75A0.25 0.25 0 0 1 14.25 9.5A0.25 0.25 0 0 1 14.5 9.25A0.25 0.25 0 0 1 14.75 9.5ZM25.75 9.5A0.25 0.25 0 0 1 25.5 9.75A0.25 0.25 0 0 1 25.25 9.5A0.25 0.25 0 0 1 25.5 9.25A0.25 0.25 0 0 1 25.75 9.5ZM27.75 9.5A0.25 0.25 0 0 1 27.5 9.75A0.25 0.25 0 0 1 27.25 9.5A0.25 0.25 0 0 1 27.5 9.25A0.25 0.25 0 0 1 27.75 9.5ZM0.75 10.5A0.25 0.25 0 0 1 0.5 10.75A0.25 0.25 0 0 1 0.25 10.5A0.25 0.25 0 0 1 0.5 10.25A0.25 0.25 0 0 1 0.75 10.5ZM3.75 10.5A0.25 0.25 0 0 1 3.5 10.75A0.25 0.25 0 0 1 3.25 10.5A0.25 0.25 0 0 1 3.5 10.25A0.25 0.25 0 0 1 3.75 10.5ZM6.75 10.5A0.25 0.25 0 0 1 6.5 10.75A0.25 0.25 0 0 1 6.25 10.5A0.25 0.25 0 0 1 6.5 10.25A0.25 0.25 0 0 1 6.75 10.5ZM7.75 10.5A0.25 0.25 0 0 1 7.5 10.75A0.25 0.25 0 0 1 7.25 10.5A0.25 0.25 0 0 1 7.5 10.25A0.25 0.25 0 0 1 7.75 10.5ZM9.75 10.5A0.25 0.25 0 0 1 9.5 10.75A0.25 0.25 0 0 1 9.25 10.5A0.25 0.25 0 0 1 9.5 10.25A0.25 0.25 0 0 1 9.75 10.5ZM12.75 10.5A0.25 0.25 0 0 1 12.5 10.75A0.25 0.25 0 0 1 12.25 10.5A0.25 0.25 0 0 1 12.5 10.25A0.25 0.25 0 0 1 12.75 10.5ZM17.75 10.5A0.25 0.25 0 0 1 17.5 10.75A0.25 0.25 0 0 1 17.25 10.5A0.25 0.25 0 0 1 17.5 10.25A0.25 0.25 0 0 1 17.75 10.5ZM20.75 10.5A0.25 0.25 0 0 1 20.5 10.75A0.25 0.25 0 0 1 20.25 10.5A0.25 0.25 0 0 1 20.5 10.25A0.25 0.25 0 0 1 20.75 10.5ZM23.75 10.5A0.25 0.25 0 0 1 23.5 10.75A0.25 0.25 0 0 1 23.25 10.5A0.25 0.25 0 0 1 23.5 10.25A0.25 0.25 0 0 1 23.75 10.5ZM24.75 10.5A0.25 0.25 0 0 1 24.5 10.75A0.25 0.25 0 0 1 24.25 10.5A0.25 0.25 0 0 1 24.5 10.25A0.25 0.25 0 0 1 24.75 10.5ZM25.75 10.5A0.25 0.25 0 0 1 25.5 10.75A0.25 0.25 0 0 1 25.25 10.5A0.25 0.25 0 0 1 25.5 10.25A0.25 0.25 0 0 1 25.75 10.5ZM27.75 10.5A0.25 0.25 0 0 1 27.5 10.75A0.25 0.25 0 0 1 27.25 10.5A0.25 0.25 0 0 1 27.5 10.25A0.25 0.25 0 0 1 27.75 10.5ZM3.75 11.5A0.25 0.25 0 0 1 3.5 11.75A0.25 0.25 0 0 1 3.25 11.5A0.25 0.25 0 0 1 3.5 11.25A0.25 0.25 0 0 1 3.75 11.5ZM7.75 11.5A0.25 0.25 0 0 1 7.5 11.75A0.25 0.25 0 0 1 7.25 11.5A0.25 0.25 0 0 1 7.5 11.25A0.25 0.25 0 0 1 7.75 11.5ZM9.75 11.5A0.25 0.25 0 0 1 9.5 11.75A0.25 0.25 0 0 1 9.25 11.5A0.25 0.25 0 0 1 9.5 11.25A0.25 0.25 0 0 1 9.75 11.5ZM10.75 11.5A0.25 0.25 0 0 1 10.5 11.75A0.25 0.25 0 0 1 10.25 11.5A0.25 0.25 0 0 1 10.5 11.25A0.25 0.25 0 0 1 10.75 11.5ZM11.75 11.5A0.25 0.25 0 0 1 11.5 11.75A0.25 0.25 0 0 1 11.25 11.5A0.25 0.25 0 0 1 11.5 11.25A0.25 0.25 0 0 1 11.75 11.5ZM13.75 11.5A0.25 0.25 0 0 1 13.5 11.75A0.25 0.25 0 0 1 13.25 11.5A0.25 0.25 0 0 1 13.5 11.25A0.25 0.25 0 0 1 13.75 11.5ZM14.75 11.5A0.25 0.25 0 0 1 14.5 11.75A0.25 0.25 0 0 1 14.25 11.5A0.25 0.25 0 0 1 14.5 11.25A0.25 0.25 0 0 1 14.75 11.5ZM15.75 11.5A0.25 0.25 0 0 1 15.5 11.75A0.25 0.25 0 0 1 15.25 11.5A0.25 0.25 0 0 1 15.5 11.25A0.25 0.25 0 0 1 15.75 11.5ZM18.75 11.5A0.25 0.25 0 0 1 18.5 11.75A0.25 0.25 0 0 1 18.25 11.5A0.25 0.25 0 0 1 18.5 11.25A0.25 0.25 0 0 1 18.75 11.5ZM19.75 11.5A0.25 0.25 0 0 1 19.5 11.75A0.25 0.25 0 0 1 19.25 11.5A0.25 0.25 0 0 1 19.5 11.25A0.25 0.25 0 0 1 19.75 11.5ZM23.75 11.5A0.25 0.25 0 0 1 23.5 11.75A0.25 0.25 0 0 1 23.25 11.5A0.25 0.25 0 0 1 23.5 11.25A0.25 0.25 0 0 1 23.75 11.5ZM25.75 11.5A0.25 0.25 0 0 1 25.5 11.75A0.25 0.25 0 0 1 25.25 11.5A0.25 0.25 0 0 1 25.5 11.25A0.25 0.25 0 0 1 25.75 11.5ZM26.75 11.5A0.25 0.25 0 0 1 26.5 11.75A0.25 0.25 0 0 1 26.25 11.5A0.25 0.25 0 0 1 26.5 11.25A0.25 0.25 0 0 1 26.75 11.5ZM27.75 11.5A0.25 0.25 0 0 1 27.5 11.75A0.25 0.25 0 0 1 27.25 11.5A0.25 0.25 0 0 1 27.5 11.25A0.25 0.25 0 0 1 27.75 11.5ZM28.75 11.5A0.25 0.25 0 0 1 28.5 11.75A0.25 0.25 0 0 1 28.25 11.5A0.25 0.25 0 0 1 28.5 11.25A0.25 0.25 0 0 1 28.75 11.5ZM0.75 12.5A0.25 0.25 0 0 1 0.5 12.75A0.25 0.25 0 0 1 0.25 12.5A0.25 0.25 0 0 1 0.5 12.25A0.25 0.25 0 0 1 0.75 12.5ZM1.75 12.5A0.25 0.25 0 0 1 1.5 12.75A0.25 0.25 0 0 1 1.25 12.5A0.25 0.25 0 0 1 1.5 12.25A0.25 0.25 0 0 1 1.75 12.5ZM3.75 12.5A0.25 0.25 0 0 1 3.5 12.75A0.25 0.25 0 0 1 3.25 12.5A0.25 0.25 0 0 1 3.5 12.25A0.25 0.25 0 0 1 3.75 12.5ZM5.75 12.5A0.25 0.25 0 0 1 5.5 12.75A0.25 0.25 0 0 1 5.25 12.5A0.25 0.25 0 0 1 5.5 12.25A0.25 0.25 0 0 1 5.75 12.5ZM6.75 12.5A0.25 0.25 0 0 1 6.5 12.75A0.25 0.25 0 0 1 6.25 12.5A0.25 0.25 0 0 1 6.5 12.25A0.25 0.25 0 0 1 6.75 12.5ZM7.75 12.5A0.25 0.25 0 0 1 7.5 12.75A0.25 0.25 0 0 1 7.25 12.5A0.25 0.25 0 0 1 7.5 12.25A0.25 0.25 0 0 1 7.75 12.5ZM10.75 12.5A0.25 0.25 0 0 1 10.5 12.75A0.25 0.25 0 0 1 10.25 12.5A0.25 0.25 0 0 1 10.5 12.25A0.25 0.25 0 0 1 10.75 12.5ZM12.75 12.5A0.25 0.25 0 0 1 12.5 12.75A0.25 0.25 0 0 1 12.25 12.5A0.25 0.25 0 0 1 12.5 12.25A0.25 0.25 0 0 1 12.75 12.5ZM13.75 12.5A0.25 0.25 0 0 1 13.5 12.75A0.25 0.25 0 0 1 13.25 12.5A0.25 0.25 0 0 1 13.5 12.25A0.25 0.25 0 0 1 13.75 12.5ZM17.75 12.5A0.25 0.25 0 0 1 17.5 12.75A0.25 0.25 0 0 1 17.25 12.5A0.25 0.25 0 0 1 17.5 12.25A0.25 0.25 0 0 1 17.75 12.5ZM21.75 12.5A0.25 0.25 0 0 1 21.5 12.75A0.25 0.25 0 0 1 21.25 12.5A0.25 0.25 0 0 1 21.5 12.25A0.25 0.25 0 0 1 21.75 12.5ZM23.75 12.5A0.25 0.25 0 0 1 23.5 12.75A0.25 0.25 0 0 1 23.25 12.5A0.25 0.25 0 0 1 23.5 12.25A0.25 0.25 0 0 1 23.75 12.5ZM24.75 12.5A0.25 0.25 0 0 1 24.5 12.75A0.25 0.25 0 0 1 24.25 12.5A0.25 0.25 0 0 1 24.5 12.25A0.25 0.25 0 0 1 24.75 12.5ZM27.75 12.5A0.25 0.25 0 0 1 27.5 12.75A0.25 0.25 0 0 1 27.25 12.5A0.25 0.25 0 0 1 27.5 12.25A0.25 0.25 0 0 1 27.75 12.5ZM1.75 13.5A0.25 0.25 0 0 1 1.5 13.75A0.25 0.25 0 0 1 1.25 13.5A0.25 0.25 0 0 1 1.5 13.25A0.25 0.25 0 0 1 1.75 13.5ZM2.75 13.5A0.25 0.25 0 0 1 2.5 13.75A0.25 0.25 0 0 1 2.25 13.5A0.25 0.25 0 0 1 2.5 13.25A0.25 0.25 0 0 1 2.75 13.5ZM3.75 13.5A0.25 0.25 0 0 1 3.5 13.75A0.25 0.25 0 0 1 3.25 13.5A0.25 0.25 0 0 1 3.5 13.25A0.25 0.25 0 0 1 3.75 13.5ZM4.75 13.5A0.25 0.25 0 0 1 4.5 13.75A0.25 0.25 0 0 1 4.25 13.5A0.25 0.25 0 0 1 4.5 13.25A0.25 0.25 0 0 1 4.75 13.5ZM7.75 13.5A0.25 0.25 0 0 1 7.5 13.75A0.25 0.25 0 0 1 7.25 13.5A0.25 0.25 0 0 1 7.5 13.25A0.25 0.25 0 0 1 7.75 13.5ZM8.75 13.5A0.25 0.25 0 0 1 8.5 13.75A0.25 0.25 0 0 1 8.25 13.5A0.25 0.25 0 0 1 8.5 13.25A0.25 0.25 0 0 1 8.75 13.5ZM12.75 13.5A0.25 0.25 0 0 1 12.5 13.75A0.25 0.25 0 0 1 12.25 13.5A0.25 0.25 0 0 1 12.5 13.25A0.25 0.25 0 0 1 12.75 13.5ZM13.75 13.5A0.25 0.25 0 0 1 13.5 13.75A0.25 0.25 0 0 1 13.25 13.5A0.25 0.25 0 0 1 13.5 13.25A0.25 0.25 0 0 1 13.75 13.5ZM16.75 13.5A0.25 0.25 0 0 1 16.5 13.75A0.25 0.25 0 0 1 16.25 13.5A0.25 0.25 0 0 1 16.5 13.25A0.25 0.25 0 0 1 16.75 13.5ZM23.75 13.5A0.25 0.25 0 0 1 23.5 13.75A0.25 0.25 0 0 1 23.25 13.5A0.25 0.25 0 0 1 23.5 13.25A0.25 0.25 0 0 1 23.75 13.5ZM24.75 13.5A0.25 0.25 0 0 1 24.5 13.75A0.25 0.25 0 0 1 24.25 13.5A0.25 0.25 0 0 1 24.5 13.25A0.25 0.25 0 0 1 24.75 13.5ZM25.75 13.5A0.25 0.25 0 0 1 25.5 13.75A0.25 0.25 0 0 1 25.25 13.5A0.25 0.25 0 0 1 25.5 13.25A0.25 0.25 0 0 1 25.75 13.5ZM26.75 13.5A0.25 0.25 0 0 1 26.5 13.75A0.25 0.25 0 0 1 26.25 13.5A0.25 0.25 0 0 1 26.5 13.25A0.25 0.25 0 0 1 26.75 13.5ZM27.75 13.5A0.25 0.25 0 0 1 27.5 13.75A0.25 0.25 0 0 1 27.25 13.5A0.25 0.25 0 0 1 27.5 13.25A0.25 0.25 0 0 1 27.75 13.5ZM2.75 14.5A0.25 0.25 0 0 1 2.5 14.75A0.25 0.25 0 0 1 2.25 14.5A0.25 0.25 0 0 1 2.5 14.25A0.25 0.25 0 0 1 2.75 14.5ZM4.75 14.5A0.25 0.25 0 0 1 4.5 14.75A0.25 0.25 0 0 1 4.25 14.5A0.25 0.25 0 0 1 4.5 14.25A0.25 0.25 0 0 1 4.75 14.5ZM6.75 14.5A0.25 0.25 0 0 1 6.5 14.75A0.25 0.25 0 0 1 6.25 14.5A0.25 0.25 0 0 1 6.5 14.25A0.25 0.25 0 0 1 6.75 14.5ZM8.75 14.5A0.25 0.25 0 0 1 8.5 14.75A0.25 0.25 0 0 1 8.25 14.5A0.25 0.25 0 0 1 8.5 14.25A0.25 0.25 0 0 1 8.75 14.5ZM11.75 14.5A0.25 0.25 0 0 1 11.5 14.75A0.25 0.25 0 0 1 11.25 14.5A0.25 0.25 0 0 1 11.5 14.25A0.25 0.25 0 0 1 11.75 14.5ZM12.75 14.5A0.25 0.25 0 0 1 12.5 14.75A0.25 0.25 0 0 1 12.25 14.5A0.25 0.25 0 0 1 12.5 14.25A0.25 0.25 0 0 1 12.75 14.5ZM16.75 14.5A0.25 0.25 0 0 1 16.5 14.75A0.25 0.25 0 0 1 16.25 14.5A0.25 0.25 0 0 1 16.5 14.25A0.25 0.25 0 0 1 16.75 14.5ZM17.75 14.5A0.25 0.25 0 0 1 17.5 14.75A0.25 0.25 0 0 1 17.25 14.5A0.25 0.25 0 0 1 17.5 14.25A0.25 0.25 0 0 1 17.75 14.5ZM18.75 14.5A0.25 0.25 0 0 1 18.5 14.75A0.25 0.25 0 0 1 18.25 14.5A0.25 0.25 0 0 1 18.5 14.25A0.25 0.25 0 0 1 18.75 14.5ZM19.75 14.5A0.25 0.25 0 0 1 19.5 14.75A0.25 0.25 0 0 1 19.25 14.5A0.25 0.25 0 0 1 19.5 14.25A0.25 0.25 0 0 1 19.75 14.5ZM20.75 14.5A0.25 0.25 0 0 1 20.5 14.75A0.25 0.25 0 0 1 20.25 14.5A0.25 0.25 0 0 1 20.5 14.25A0.25 0.25 0 0 1 20.75 14.5ZM21.75 14.5A0.25 0.25 0 0 1 21.5 14.75A0.25 0.25 0 0 1 21.25 14.5A0.25 0.25 0 0 1 21.5 14.25A0.25 0.25 0 0 1 21.75 14.5ZM22.75 14.5A0.25 0.25 0 0 1 22.5 14.75A0.25 0.25 0 0 1 22.25 14.5A0.25 0.25 0 0 1 22.5 14.25A0.25 0.25 0 0 1 22.75 14.5ZM24.75 14.5A0.25 0.25 0 0 1 24.5 14.75A0.25 0.25 0 0 1 24.25 14.5A0.25 0.25 0 0 1 24.5 14.25A0.25 0.25 0 0 1 24.75 14.5ZM25.75 14.5A0.25 0.25 0 0 1 25.5 14.75A0.25 0.25 0 0 1 25.25 14.5A0.25 0.25 0 0 1 25.5 14.25A0.25 0.25 0 0 1 25.75 14.5ZM27.75 14.5A0.25 0.25 0 0 1 27.5 14.75A0.25 0.25 0 0 1 27.25 14.5A0.25 0.25 0 0 1 27.5 14.25A0.25 0.25 0 0 1 27.75 14.5ZM28.75 14.5A0.25 0.25 0 0 1 28.5 14.75A0.25 0.25 0 0 1 28.25 14.5A0.25 0.25 0 0 1 28.5 14.25A0.25 0.25 0 0 1 28.75 14.5ZM1.75 15.5A0.25 0.25 0 0 1 1.5 15.75A0.25 0.25 0 0 1 1.25 15.5A0.25 0.25 0 0 1 1.5 15.25A0.25 0.25 0 0 1 1.75 15.5ZM2.75 15.5A0.25 0.25 0 0 1 2.5 15.75A0.25 0.25 0 0 1 2.25 15.5A0.25 0.25 0 0 1 2.5 15.25A0.25 0.25 0 0 1 2.75 15.5ZM3.75 15.5A0.25 0.25 0 0 1 3.5 15.75A0.25 0.25 0 0 1 3.25 15.5A0.25 0.25 0 0 1 3.5 15.25A0.25 0.25 0 0 1 3.75 15.5ZM4.75 15.5A0.25 0.25 0 0 1 4.5 15.75A0.25 0.25 0 0 1 4.25 15.5A0.25 0.25 0 0 1 4.5 15.25A0.25 0.25 0 0 1 4.75 15.5ZM7.75 15.5A0.25 0.25 0 0 1 7.5 15.75A0.25 0.25 0 0 1 7.25 15.5A0.25 0.25 0 0 1 7.5 15.25A0.25 0.25 0 0 1 7.75 15.5ZM9.75 15.5A0.25 0.25 0 0 1 9.5 15.75A0.25 0.25 0 0 1 9.25 15.5A0.25 0.25 0 0 1 9.5 15.25A0.25 0.25 0 0 1 9.75 15.5ZM10.75 15.5A0.25 0.25 0 0 1 10.5 15.75A0.25 0.25 0 0 1 10.25 15.5A0.25 0.25 0 0 1 10.5 15.25A0.25 0.25 0 0 1 10.75 15.5ZM11.75 15.5A0.25 0.25 0 0 1 11.5 15.75A0.25 0.25 0 0 1 11.25 15.5A0.25 0.25 0 0 1 11.5 15.25A0.25 0.25 0 0 1 11.75 15.5ZM12.75 15.5A0.25 0.25 0 0 1 12.5 15.75A0.25 0.25 0 0 1 12.25 15.5A0.25 0.25 0 0 1 12.5 15.25A0.25 0.25 0 0 1 12.75 15.5ZM14.75 15.5A0.25 0.25 0 0 1 14.5 15.75A0.25 0.25 0 0 1 14.25 15.5A0.25 0.25 0 0 1 14.5 15.25A0.25 0.25 0 0 1 14.75 15.5ZM15.75 15.5A0.25 0.25 0 0 1 15.5 15.75A0.25 0.25 0 0 1 15.25 15.5A0.25 0.25 0 0 1 15.5 15.25A0.25 0.25 0 0 1 15.75 15.5ZM17.75 15.5A0.25 0.25 0 0 1 17.5 15.75A0.25 0.25 0 0 1 17.25 15.5A0.25 0.25 0 0 1 17.5 15.25A0.25 0.25 0 0 1 17.75 15.5ZM19.75 15.5A0.25 0.25 0 0 1 19.5 15.75A0.25 0.25 0 0 1 19.25 15.5A0.25 0.25 0 0 1 19.5 15.25A0.25 0.25 0 0 1 19.75 15.5ZM20.75 15.5A0.25 0.25 0 0 1 20.5 15.75A0.25 0.25 0 0 1 20.25 15.5A0.25 0.25 0 0 1 20.5 15.25A0.25 0.25 0 0 1 20.75 15.5ZM22.75 15.5A0.25 0.25 0 0 1 22.5 15.75A0.25 0.25 0 0 1 22.25 15.5A0.25 0.25 0 0 1 22.5 15.25A0.25 0.25 0 0 1 22.75 15.5ZM23.75 15.5A0.25 0.25 0 0 1 23.5 15.75A0.25 0.25 0 0 1 23.25 15.5A0.25 0.25 0 0 1 23.5 15.25A0.25 0.25 0 0 1 23.75 15.5ZM24.75 15.5A0.25 0.25 0 0 1 24.5 15.75A0.25 0.25 0 0 1 24.25 15.5A0.25 0.25 0 0 1 24.5 15.25A0.25 0.25 0 0 1 24.75 15.5ZM25.75 15.5A0.25 0.25 0 0 1 25.5 15.75A0.25 0.25 0 0 1 25.25 15.5A0.25 0.25 0 0 1 25.5 15.25A0.25 0.25 0 0 1 25.75 15.5ZM26.75 15.5A0.25 0.25 0 0 1 26.5 15.75A0.25 0.25 0 0 1 26.25 15.5A0.25 0.25 0 0 1 26.5 15.25A0.25 0.25 0 0 1 26.75 15.5ZM27.75 15.5A0.25 0.25 0 0 1 27.5 15.75A0.25 0.25 0 0 1 27.25 15.5A0.25 0.25 0 0 1 27.5 15.25A0.25 0.25 0 0 1 27.75 15.5ZM28.75 15.5A0.25 0.25 0 0 1 28.5 15.75A0.25 0.25 0 0 1 28.25 15.5A0.25 0.25 0 0 1 28.5 15.25A0.25 0.25 0 0 1 28.75 15.5ZM1.75 16.5A0.25 0.25 0 0 1 1.5 16.75A0.25 0.25 0 0 1 1.25 16.5A0.25 0.25 0 0 1 1.5 16.25A0.25 0.25 0 0 1 1.75 16.5ZM3.75 16.5A0.25 0.25 0 0 1 3.5 16.75A0.25 0.25 0 0 1 3.25 16.5A0.25 0.25 0 0 1 3.5 16.25A0.25 0.25 0 0 1 3.75 16.5ZM4.75 16.5A0.25 0.25 0 0 1 4.5 16.75A0.25 0.25 0 0 1 4.25 16.5A0.25 0.25 0 0 1 4.5 16.25A0.25 0.25 0 0 1 4.75 16.5ZM5.75 16.5A0.25 0.25 0 0 1 5.5 16.75A0.25 0.25 0 0 1 5.25 16.5A0.25 0.25 0 0 1 5.5 16.25A0.25 0.25 0 0 1 5.75 16.5ZM6.75 16.5A0.25 0.25 0 0 1 6.5 16.75A0.25 0.25 0 0 1 6.25 16.5A0.25 0.25 0 0 1 6.5 16.25A0.25 0.25 0 0 1 6.75 16.5ZM7.75 16.5A0.25 0.25 0 0 1 7.5 16.75A0.25 0.25 0 0 1 7.25 16.5A0.25 0.25 0 0 1 7.5 16.25A0.25 0.25 0 0 1 7.75 16.5ZM11.75 16.5A0.25 0.25 0 0 1 11.5 16.75A0.25 0.25 0 0 1 11.25 16.5A0.25 0.25 0 0 1 11.5 16.25A0.25 0.25 0 0 1 11.75 16.5ZM12.75 16.5A0.25 0.25 0 0 1 12.5 16.75A0.25 0.25 0 0 1 12.25 16.5A0.25 0.25 0 0 1 12.5 16.25A0.25 0.25 0 0 1 12.75 16.5ZM14.75 16.5A0.25 0.25 0 0 1 14.5 16.75A0.25 0.25 0 0 1 14.25 16.5A0.25 0.25 0 0 1 14.5 16.25A0.25 0.25 0 0 1 14.75 16.5ZM16.75 16.5A0.25 0.25 0 0 1 16.5 16.75A0.25 0.25 0 0 1 16.25 16.5A0.25 0.25 0 0 1 16.5 16.25A0.25 0.25 0 0 1 16.75 16.5ZM20.75 16.5A0.25 0.25 0 0 1 20.5 16.75A0.25 0.25 0 0 1 20.25 16.5A0.25 0.25 0 0 1 20.5 16.25A0.25 0.25 0 0 1 20.75 16.5ZM21.75 16.5A0.25 0.25 0 0 1 21.5 16.75A0.25 0.25 0 0 1 21.25 16.5A0.25 0.25 0 0 1 21.5 16.25A0.25 0.25 0 0 1 21.75 16.5ZM24.75 16.5A0.25 0.25 0 0 1 24.5 16.75A0.25 0.25 0 0 1 24.25 16.5A0.25 0.25 0 0 1 24.5 16.25A0.25 0.25 0 0 1 24.75 16.5ZM27.75 16.5A0.25 0.25 0 0 1 27.5 16.75A0.25 0.25 0 0 1 27.25 16.5A0.25 0.25 0 0 1 27.5 16.25A0.25 0.25 0 0 1 27.75 16.5ZM2.75 17.5A0.25 0.25 0 0 1 2.5 17.75A0.25 0.25 0 0 1 2.25 17.5A0.25 0.25 0 0 1 2.5 17.25A0.25 0.25 0 0 1 2.75 17.5ZM5.75 17.5A0.25 0.25 0 0 1 5.5 17.75A0.25 0.25 0 0 1 5.25 17.5A0.25 0.25 0 0 1 5.5 17.25A0.25 0.25 0 0 1 5.75 17.5ZM7.75 17.5A0.25 0.25 0 0 1 7.5 17.75A0.25 0.25 0 0 1 7.25 17.5A0.25 0.25 0 0 1 7.5 17.25A0.25 0.25 0 0 1 7.75 17.5ZM8.75 17.5A0.25 0.25 0 0 1 8.5 17.75A0.25 0.25 0 0 1 8.25 17.5A0.25 0.25 0 0 1 8.5 17.25A0.25 0.25 0 0 1 8.75 17.5ZM9.75 17.5A0.25 0.25 0 0 1 9.5 17.75A0.25 0.25 0 0 1 9.25 17.5A0.25 0.25 0 0 1 9.5 17.25A0.25 0.25 0 0 1 9.75 17.5ZM12.75 17.5A0.25 0.25 0 0 1 12.5 17.75A0.25 0.25 0 0 1 12.25 17.5A0.25 0.25 0 0 1 12.5 17.25A0.25 0.25 0 0 1 12.75 17.5ZM14.75 17.5A0.25 0.25 0 0 1 14.5 17.75A0.25 0.25 0 0 1 14.25 17.5A0.25 0.25 0 0 1 14.5 17.25A0.25 0.25 0 0 1 14.75 17.5ZM15.75 17.5A0.25 0.25 0 0 1 15.5 17.75A0.25 0.25 0 0 1 15.25 17.5A0.25 0.25 0 0 1 15.5 17.25A0.25 0.25 0 0 1 15.75 17.5ZM17.75 17.5A0.25 0.25 0 0 1 17.5 17.75A0.25 0.25 0 0 1 17.25 17.5A0.25 0.25 0 0 1 17.5 17.25A0.25 0.25 0 0 1 17.75 17.5ZM19.75 17.5A0.25 0.25 0 0 1 19.5 17.75A0.25 0.25 0 0 1 19.25 17.5A0.25 0.25 0 0 1 19.5 17.25A0.25 0.25 0 0 1 19.75 17.5ZM20.75 17.5A0.25 0.25 0 0 1 20.5 17.75A0.25 0.25 0 0 1 20.25 17.5A0.25 0.25 0 0 1 20.5 17.25A0.25 0.25 0 0 1 20.75 17.5ZM22.75 17.5A0.25 0.25 0 0 1 22.5 17.75A0.25 0.25 0 0 1 22.25 17.5A0.25 0.25 0 0 1 22.5 17.25A0.25 0.25 0 0 1 22.75 17.5ZM28.75 17.5A0.25 0.25 0 0 1 28.5 17.75A0.25 0.25 0 0 1 28.25 17.5A0.25 0.25 0 0 1 28.5 17.25A0.25 0.25 0 0 1 28.75 17.5ZM0.75 18.5A0.25 0.25 0 0 1 0.5 18.75A0.25 0.25 0 0 1 0.25 18.5A0.25 0.25 0 0 1 0.5 18.25A0.25 0.25 0 0 1 0.75 18.5ZM2.75 18.5A0.25 0.25 0 0 1 2.5 18.75A0.25 0.25 0 0 1 2.25 18.5A0.25 0.25 0 0 1 2.5 18.25A0.25 0.25 0 0 1 2.75 18.5ZM3.75 18.5A0.25 0.25 0 0 1 3.5 18.75A0.25 0.25 0 0 1 3.25 18.5A0.25 0.25 0 0 1 3.5 18.25A0.25 0.25 0 0 1 3.75 18.5ZM6.75 18.5A0.25 0.25 0 0 1 6.5 18.75A0.25 0.25 0 0 1 6.25 18.5A0.25 0.25 0 0 1 6.5 18.25A0.25 0.25 0 0 1 6.75 18.5ZM7.75 18.5A0.25 0.25 0 0 1 7.5 18.75A0.25 0.25 0 0 1 7.25 18.5A0.25 0.25 0 0 1 7.5 18.25A0.25 0.25 0 0 1 7.75 18.5ZM8.75 18.5A0.25 0.25 0 0 1 8.5 18.75A0.25 0.25 0 0 1 8.25 18.5A0.25 0.25 0 0 1 8.5 18.25A0.25 0.25 0 0 1 8.75 18.5ZM10.75 18.5A0.25 0.25 0 0 1 10.5 18.75A0.25 0.25 0 0 1 10.25 18.5A0.25 0.25 0 0 1 10.5 18.25A0.25 0.25 0 0 1 10.75 18.5ZM11.75 18.5A0.25 0.25 0 0 1 11.5 18.75A0.25 0.25 0 0 1 11.25 18.5A0.25 0.25 0 0 1 11.5 18.25A0.25 0.25 0 0 1 11.75 18.5ZM15.75 18.5A0.25 0.25 0 0 1 15.5 18.75A0.25 0.25 0 0 1 15.25 18.5A0.25 0.25 0 0 1 15.5 18.25A0.25 0.25 0 0 1 15.75 18.5ZM18.75 18.5A0.25 0.25 0 0 1 18.5 18.75A0.25 0.25 0 0 1 18.25 18.5A0.25 0.25 0 0 1 18.5 18.25A0.25 0.25 0 0 1 18.75 18.5ZM20.75 18.5A0.25 0.25 0 0 1 20.5 18.75A0.25 0.25 0 0 1 20.25 18.5A0.25 0.25 0 0 1 20.5 18.25A0.25 0.25 0 0 1 20.75 18.5ZM26.75 18.5A0.25 0.25 0 0 1 26.5 18.75A0.25 0.25 0 0 1 26.25 18.5A0.25 0.25 0 0 1 26.5 18.25A0.25 0.25 0 0 1 26.75 18.5ZM2.75 19.5A0.25 0.25 0 0 1 2.5 19.75A0.25 0.25 0 0 1 2.25 19.5A0.25 0.25 0 0 1 2.5 19.25A0.25 0.25 0 0 1 2.75 19.5ZM3.75 19.5A0.25 0.25 0 0 1 3.5 19.75A0.25 0.25 0 0 1 3.25 19.5A0.25 0.25 0 0 1 3.5 19.25A0.25 0.25 0 0 1 3.75 19.5ZM4.75 19.5A0.25 0.25 0 0 1 4.5 19.75A0.25 0.25 0 0 1 4.25 19.5A0.25 0.25 0 0 1 4.5 19.25A0.25 0.25 0 0 1 4.75 19.5ZM5.75 19.5A0.25 0.25 0 0 1 5.5 19.75A0.25 0.25 0 0 1 5.25 19.5A0.25 0.25 0 0 1 5.5 19.25A0.25 0.25 0 0 1 5.75 19.5ZM9.75 19.5A0.25 0.25 0 0 1 9.5 19.75A0.25 0.25 0 0 1 9.25 19.5A0.25 0.25 0 0 1 9.5 19.25A0.25 0.25 0 0 1 9.75 19.5ZM11.75 19.5A0.25 0.25 0 0 1 11.5 19.75A0.25 0.25 0 0 1 11.25 19.5A0.25 0.25 0 0 1 11.5 19.25A0.25 0.25 0 0 1 11.75 19.5ZM12.75 19.5A0.25 0.25 0 0 1 12.5 19.75A0.25 0.25 0 0 1 12.25 19.5A0.25 0.25 0 0 1 12.5 19.25A0.25 0.25 0 0 1 12.75 19.5ZM17.75 19.5A0.25 0.25 0 0 1 17.5 19.75A0.25 0.25 0 0 1 17.25 19.5A0.25 0.25 0 0 1 17.5 19.25A0.25 0.25 0 0 1 17.75 19.5ZM19.75 19.5A0.25 0.25 0 0 1 19.5 19.75A0.25 0.25 0 0 1 19.25 19.5A0.25 0.25 0 0 1 19.5 19.25A0.25 0.25 0 0 1 19.75 19.5ZM22.75 19.5A0.25 0.25 0 0 1 22.5 19.75A0.25 0.25 0 0 1 22.25 19.5A0.25 0.25 0 0 1 22.5 19.25A0.25 0.25 0 0 1 22.75 19.5ZM25.75 19.5A0.25 0.25 0 0 1 25.5 19.75A0.25 0.25 0 0 1 25.25 19.5A0.25 0.25 0 0 1 25.5 19.25A0.25 0.25 0 0 1 25.75 19.5ZM26.75 19.5A0.25 0.25 0 0 1 26.5 19.75A0.25 0.25 0 0 1 26.25 19.5A0.25 0.25 0 0 1 26.5 19.25A0.25 0.25 0 0 1 26.75 19.5ZM27.75 19.5A0.25 0.25 0 0 1 27.5 19.75A0.25 0.25 0 0 1 27.25 19.5A0.25 0.25 0 0 1 27.5 19.25A0.25 0.25 0 0 1 27.75 19.5ZM28.75 19.5A0.25 0.25 0 0 1 28.5 19.75A0.25 0.25 0 0 1 28.25 19.5A0.25 0.25 0 0 1 28.5 19.25A0.25 0.25 0 0 1 28.75 19.5ZM1.75 20.5A0.25 0.25 0 0 1 1.5 20.75A0.25 0.25 0 0 1 1.25 20.5A0.25 0.25 0 0 1 1.5 20.25A0.25 0.25 0 0 1 1.75 20.5ZM4.75 20.5A0.25 0.25 0 0 1 4.5 20.75A0.25 0.25 0 0 1 4.25 20.5A0.25 0.25 0 0 1 4.5 20.25A0.25 0.25 0 0 1 4.75 20.5ZM6.75 20.5A0.25 0.25 0 0 1 6.5 20.75A0.25 0.25 0 0 1 6.25 20.5A0.25 0.25 0 0 1 6.5 20.25A0.25 0.25 0 0 1 6.75 20.5ZM9.75 20.5A0.25 0.25 0 0 1 9.5 20.75A0.25 0.25 0 0 1 9.25 20.5A0.25 0.25 0 0 1 9.5 20.25A0.25 0.25 0 0 1 9.75 20.5ZM12.75 20.5A0.25 0.25 0 0 1 12.5 20.75A0.25 0.25 0 0 1 12.25 20.5A0.25 0.25 0 0 1 12.5 20.25A0.25 0.25 0 0 1 12.75 20.5ZM14.75 20.5A0.25 0.25 0 0 1 14.5 20.75A0.25 0.25 0 0 1 14.25 20.5A0.25 0.25 0 0 1 14.5 20.25A0.25 0.25 0 0 1 14.75 20.5ZM16.75 20.5A0.25 0.25 0 0 1 16.5 20.75A0.25 0.25 0 0 1 16.25 20.5A0.25 0.25 0 0 1 16.5 20.25A0.25 0.25 0 0 1 16.75 20.5ZM17.75 20.5A0.25 0.25 0 0 1 17.5 20.75A0.25 0.25 0 0 1 17.25 20.5A0.25 0.25 0 0 1 17.5 20.25A0.25 0.25 0 0 1 17.75 20.5ZM18.75 20.5A0.25 0.25 0 0 1 18.5 20.75A0.25 0.25 0 0 1 18.25 20.5A0.25 0.25 0 0 1 18.5 20.25A0.25 0.25 0 0 1 18.75 20.5ZM19.75 20.5A0.25 0.25 0 0 1 19.5 20.75A0.25 0.25 0 0 1 19.25 20.5A0.25 0.25 0 0 1 19.5 20.25A0.25 0.25 0 0 1 19.75 20.5ZM20.75 20.5A0.25 0.25 0 0 1 20.5 20.75A0.25 0.25 0 0 1 20.25 20.5A0.25 0.25 0 0 1 20.5 20.25A0.25 0.25 0 0 1 20.75 20.5ZM21.75 20.5A0.25 0.25 0 0 1 21.5 20.75A0.25 0.25 0 0 1 21.25 20.5A0.25 0.25 0 0 1 21.5 20.25A0.25 0.25 0 0 1 21.75 20.5ZM22.75 20.5A0.25 0.25 0 0 1 22.5 20.75A0.25 0.25 0 0 1 22.25 20.5A0.25 0.25 0 0 1 22.5 20.25A0.25 0.25 0 0 1 22.75 20.5ZM23.75 20.5A0.25 0.25 0 0 1 23.5 20.75A0.25 0.25 0 0 1 23.25 20.5A0.25 0.25 0 0 1 23.5 20.25A0.25 0.25 0 0 1 23.75 20.5ZM24.75 20.5A0.25 0.25 0 0 1 24.5 20.75A0.25 0.25 0 0 1 24.25 20.5A0.25 0.25 0 0 1 24.5 20.25A0.25 0.25 0 0 1 24.75 20.5ZM8.75 21.5A0.25 0.25 0 0 1 8.5 21.75A0.25 0.25 0 0 1 8.25 21.5A0.25 0.25 0 0 1 8.5 21.25A0.25 0.25 0 0 1 8.75 21.5ZM9.75 21.5A0.25 0.25 0 0 1 9.5 21.75A0.25 0.25 0 0 1 9.25 21.5A0.25 0.25 0 0 1 9.5 21.25A0.25 0.25 0 0 1 9.75 21.5ZM10.75 21.5A0.25 0.25 0 0 1 10.5 21.75A0.25 0.25 0 0 1 10.25 21.5A0.25 0.25 0 0 1 10.5 21.25A0.25 0.25 0 0 1 10.75 21.5ZM15.75 21.5A0.25 0.25 0 0 1 15.5 21.75A0.25 0.25 0 0 1 15.25 21.5A0.25 0.25 0 0 1 15.5 21.25A0.25 0.25 0 0 1 15.75 21.5ZM16.75 21.5A0.25 0.25 0 0 1 16.5 21.75A0.25 0.25 0 0 1 16.25 21.5A0.25 0.25 0 0 1 16.5 21.25A0.25 0.25 0 0 1 16.75 21.5ZM19.75 21.5A0.25 0.25 0 0 1 19.5 21.75A0.25 0.25 0 0 1 19.25 21.5A0.25 0.25 0 0 1 19.5 21.25A0.25 0.25 0 0 1 19.75 21.5ZM20.75 21.5A0.25 0.25 0 0 1 20.5 21.75A0.25 0.25 0 0 1 20.25 21.5A0.25 0.25 0 0 1 20.5 21.25A0.25 0.25 0 0 1 20.75 21.5ZM24.75 21.5A0.25 0.25 0 0 1 24.5 21.75A0.25 0.25 0 0 1 24.25 21.5A0.25 0.25 0 0 1 24.5 21.25A0.25 0.25 0 0 1 24.75 21.5ZM25.75 21.5A0.25 0.25 0 0 1 25.5 21.75A0.25 0.25 0 0 1 25.25 21.5A0.25 0.25 0 0 1 25.5 21.25A0.25 0.25 0 0 1 25.75 21.5ZM27.75 21.5A0.25 0.25 0 0 1 27.5 21.75A0.25 0.25 0 0 1 27.25 21.5A0.25 0.25 0 0 1 27.5 21.25A0.25 0.25 0 0 1 27.75 21.5ZM8.75 22.5A0.25 0.25 0 0 1 8.5 22.75A0.25 0.25 0 0 1 8.25 22.5A0.25 0.25 0 0 1 8.5 22.25A0.25 0.25 0 0 1 8.75 22.5ZM10.75 22.5A0.25 0.25 0 0 1 10.5 22.75A0.25 0.25 0 0 1 10.25 22.5A0.25 0.25 0 0 1 10.5 22.25A0.25 0.25 0 0 1 10.75 22.5ZM14.75 22.5A0.25 0.25 0 0 1 14.5 22.75A0.25 0.25 0 0 1 14.25 22.5A0.25 0.25 0 0 1 14.5 22.25A0.25 0.25 0 0 1 14.75 22.5ZM17.75 22.5A0.25 0.25 0 0 1 17.5 22.75A0.25 0.25 0 0 1 17.25 22.5A0.25 0.25 0 0 1 17.5 22.25A0.25 0.25 0 0 1 17.75 22.5ZM18.75 22.5A0.25 0.25 0 0 1 18.5 22.75A0.25 0.25 0 0 1 18.25 22.5A0.25 0.25 0 0 1 18.5 22.25A0.25 0.25 0 0 1 18.75 22.5ZM20.75 22.5A0.25 0.25 0 0 1 20.5 22.75A0.25 0.25 0 0 1 20.25 22.5A0.25 0.25 0 0 1 20.5 22.25A0.25 0.25 0 0 1 20.75 22.5ZM22.75 22.5A0.25 0.25 0 0 1 22.5 22.75A0.25 0.25 0 0 1 22.25 22.5A0.25 0.25 0 0 1 22.5 22.25A0.25 0.25 0 0 1 22.75 22.5ZM24.75 22.5A0.25 0.25 0 0 1 24.5 22.75A0.25 0.25 0 0 1 24.25 22.5A0.25 0.25 0 0 1 24.5 22.25A0.25 0.25 0 0 1 24.75 22.5ZM9.75 23.5A0.25 0.25 0 0 1 9.5 23.75A0.25 0.25 0 0 1 9.25 23.5A0.25 0.25 0 0 1 9.5 23.25A0.25 0.25 0 0 1 9.75 23.5ZM12.75 23.5A0.25 0.25 0 0 1 12.5 23.75A0.25 0.25 0 0 1 12.25 23.5A0.25 0.25 0 0 1 12.5 23.25A0.25 0.25 0 0 1 12.75 23.5ZM16.75 23.5A0.25 0.25 0 0 1 16.5 23.75A0.25 0.25 0 0 1 16.25 23.5A0.25 0.25 0 0 1 16.5 23.25A0.25 0.25 0 0 1 16.75 23.5ZM20.75 23.5A0.25 0.25 0 0 1 20.5 23.75A0.25 0.25 0 0 1 20.25 23.5A0.25 0.25 0 0 1 20.5 23.25A0.25 0.25 0 0 1 20.75 23.5ZM24.75 23.5A0.25 0.25 0 0 1 24.5 23.75A0.25 0.25 0 0 1 24.25 23.5A0.25 0.25 0 0 1 24.5 23.25A0.25 0.25 0 0 1 24.75 23.5ZM25.75 23.5A0.25 0.25 0 0 1 25.5 23.75A0.25 0.25 0 0 1 25.25 23.5A0.25 0.25 0 0 1 25.5 23.25A0.25 0.25 0 0 1 25.75 23.5ZM26.75 23.5A0.25 0.25 0 0 1 26.5 23.75A0.25 0.25 0 0 1 26.25 23.5A0.25 0.25 0 0 1 26.5 23.25A0.25 0.25 0 0 1 26.75 23.5ZM10.75 24.5A0.25 0.25 0 0 1 10.5 24.75A0.25 0.25 0 0 1 10.25 24.5A0.25 0.25 0 0 1 10.5 24.25A0.25 0.25 0 0 1 10.75 24.5ZM12.75 24.5A0.25 0.25 0 0 1 12.5 24.75A0.25 0.25 0 0 1 12.25 24.5A0.25 0.25 0 0 1 12.5 24.25A0.25 0.25 0 0 1 12.75 24.5ZM13.75 24.5A0.25 0.25 0 0 1 13.5 24.75A0.25 0.25 0 0 1 13.25 24.5A0.25 0.25 0 0 1 13.5 24.25A0.25 0.25 0 0 1 13.75 24.5ZM16.75 24.5A0.25 0.25 0 0 1 16.5 24.75A0.25 0.25 0 0 1 16.25 24.5A0.25 0.25 0 0 1 16.5 24.25A0.25 0.25 0 0 1 16.75 24.5ZM17.75 24.5A0.25 0.25 0 0 1 17.5 24.75A0.25 0.25 0 0 1 17.25 24.5A0.25 0.25 0 0 1 17.5 24.25A0.25 0.25 0 0 1 17.75 24.5ZM18.75 24.5A0.25 0.25 0 0 1 18.5 24.75A0.25 0.25 0 0 1 18.25 24.5A0.25 0.25 0 0 1 18.5 24.25A0.25 0.25 0 0 1 18.75 24.5ZM20.75 24.5A0.25 0.25 0 0 1 20.5 24.75A0.25 0.25 0 0 1 20.25 24.5A0.25 0.25 0 0 1 20.5 24.25A0.25 0.25 0 0 1 20.75 24.5ZM21.75 24.5A0.25 0.25 0 0 1 21.5 24.75A0.25 0.25 0 0 1 21.25 24.5A0.25 0.25 0 0 1 21.5 24.25A0.25 0.25 0 0 1 21.75 24.5ZM22.75 24.5A0.25 0.25 0 0 1 22.5 24.75A0.25 0.25 0 0 1 22.25 24.5A0.25 0.25 0 0 1 22.5 24.25A0.25 0.25 0 0 1 22.75 24.5ZM23.75 24.5A0.25 0.25 0 0 1 23.5 24.75A0.25 0.25 0 0 1 23.25 24.5A0.25 0.25 0 0 1 23.5 24.25A0.25 0.25 0 0 1 23.75 24.5ZM24.75 24.5A0.25 0.25 0 0 1 24.5 24.75A0.25 0.25 0 0 1 24.25 24.5A0.25 0.25 0 0 1 24.5 24.25A0.25 0.25 0 0 1 24.75 24.5ZM25.75 24.5A0.25 0.25 0 0 1 25.5 24.75A0.25 0.25 0 0 1 25.25 24.5A0.25 0.25 0 0 1 25.5 24.25A0.25 0.25 0 0 1 25.75 24.5ZM27.75 24.5A0.25 0.25 0 0 1 27.5 24.75A0.25 0.25 0 0 1 27.25 24.5A0.25 0.25 0 0 1 27.5 24.25A0.25 0.25 0 0 1 27.75 24.5ZM8.75 25.5A0.25 0.25 0 0 1 8.5 25.75A0.25 0.25 0 0 1 8.25 25.5A0.25 0.25 0 0 1 8.5 25.25A0.25 0.25 0 0 1 8.75 25.5ZM9.75 25.5A0.25 0.25 0 0 1 9.5 25.75A0.25 0.25 0 0 1 9.25 25.5A0.25 0.25 0 0 1 9.5 25.25A0.25 0.25 0 0 1 9.75 25.5ZM13.75 25.5A0.25 0.25 0 0 1 13.5 25.75A0.25 0.25 0 0 1 13.25 25.5A0.25 0.25 0 0 1 13.5 25.25A0.25 0.25 0 0 1 13.75 25.5ZM14.75 25.5A0.25 0.25 0 0 1 14.5 25.75A0.25 0.25 0 0 1 14.25 25.5A0.25 0.25 0 0 1 14.5 25.25A0.25 0.25 0 0 1 14.75 25.5ZM15.75 25.5A0.25 0.25 0 0 1 15.5 25.75A0.25 0.25 0 0 1 15.25 25.5A0.25 0.25 0 0 1 15.5 25.25A0.25 0.25 0 0 1 15.75 25.5ZM16.75 25.5A0.25 0.25 0 0 1 16.5 25.75A0.25 0.25 0 0 1 16.25 25.5A0.25 0.25 0 0 1 16.5 25.25A0.25 0.25 0 0 1 16.75 25.5ZM18.75 25.5A0.25 0.25 0 0 1 18.5 25.75A0.25 0.25 0 0 1 18.25 25.5A0.25 0.25 0 0 1 18.5 25.25A0.25 0.25 0 0 1 18.75 25.5ZM19.75 25.5A0.25 0.25 0 0 1 19.5 25.75A0.25 0.25 0 0 1 19.25 25.5A0.25 0.25 0 0 1 19.5 25.25A0.25 0.25 0 0 1 19.75 25.5ZM24.75 25.5A0.25 0.25 0 0 1 24.5 25.75A0.25 0.25 0 0 1 24.25 25.5A0.25 0.25 0 0 1 24.5 25.25A0.25 0.25 0 0 1 24.75 25.5ZM25.75 25.5A0.25 0.25 0 0 1 25.5 25.75A0.25 0.25 0 0 1 25.25 25.5A0.25 0.25 0 0 1 25.5 25.25A0.25 0.25 0 0 1 25.75 25.5ZM26.75 25.5A0.25 0.25 0 0 1 26.5 25.75A0.25 0.25 0 0 1 26.25 25.5A0.25 0.25 0 0 1 26.5 25.25A0.25 0.25 0 0 1 26.75 25.5ZM27.75 25.5A0.25 0.25 0 0 1 27.5 25.75A0.25 0.25 0 0 1 27.25 25.5A0.25 0.25 0 0 1 27.5 25.25A0.25 0.25 0 0 1 27.75 25.5ZM8.75 26.5A0.25 0.25 0 0 1 8.5 26.75A0.25 0.25 0 0 1 8.25 26.5A0.25 0.25 0 0 1 8.5 26.25A0.25 0.25 0 0 1 8.75 26.5ZM9.75 26.5A0.25 0.25 0 0 1 9.5 26.75A0.25 0.25 0 0 1 9.25 26.5A0.25 0.25 0 0 1 9.5 26.25A0.25 0.25 0 0 1 9.75 26.5ZM11.75 26.5A0.25 0.25 0 0 1 11.5 26.75A0.25 0.25 0 0 1 11.25 26.5A0.25 0.25 0 0 1 11.5 26.25A0.25 0.25 0 0 1 11.75 26.5ZM12.75 26.5A0.25 0.25 0 0 1 12.5 26.75A0.25 0.25 0 0 1 12.25 26.5A0.25 0.25 0 0 1 12.5 26.25A0.25 0.25 0 0 1 12.75 26.5ZM13.75 26.5A0.25 0.25 0 0 1 13.5 26.75A0.25 0.25 0 0 1 13.25 26.5A0.25 0.25 0 0 1 13.5 26.25A0.25 0.25 0 0 1 13.75 26.5ZM14.75 26.5A0.25 0.25 0 0 1 14.5 26.75A0.25 0.25 0 0 1 14.25 26.5A0.25 0.25 0 0 1 14.5 26.25A0.25 0.25 0 0 1 14.75 26.5ZM17.75 26.5A0.25 0.25 0 0 1 17.5 26.75A0.25 0.25 0 0 1 17.25 26.5A0.25 0.25 0 0 1 17.5 26.25A0.25 0.25 0 0 1 17.75 26.5ZM18.75 26.5A0.25 0.25 0 0 1 18.5 26.75A0.25 0.25 0 0 1 18.25 26.5A0.25 0.25 0 0 1 18.5 26.25A0.25 0.25 0 0 1 18.75 26.5ZM21.75 26.5A0.25 0.25 0 0 1 21.5 26.75A0.25 0.25 0 0 1 21.25 26.5A0.25 0.25 0 0 1 21.5 26.25A0.25 0.25 0 0 1 21.75 26.5ZM22.75 26.5A0.25 0.25 0 0 1 22.5 26.75A0.25 0.25 0 0 1 22.25 26.5A0.25 0.25 0 0 1 22.5 26.25A0.25 0.25 0 0 1 22.75 26.5ZM26.75 26.5A0.25 0.25 0 0 1 26.5 26.75A0.25 0.25 0 0 1 26.25 26.5A0.25 0.25 0 0 1 26.5 26.25A0.25 0.25 0 0 1 26.75 26.5ZM28.75 26.5A0.25 0.25 0 0 1 28.5 26.75A0.25 0.25 0 0 1 28.25 26.5A0.25 0.25 0 0 1 28.5 26.25A0.25 0.25 0 0 1 28.75 26.5ZM9.75 27.5A0.25 0.25 0 0 1 9.5 27.75A0.25 0.25 0 0 1 9.25 27.5A0.25 0.25 0 0 1 9.5 27.25A0.25 0.25 0 0 1 9.75 27.5ZM10.75 27.5A0.25 0.25 0 0 1 10.5 27.75A0.25 0.25 0 0 1 10.25 27.5A0.25 0.25 0 0 1 10.5 27.25A0.25 0.25 0 0 1 10.75 27.5ZM12.75 27.5A0.25 0.25 0 0 1 12.5 27.75A0.25 0.25 0 0 1 12.25 27.5A0.25 0.25 0 0 1 12.5 27.25A0.25 0.25 0 0 1 12.75 27.5ZM13.75 27.5A0.25 0.25 0 0 1 13.5 27.75A0.25 0.25 0 0 1 13.25 27.5A0.25 0.25 0 0 1 13.5 27.25A0.25 0.25 0 0 1 13.75 27.5ZM15.75 27.5A0.25 0.25 0 0 1 15.5 27.75A0.25 0.25 0 0 1 15.25 27.5A0.25 0.25 0 0 1 15.5 27.25A0.25 0.25 0 0 1 15.75 27.5ZM17.75 27.5A0.25 0.25 0 0 1 17.5 27.75A0.25 0.25 0 0 1 17.25 27.5A0.25 0.25 0 0 1 17.5 27.25A0.25 0.25 0 0 1 17.75 27.5ZM18.75 27.5A0.25 0.25 0 0 1 18.5 27.75A0.25 0.25 0 0 1 18.25 27.5A0.25 0.25 0 0 1 18.5 27.25A0.25 0.25 0 0 1 18.75 27.5ZM19.75 27.5A0.25 0.25 0 0 1 19.5 27.75A0.25 0.25 0 0 1 19.25 27.5A0.25 0.25 0 0 1 19.5 27.25A0.25 0.25 0 0 1 19.75 27.5ZM23.75 27.5A0.25 0.25 0 0 1 23.5 27.75A0.25 0.25 0 0 1 23.25 27.5A0.25 0.25 0 0 1 23.5 27.25A0.25 0.25 0 0 1 23.75 27.5ZM28.75 27.5A0.25 0.25 0 0 1 28.5 27.75A0.25 0.25 0 0 1 28.25 27.5A0.25 0.25 0 0 1 28.5 27.25A0.25 0.25 0 0 1 28.75 27.5ZM10.75 28.5A0.25 0.25 0 0 1 10.5 28.75A0.25 0.25 0 0 1 10.25 28.5A0.25 0.25 0 0 1 10.5 28.25A0.25 0.25 0 0 1 10.75 28.5ZM12.75 28.5A0.25 0.25 0 0 1 12.5 28.75A0.25 0.25 0 0 1 12.25 28.5A0.25 0.25 0 0 1 12.5 28.25A0.25 0.25 0 0 1 12.75 28.5ZM13.75 28.5A0.25 0.25 0 0 1 13.5 28.75A0.25 0.25 0 0 1 13.25 28.5A0.25 0.25 0 0 1 13.5 28.25A0.25 0.25 0 0 1 13.75 28.5ZM14.75 28.5A0.25 0.25 0 0 1 14.5 28.75A0.25 0.25 0 0 1 14.25 28.5A0.25 0.25 0 0 1 14.5 28.25A0.25 0.25 0 0 1 14.75 28.5ZM15.75 28.5A0.25 0.25 0 0 1 15.5 28.75A0.25 0.25 0 0 1 15.25 28.5A0.25 0.25 0 0 1 15.5 28.25A0.25 0.25 0 0 1 15.75 28.5ZM18.75 28.5A0.25 0.25 0 0 1 18.5 28.75A0.25 0.25 0 0 1 18.25 28.5A0.25 0.25 0 0 1 18.5 28.25A0.25 0.25 0 0 1 18.75 28.5ZM20.75 28.5A0.25 0.25 0 0 1 20.5 28.75A0.25 0.25 0 0 1 20.25 28.5A0.25 0.25 0 0 1 20.5 28.25A0.25 0.25 0 0 1 20.75 28.5ZM22.75 28.5A0.25 0.25 0 0 1 22.5 28.75A0.25 0.25 0 0 1 22.25 28.5A0.25 0.25 0 0 1 22.5 28.25A0.25 0.25 0 0 1 22.75 28.5ZM27.75 28.5A0.25 0.25 0 0 1 27.5 28.75A0.25 0.25 0 0 1 27.25 28.5A0.25 0.25 0 0 1 27.5 28.25A0.25 0.25 0 0 1 27.75 28.5ZM0 0L7 0L7 7L0 7ZM1 1L1 6L6 6L6 1ZM2 2L5 2L5 5L2 5ZM22 0L29 0L29 7L22 7ZM23 1L23 6L28 6L28 1ZM24 2L27 2L27 5L24 5ZM0 22L7 22L7 29L0 29ZM1 23L1 28L6 28L6 23ZM2 24L5 24L5 27L2 27Z" fill="#b5df8d"/></g></g></svg>
