<?xml version="1.0" encoding="UTF-8"?>
<svg xmlns="http://www.w3.org/2000/svg" version="1.1" width="100" height="100" viewBox="0 0 100 100"><rect x="0" y="0" width="100" height="100" fill="#0edd6e" fill-opacity="0.25"/><g transform="scale(0.535)"><g transform="translate(81,81)"><path fill-rule="evenodd" d="M9 0.25L9 0.75A0.25 0.25 0 0 1 8.75 1L8.25 1A0.25 0.25 0 0 0 8 1.25L8 1.75A0.25 0.25 0 0 0 8.25 2L8.75 2A0.25 0.25 0 0 1 9 2.25L9 2.75A0.25 0.25 0 0 1 8.75 3L8.25 3A0.25 0.25 0 0 0 8 3.25L8 3.75A0.25 0.25 0 0 0 8.25 4L9.75 4A0.25 0.25 0 0 1 10 4.25L10 6.75A0.25 0.25 0 0 0 10.25 7L10.75 7A0.25 0.25 0 0 0 11 6.75L11 4.25A0.25 0.25 0 0 1 11.25 4L11.75 4A0.25 0.25 0 0 1 12 4.25L12 4.75A0.25 0.25 0 0 0 12.25 5L12.75 5A0.25 0.25 0 0 1 13 5.25L13 5.75A0.25 0.25 0 0 1 12.75 6L12.25 6A0.25 0.25 0 0 0 12 6.25L12 8.75A0.25 0.25 0 0 0 12.25 9L12.75 9A0.25 0.25 0 0 0 13 8.75L13 8.25A0.25 0.25 0 0 1 13.25 8L13.75 8A0.25 0.25 0 0 0 14 7.75L14 7.25A0.25 0.25 0 0 1 14.25 7L14.75 7A0.25 0.25 0 0 0 15 6.75L15 6.25A0.25 0.25 0 0 1 15.25 6L15.75 6A0.25 0.25 0 0 1 16 6.25L16 7.75A0.25 0.25 0 0 1 15.75 8L15.25 8A0.25 0.25 0 0 0 15 8.25L15 8.75A0.25 0.25 0 0 1 14.75 9L14.25 9A0.25 0.25 0 0 0 14 9.25L14 9.75A0.25 0.25 0 0 1 13.75 10L11.25 10A0.25 0.25 0 0 0 11 10.25L11 10.75A0.25 0.25 0 0 1 10.75 11L10.25 11A0.25 0.25 0 0 1 10 10.75L10 9.25A0.25 0.25 0 0 1 10.25 9L10.75 9A0.25 0.25 0 0 0 11 8.75L11 8.25A0.25 0.25 0 0 0 10.75 8L6.25 8A0.25 0.25 0 0 0 6 8.25L6 8.75A0.25 0.25 0 0 1 5.75 9L5.25 9A0.25 0.25 0 0 1 5 8.75L5 8.25A0.25 0.25 0 0 0 4.75 8L0.25 8A0.25 0.25 0 0 0 0 8.25L0 9.75A0.25 0.25 0 0 0 0.25 10L0.75 10A0.25 0.25 0 0 0 1 9.75L1 9.25A0.25 0.25 0 0 1 1.25 9L2.75 9A0.25 0.25 0 0 1 3 9.25L3 9.75A0.25 0.25 0 0 1 2.75 10L2.25 10A0.25 0.25 0 0 0 2 10.25L2 11.75A0.25 0.25 0 0 1 1.75 12L0.25 12A0.25 0.25 0 0 0 0 12.25L0 16.75A0.25 0.25 0 0 0 0.25 17L0.75 17A0.25 0.25 0 0 0 1 16.75L1 14.25A0.25 0.25 0 0 1 1.25 14L1.75 14A0.25 0.25 0 0 1 2 14.25L2 16.75A0.25 0.25 0 0 0 2.25 17L2.75 17A0.25 0.25 0 0 0 3 16.75L3 16.25A0.25 0.25 0 0 1 3.25 16L5.75 16A0.25 0.25 0 0 1 6 16.25L6 16.75A0.25 0.25 0 0 0 6.25 17L7.75 17A0.25 0.25 0 0 1 8 17.25L8 18.75A0.25 0.25 0 0 0 8.25 19L8.75 19A0.25 0.25 0 0 1 9 19.25L9 19.75A0.25 0.25 0 0 1 8.75 20L8.25 20A0.25 0.25 0 0 0 8 20.25L8 24.75A0.25 0.25 0 0 0 8.25 25L10.75 25A0.25 0.25 0 0 0 11 24.75L11 23.25A0.25 0.25 0 0 0 10.75 23L10.25 23A0.25 0.25 0 0 1 10 22.75L10 22.25A0.25 0.25 0 0 1 10.25 22L10.75 22A0.25 0.25 0 0 0 11 21.75L11 21.25A0.25 0.25 0 0 1 11.25 21L11.75 21A0.25 0.25 0 0 1 12 21.25L12 21.75A0.25 0.25 0 0 0 12.25 22L12.75 22A0.25 0.25 0 0 1 13 22.25L13 22.75A0.25 0.25 0 0 1 12.75 23L12.25 23A0.25 0.25 0 0 0 12 23.25L12 24.75A0.25 0.25 0 0 0 12.25 25L12.75 25A0.25 0.25 0 0 0 13 24.75L13 24.25A0.25 0.25 0 0 1 13.25 24L13.75 24A0.25 0.25 0 0 1 14 24.25L14 24.75A0.25 0.25 0 0 0 14.25 25L15.75 25A0.25 0.25 0 0 0 16 24.75L16 24.25A0.25 0.25 0 0 0 15.75 24L14.25 24A0.25 0.25 0 0 1 14 23.75L14 23.25A0.25 0.25 0 0 1 14.25 23L14.75 23A0.25 0.25 0 0 0 15 22.75L15 22.25A0.25 0.25 0 0 0 14.75 22L14.25 22A0.25 0.25 0 0 1 14 21.75L14 21.25A0.25 0.25 0 0 0 13.75 21L12.25 21A0.25 0.25 0 0 1 12 20.75L12 19.25A0.25 0.25 0 0 1 12.25 19L12.75 19A0.25 0.25 0 0 0 13 18.75L13 18.25A0.25 0.25 0 0 0 12.75 18L11.25 18A0.25 0.25 0 0 1 11 17.75L11 13.25A0.25 0.25 0 0 1 11.25 13L11.75 13A0.25 0.25 0 0 1 12 13.25L12 13.75A0.25 0.25 0 0 0 12.25 14L12.75 14A0.25 0.25 0 0 1 13 14.25L13 14.75A0.25 0.25 0 0 1 12.75 15L12.25 15A0.25 0.25 0 0 0 12 15.25L12 16.75A0.25 0.25 0 0 0 12.25 17L12.75 17A0.25 0.25 0 0 0 13 16.75L13 15.25A0.25 0.25 0 0 1 13.25 15L15.75 15A0.25 0.25 0 0 1 16 15.25L16 15.75A0.25 0.25 0 0 1 15.75 16L15.25 16A0.25 0.25 0 0 0 15 16.25L15 16.75A0.25 0.25 0 0 1 14.75 17L14.25 17A0.25 0.25 0 0 0 14 17.25L14 17.75A0.25 0.25 0 0 0 14.25 18L14.75 18A0.25 0.25 0 0 1 15 18.25L15 18.75A0.25 0.25 0 0 0 15.25 19L15.75 19A0.25 0.25 0 0 1 16 19.25L16 19.75A0.25 0.25 0 0 1 15.75 20L15.25 20A0.25 0.25 0 0 0 15 20.25L15 20.75A0.25 0.25 0 0 0 15.25 21L15.75 21A0.25 0.25 0 0 1 16 21.25L16 21.75A0.25 0.25 0 0 0 16.25 22L16.75 22A0.25 0.25 0 0 0 17 21.75L17 21.25A0.25 0.25 0 0 1 17.25 21L17.75 21A0.25 0.25 0 0 1 18 21.25L18 22.75A0.25 0.25 0 0 1 17.75 23L17.25 23A0.25 0.25 0 0 0 17 23.25L17 23.75A0.25 0.25 0 0 0 17.25 24L18.75 24A0.25 0.25 0 0 0 19 23.75L19 21.25A0.25 0.25 0 0 1 19.25 21L21.75 21A0.25 0.25 0 0 0 22 20.75L22 19.25A0.25 0.25 0 0 1 22.25 19L23.75 19A0.25 0.25 0 0 1 24 19.25L24 19.75A0.25 0.25 0 0 1 23.75 20L23.25 20A0.25 0.25 0 0 0 23 20.25L23 20.75A0.25 0.25 0 0 0 23.25 21L23.75 21A0.25 0.25 0 0 1 24 21.25L24 22.75A0.25 0.25 0 0 1 23.75 23L23.25 23A0.25 0.25 0 0 1 23 22.75L23 22.25A0.25 0.25 0 0 0 22.75 22L21.25 22A0.25 0.25 0 0 0 21 22.25L21 22.75A0.25 0.25 0 0 1 20.75 23L20.25 23A0.25 0.25 0 0 0 20 23.25L20 23.75A0.25 0.25 0 0 0 20.25 24L20.75 24A0.25 0.25 0 0 0 21 23.75L21 23.25A0.25 0.25 0 0 1 21.25 23L22.75 23A0.25 0.25 0 0 1 23 23.25L23 24.75A0.25 0.25 0 0 0 23.25 25L24.75 25A0.25 0.25 0 0 0 25 24.75L25 24.25A0.25 0.25 0 0 0 24.75 24L24.25 24A0.25 0.25 0 0 1 24 23.75L24 23.25A0.25 0.25 0 0 1 24.25 23L24.75 23A0.25 0.25 0 0 0 25 22.75L25 21.25A0.25 0.25 0 0 0 24.75 21L24.25 21A0.25 0.25 0 0 1 24 20.75L24 20.25A0.25 0.25 0 0 1 24.25 20L24.75 20A0.25 0.25 0 0 0 25 19.75L25 10.25A0.25 0.25 0 0 0 24.75 10L24.25 10A0.25 0.25 0 0 1 24 9.75L24 8.25A0.25 0.25 0 0 0 23.75 8L23.25 8A0.25 0.25 0 0 0 23 8.25L23 9.75A0.25 0.25 0 0 1 22.75 10L20.25 10A0.25 0.25 0 0 1 20 9.75L20 8.25A0.25 0.25 0 0 0 19.75 8L19.25 8A0.25 0.25 0 0 0 19 8.25L19 8.75A0.25 0.25 0 0 1 18.75 9L18.25 9A0.25 0.25 0 0 1 18 8.75L18 8.25A0.25 0.25 0 0 0 17.75 8L17.25 8A0.25 0.25 0 0 1 17 7.75L17 4.25A0.25 0.25 0 0 0 16.75 4L16.25 4A0.25 0.25 0 0 1 16 3.75L16 3.25A0.25 0.25 0 0 1 16.25 3L16.75 3A0.25 0.25 0 0 0 17 2.75L17 2.25A0.25 0.25 0 0 0 16.75 2L16.25 2A0.25 0.25 0 0 1 16 1.75L16 1.25A0.25 0.25 0 0 1 16.25 1L16.75 1A0.25 0.25 0 0 0 17 0.75L17 0.25A0.25 0.25 0 0 0 16.75 0L14.25 0A0.25 0.25 0 0 0 14 0.25L14 0.75A0.25 0.25 0 0 1 13.75 1L11.25 1A0.25 0.25 0 0 0 11 1.25L11 1.75A0.25 0.25 0 0 1 10.75 2L10.25 2A0.25 0.25 0 0 1 10 1.75L10 0.25A0.25 0.25 0 0 0 9.75 0L9.25 0A0.25 0.25 0 0 0 9 0.25ZM12 2.25L12 3.75A0.25 0.25 0 0 0 12.25 4L12.75 4A0.25 0.25 0 0 1 13 4.25L13 4.75A0.25 0.25 0 0 0 13.25 5L15.75 5A0.25 0.25 0 0 0 16 4.75L16 4.25A0.25 0.25 0 0 0 15.75 4L15.25 4A0.25 0.25 0 0 1 15 3.75L15 3.25A0.25 0.25 0 0 1 15.25 3L15.75 3A0.25 0.25 0 0 0 16 2.75L16 2.25A0.25 0.25 0 0 0 15.75 2L15.25 2A0.25 0.25 0 0 0 15 2.25L15 2.75A0.25 0.25 0 0 1 14.75 3L14.25 3A0.25 0.25 0 0 1 14 2.75L14 2.25A0.25 0.25 0 0 0 13.75 2L12.25 2A0.25 0.25 0 0 0 12 2.25ZM10 3.25L10 3.75A0.25 0.25 0 0 0 10.25 4L10.75 4A0.25 0.25 0 0 0 11 3.75L11 3.25A0.25 0.25 0 0 0 10.75 3L10.25 3A0.25 0.25 0 0 0 10 3.25ZM13 3.25L13 3.75A0.25 0.25 0 0 0 13.25 4L13.75 4A0.25 0.25 0 0 0 14 3.75L14 3.25A0.25 0.25 0 0 0 13.75 3L13.25 3A0.25 0.25 0 0 0 13 3.25ZM8 5.25L8 6.75A0.25 0.25 0 0 0 8.25 7L8.75 7A0.25 0.25 0 0 0 9 6.75L9 5.25A0.25 0.25 0 0 0 8.75 5L8.25 5A0.25 0.25 0 0 0 8 5.25ZM13 6.25L13 6.75A0.25 0.25 0 0 0 13.25 7L13.75 7A0.25 0.25 0 0 0 14 6.75L14 6.25A0.25 0.25 0 0 0 13.75 6L13.25 6A0.25 0.25 0 0 0 13 6.25ZM16 8.25L16 10.75A0.25 0.25 0 0 1 15.75 11L15.25 11A0.25 0.25 0 0 0 15 11.25L15 11.75A0.25 0.25 0 0 0 15.25 12L15.75 12A0.25 0.25 0 0 1 16 12.25L16 12.75A0.25 0.25 0 0 0 16.25 13L16.75 13A0.25 0.25 0 0 1 17 13.25L17 15.75A0.25 0.25 0 0 0 17.25 16L18.75 16A0.25 0.25 0 0 0 19 15.75L19 15.25A0.25 0.25 0 0 0 18.75 15L18.25 15A0.25 0.25 0 0 1 18 14.75L18 13.25A0.25 0.25 0 0 0 17.75 13L17.25 13A0.25 0.25 0 0 1 17 12.75L17 12.25A0.25 0.25 0 0 1 17.25 12L18.75 12A0.25 0.25 0 0 0 19 11.75L19 11.25A0.25 0.25 0 0 1 19.25 11L19.75 11A0.25 0.25 0 0 1 20 11.25L20 11.75A0.25 0.25 0 0 0 20.25 12L20.75 12A0.25 0.25 0 0 1 21 12.25L21 12.75A0.25 0.25 0 0 1 20.75 13L19.25 13A0.25 0.25 0 0 0 19 13.25L19 13.75A0.25 0.25 0 0 0 19.25 14L23.75 14A0.25 0.25 0 0 0 24 13.75L24 13.25A0.25 0.25 0 0 0 23.75 13L23.25 13A0.25 0.25 0 0 1 23 12.75L23 11.25A0.25 0.25 0 0 1 23.25 11L23.75 11A0.25 0.25 0 0 0 24 10.75L24 10.25A0.25 0.25 0 0 0 23.75 10L23.25 10A0.25 0.25 0 0 0 23 10.25L23 10.75A0.25 0.25 0 0 1 22.75 11L22.25 11A0.25 0.25 0 0 0 22 11.25L22 11.75A0.25 0.25 0 0 1 21.75 12L21.25 12A0.25 0.25 0 0 1 21 11.75L21 11.25A0.25 0.25 0 0 0 20.75 11L20.25 11A0.25 0.25 0 0 1 20 10.75L20 10.25A0.25 0.25 0 0 0 19.75 10L19.25 10A0.25 0.25 0 0 0 19 10.25L19 10.75A0.25 0.25 0 0 1 18.75 11L17.25 11A0.25 0.25 0 0 1 17 10.75L17 8.25A0.25 0.25 0 0 0 16.75 8L16.25 8A0.25 0.25 0 0 0 16 8.25ZM21 8.25L21 8.75A0.25 0.25 0 0 0 21.25 9L21.75 9A0.25 0.25 0 0 0 22 8.75L22 8.25A0.25 0.25 0 0 0 21.75 8L21.25 8A0.25 0.25 0 0 0 21 8.25ZM6 9.25L6 9.75A0.25 0.25 0 0 1 5.75 10L3.25 10A0.25 0.25 0 0 0 3 10.25L3 12.75A0.25 0.25 0 0 1 2.75 13L2.25 13A0.25 0.25 0 0 0 2 13.25L2 13.75A0.25 0.25 0 0 0 2.25 14L2.75 14A0.25 0.25 0 0 1 3 14.25L3 14.75A0.25 0.25 0 0 0 3.25 15L3.75 15A0.25 0.25 0 0 0 4 14.75L4 14.25A0.25 0.25 0 0 1 4.25 14L4.75 14A0.25 0.25 0 0 1 5 14.25L5 14.75A0.25 0.25 0 0 0 5.25 15L5.75 15A0.25 0.25 0 0 1 6 15.25L6 15.75A0.25 0.25 0 0 0 6.25 16L6.75 16A0.25 0.25 0 0 0 7 15.75L7 15.25A0.25 0.25 0 0 1 7.25 15L8.75 15A0.25 0.25 0 0 1 9 15.25L9 15.75A0.25 0.25 0 0 0 9.25 16L9.75 16A0.25 0.25 0 0 0 10 15.75L10 15.25A0.25 0.25 0 0 0 9.75 15L9.25 15A0.25 0.25 0 0 1 9 14.75L9 9.25A0.25 0.25 0 0 0 8.75 9L8.25 9A0.25 0.25 0 0 0 8 9.25L8 10.75A0.25 0.25 0 0 1 7.75 11L6.25 11A0.25 0.25 0 0 1 6 10.75L6 10.25A0.25 0.25 0 0 1 6.25 10L6.75 10A0.25 0.25 0 0 0 7 9.75L7 9.25A0.25 0.25 0 0 0 6.75 9L6.25 9A0.25 0.25 0 0 0 6 9.25ZM12 11.25L12 12.75A0.25 0.25 0 0 0 12.25 13L12.75 13A0.25 0.25 0 0 1 13 13.25L13 13.75A0.25 0.25 0 0 0 13.25 14L14.75 14A0.25 0.25 0 0 0 15 13.75L15 13.25A0.25 0.25 0 0 0 14.75 13L14.25 13A0.25 0.25 0 0 1 14 12.75L14 11.25A0.25 0.25 0 0 0 13.75 11L12.25 11A0.25 0.25 0 0 0 12 11.25ZM6 12.25L6 12.75A0.25 0.25 0 0 1 5.75 13L5.25 13A0.25 0.25 0 0 0 5 13.25L5 13.75A0.25 0.25 0 0 0 5.25 14L5.75 14A0.25 0.25 0 0 1 6 14.25L6 14.75A0.25 0.25 0 0 0 6.25 15L6.75 15A0.25 0.25 0 0 0 7 14.75L7 14.25A0.25 0.25 0 0 1 7.25 14L7.75 14A0.25 0.25 0 0 0 8 13.75L8 12.25A0.25 0.25 0 0 0 7.75 12L6.25 12A0.25 0.25 0 0 0 6 12.25ZM10 12.25L10 12.75A0.25 0.25 0 0 0 10.25 13L10.75 13A0.25 0.25 0 0 0 11 12.75L11 12.25A0.25 0.25 0 0 0 10.75 12L10.25 12A0.25 0.25 0 0 0 10 12.25ZM3 13.25L3 13.75A0.25 0.25 0 0 0 3.25 14L3.75 14A0.25 0.25 0 0 0 4 13.75L4 13.25A0.25 0.25 0 0 0 3.75 13L3.25 13A0.25 0.25 0 0 0 3 13.25ZM6 13.25L6 13.75A0.25 0.25 0 0 0 6.25 14L6.75 14A0.25 0.25 0 0 0 7 13.75L7 13.25A0.25 0.25 0 0 0 6.75 13L6.25 13A0.25 0.25 0 0 0 6 13.25ZM20 15.25L20 15.75A0.25 0.25 0 0 0 20.25 16L20.75 16A0.25 0.25 0 0 1 21 16.25L21 18.75A0.25 0.25 0 0 0 21.25 19L21.75 19A0.25 0.25 0 0 0 22 18.75L22 18.25A0.25 0.25 0 0 1 22.25 18L23.75 18A0.25 0.25 0 0 0 24 17.75L24 16.25A0.25 0.25 0 0 0 23.75 16L23.25 16A0.25 0.25 0 0 1 23 15.75L23 15.25A0.25 0.25 0 0 0 22.75 15L20.25 15A0.25 0.25 0 0 0 20 15.25ZM15 17.25L15 17.75A0.25 0.25 0 0 0 15.25 18L15.75 18A0.25 0.25 0 0 0 16 17.75L16 17.25A0.25 0.25 0 0 0 15.75 17L15.25 17A0.25 0.25 0 0 0 15 17.25ZM17 17.25L17 19.75A0.25 0.25 0 0 0 17.25 20L19.75 20A0.25 0.25 0 0 0 20 19.75L20 17.25A0.25 0.25 0 0 0 19.75 17L17.25 17A0.25 0.25 0 0 0 17 17.25ZM18 18.25L18 18.75A0.25 0.25 0 0 0 18.25 19L18.75 19A0.25 0.25 0 0 0 19 18.75L19 18.25A0.25 0.25 0 0 0 18.75 18L18.25 18A0.25 0.25 0 0 0 18 18.25ZM10 19.25L10 19.75A0.25 0.25 0 0 0 10.25 20L10.75 20A0.25 0.25 0 0 0 11 19.75L11 19.25A0.25 0.25 0 0 0 10.75 19L10.25 19A0.25 0.25 0 0 0 10 19.25ZM9 21.25L9 21.75A0.25 0.25 0 0 0 9.25 22L9.75 22A0.25 0.25 0 0 0 10 21.75L10 21.25A0.25 0.25 0 0 0 9.75 21L9.25 21A0.25 0.25 0 0 0 9 21.25ZM0 0L7 0L7 7L0 7ZM1 1L1 6L6 6L6 1ZM2 2L5 2L5 5L2 5ZM18 0L25 0L25 7L18 7ZM19 1L19 6L24 6L24 1ZM20 2L23 2L23 5L20 5ZM0 18L7 18L7 25L0 25ZM1 19L1 24L6 24L6 19ZM2 20L5 20L5 23L2 23Z" fill="#a68add"/></g></g></svg>
