<?xml version="1.0" encoding="UTF-8"?>
<svg xmlns="http://www.w3.org/2000/svg" version="1.1" width="100" height="100" viewBox="0 0 100 100"><rect x="0" y="0" width="100" height="100" fill="#ffffff"/><g transform="scale(0.662)"><g transform="translate(63,63)"><path fill-rule="evenodd" d="M10.75 0.5A0.25 0.25 0 0 1 10.5 0.75A0.25 0.25 0 0 1 10.25 0.5A0.25 0.25 0 0 1 10.5 0.25A0.25 0.25 0 0 1 10.75 0.5ZM14.75 0.5A0.25 0.25 0 0 1 14.5 0.75A0.25 0.25 0 0 1 14.25 0.5A0.25 0.25 0 0 1 14.5 0.25A0.25 0.25 0 0 1 14.75 0.5ZM15.75 0.5A0.25 0.25 0 0 1 15.5 0.75A0.25 0.25 0 0 1 15.25 0.5A0.25 0.25 0 0 1 15.5 0.25A0.25 0.25 0 0 1 15.75 0.5ZM8.75 1.5A0.25 0.25 0 0 1 8.5 1.75A0.25 0.25 0 0 1 8.25 1.5A0.25 0.25 0 0 1 8.5 1.25A0.25 0.25 0 0 1 8.75 1.5ZM9.75 1.5A0.25 0.25 0 0 1 9.5 1.75A0.25 0.25 0 0 1 9.25 1.5A0.25 0.25 0 0 1 9.5 1.25A0.25 0.25 0 0 1 9.75 1.5ZM12.75 1.5A0.25 0.25 0 0 1 12.5 1.75A0.25 0.25 0 0 1 12.25 1.5A0.25 0.25 0 0 1 12.5 1.25A0.25 0.25 0 0 1 12.75 1.5ZM15.75 1.5A0.25 0.25 0 0 1 15.5 1.75A0.25 0.25 0 0 1 15.25 1.5A0.25 0.25 0 0 1 15.5 1.25A0.25 0.25 0 0 1 15.75 1.5ZM9.75 2.5A0.25 0.25 0 0 1 9.5 2.75A0.25 0.25 0 0 1 9.25 2.5A0.25 0.25 0 0 1 9.5 2.25A0.25 0.25 0 0 1 9.75 2.5ZM12.75 2.5A0.25 0.25 0 0 1 12.5 2.75A0.25 0.25 0 0 1 12.25 2.5A0.25 0.25 0 0 1 12.5 2.25A0.25 0.25 0 0 1 12.75 2.5ZM16.75 2.5A0.25 0.25 0 0 1 16.5 2.75A0.25 0.25 0 0 1 16.25 2.5A0.25 0.25 0 0 1 16.5 2.25A0.25 0.25 0 0 1 16.75 2.5ZM10.75 3.5A0.25 0.25 0 0 1 10.5 3.75A0.25 0.25 0 0 1 10.25 3.5A0.25 0.25 0 0 1 10.5 3.25A0.25 0.25 0 0 1 10.75 3.5ZM11.75 3.5A0.25 0.25 0 0 1 11.5 3.75A0.25 0.25 0 0 1 11.25 3.5A0.25 0.25 0 0 1 11.5 3.25A0.25 0.25 0 0 1 11.75 3.5ZM12.75 3.5A0.25 0.25 0 0 1 12.5 3.75A0.25 0.25 0 0 1 12.25 3.5A0.25 0.25 0 0 1 12.5 3.25A0.25 0.25 0 0 1 12.75 3.5ZM14.75 3.5A0.25 0.25 0 0 1 14.5 3.75A0.25 0.25 0 0 1 14.25 3.5A0.25 0.25 0 0 1 14.5 3.25A0.25 0.25 0 0 1 14.75 3.5ZM15.75 3.5A0.25 0.25 0 0 1 15.5 3.75A0.25 0.25 0 0 1 15.25 3.5A0.25 0.25 0 0 1 15.5 3.25A0.25 0.25 0 0 1 15.75 3.5ZM8.75 4.5A0.25 0.25 0 0 1 8.5 4.75A0.25 0.25 0 0 1 8.25 4.5A0.25 0.25 0 0 1 8.5 4.25A0.25 0.25 0 0 1 8.75 4.5ZM9.75 4.5A0.25 0.25 0 0 1 9.5 4.75A0.25 0.25 0 0 1 9.25 4.5A0.25 0.25 0 0 1 9.5 4.25A0.25 0.25 0 0 1 9.75 4.5ZM13.75 4.5A0.25 0.25 0 0 1 13.5 4.75A0.25 0.25 0 0 1 13.25 4.5A0.25 0.25 0 0 1 13.5 4.25A0.25 0.25 0 0 1 13.75 4.5ZM14.75 4.5A0.25 0.25 0 0 1 14.5 4.75A0.25 0.25 0 0 1 14.25 4.5A0.25 0.25 0 0 1 14.5 4.25A0.25 0.25 0 0 1 14.75 4.5ZM15.75 4.5A0.25 0.25 0 0 1 15.5 4.75A0.25 0.25 0 0 1 15.25 4.5A0.25 0.25 0 0 1 15.5 4.25A0.25 0.25 0 0 1 15.75 4.5ZM16.75 4.5A0.25 0.25 0 0 1 16.5 4.75A0.25 0.25 0 0 1 16.25 4.5A0.25 0.25 0 0 1 16.5 4.25A0.25 0.25 0 0 1 16.75 4.5ZM9.75 5.5A0.25 0.25 0 0 1 9.5 5.75A0.25 0.25 0 0 1 9.25 5.5A0.25 0.25 0 0 1 9.5 5.25A0.25 0.25 0 0 1 9.75 5.5ZM10.75 5.5A0.25 0.25 0 0 1 10.5 5.75A0.25 0.25 0 0 1 10.25 5.5A0.25 0.25 0 0 1 10.5 5.25A0.25 0.25 0 0 1 10.75 5.5ZM11.75 5.5A0.25 0.25 0 0 1 11.5 5.75A0.25 0.25 0 0 1 11.25 5.5A0.25 0.25 0 0 1 11.5 5.25A0.25 0.25 0 0 1 11.75 5.5ZM14.75 5.5A0.25 0.25 0 0 1 14.5 5.75A0.25 0.25 0 0 1 14.25 5.5A0.25 0.25 0 0 1 14.5 5.25A0.25 0.25 0 0 1 14.75 5.5ZM15.75 5.5A0.25 0.25 0 0 1 15.5 5.75A0.25 0.25 0 0 1 15.25 5.5A0.25 0.25 0 0 1 15.5 5.25A0.25 0.25 0 0 1 15.75 5.5ZM8.75 6.5A0.25 0.25 0 0 1 8.5 6.75A0.25 0.25 0 0 1 8.25 6.5A0.25 0.25 0 0 1 8.5 6.25A0.25 0.25 0 0 1 8.75 6.5ZM10.75 6.5A0.25 0.25 0 0 1 10.5 6.75A0.25 0.25 0 0 1 10.25 6.5A0.25 0.25 0 0 1 10.5 6.25A0.25 0.25 0 0 1 10.75 6.5ZM12.75 6.5A0.25 0.25 0 0 1 12.5 6.75A0.25 0.25 0 0 1 12.25 6.5A0.25 0.25 0 0 1 12.5 6.25A0.25 0.25 0 0 1 12.75 6.5ZM14.75 6.5A0.25 0.25 0 0 1 14.5 6.75A0.25 0.25 0 0 1 14.25 6.5A0.25 0.25 0 0 1 14.5 6.25A0.25 0.25 0 0 1 14.75 6.5ZM16.75 6.5A0.25 0.25 0 0 1 16.5 6.75A0.25 0.25 0 0 1 16.25 6.5A0.25 0.25 0 0 1 16.5 6.25A0.25 0.25 0 0 1 16.75 6.5ZM10.75 7.5A0.25 0.25 0 0 1 10.5 7.75A0.25 0.25 0 0 1 10.25 7.5A0.25 0.25 0 0 1 10.5 7.25A0.25 0.25 0 0 1 10.75 7.5ZM13.75 7.5A0.25 0.25 0 0 1 13.5 7.75A0.25 0.25 0 0 1 13.25 7.5A0.25 0.25 0 0 1 13.5 7.25A0.25 0.25 0 0 1 13.75 7.5ZM14.75 7.5A0.25 0.25 0 0 1 14.5 7.75A0.25 0.25 0 0 1 14.25 7.5A0.25 0.25 0 0 1 14.5 7.25A0.25 0.25 0 0 1 14.75 7.5ZM15.75 7.5A0.25 0.25 0 0 1 15.5 7.75A0.25 0.25 0 0 1 15.25 7.5A0.25 0.25 0 0 1 15.5 7.25A0.25 0.25 0 0 1 15.75 7.5ZM16.75 7.5A0.25 0.25 0 0 1 16.5 7.75A0.25 0.25 0 0 1 16.25 7.5A0.25 0.25 0 0 1 16.5 7.25A0.25 0.25 0 0 1 16.75 7.5ZM0.75 8.5A0.25 0.25 0 0 1 0.5 8.75A0.25 0.25 0 0 1 0.25 8.5A0.25 0.25 0 0 1 0.5 8.25A0.25 0.25 0 0 1 0.75 8.5ZM2.75 8.5A0.25 0.25 0 0 1 2.5 8.75A0.25 0.25 0 0 1 2.25 8.5A0.25 0.25 0 0 1 2.5 8.25A0.25 0.25 0 0 1 2.75 8.5ZM4.75 8.5A0.25 0.25 0 0 1 4.5 8.75A0.25 0.25 0 0 1 4.25 8.5A0.25 0.25 0 0 1 4.5 8.25A0.25 0.25 0 0 1 4.75 8.5ZM6.75 8.5A0.25 0.25 0 0 1 6.5 8.75A0.25 0.25 0 0 1 6.25 8.5A0.25 0.25 0 0 1 6.5 8.25A0.25 0.25 0 0 1 6.75 8.5ZM10.75 8.5A0.25 0.25 0 0 1 10.5 8.75A0.25 0.25 0 0 1 10.25 8.5A0.25 0.25 0 0 1 10.5 8.25A0.25 0.25 0 0 1 10.75 8.5ZM11.75 8.5A0.25 0.25 0 0 1 11.5 8.75A0.25 0.25 0 0 1 11.25 8.5A0.25 0.25 0 0 1 11.5 8.25A0.25 0.25 0 0 1 11.75 8.5ZM12.75 8.5A0.25 0.25 0 0 1 12.5 8.75A0.25 0.25 0 0 1 12.25 8.5A0.25 0.25 0 0 1 12.5 8.25A0.25 0.25 0 0 1 12.75 8.5ZM14.75 8.5A0.25 0.25 0 0 1 14.5 8.75A0.25 0.25 0 0 1 14.25 8.5A0.25 0.25 0 0 1 14.5 8.25A0.25 0.25 0 0 1 14.75 8.5ZM20.75 8.5A0.25 0.25 0 0 1 20.5 8.75A0.25 0.25 0 0 1 20.25 8.5A0.25 0.25 0 0 1 20.5 8.25A0.25 0.25 0 0 1 20.75 8.5ZM23.75 8.5A0.25 0.25 0 0 1 23.5 8.75A0.25 0.25 0 0 1 23.25 8.5A0.25 0.25 0 0 1 23.5 8.25A0.25 0.25 0 0 1 23.75 8.5ZM1.75 9.5A0.25 0.25 0 0 1 1.5 9.75A0.25 0.25 0 0 1 1.25 9.5A0.25 0.25 0 0 1 1.5 9.25A0.25 0.25 0 0 1 1.75 9.5ZM3.75 9.5A0.25 0.25 0 0 1 3.5 9.75A0.25 0.25 0 0 1 3.25 9.5A0.25 0.25 0 0 1 3.5 9.25A0.25 0.25 0 0 1 3.75 9.5ZM8.75 9.5A0.25 0.25 0 0 1 8.5 9.75A0.25 0.25 0 0 1 8.25 9.5A0.25 0.25 0 0 1 8.5 9.25A0.25 0.25 0 0 1 8.75 9.5ZM9.75 9.5A0.25 0.25 0 0 1 9.5 9.75A0.25 0.25 0 0 1 9.25 9.5A0.25 0.25 0 0 1 9.5 9.25A0.25 0.25 0 0 1 9.75 9.5ZM11.75 9.5A0.25 0.25 0 0 1 11.5 9.75A0.25 0.25 0 0 1 11.25 9.5A0.25 0.25 0 0 1 11.5 9.25A0.25 0.25 0 0 1 11.75 9.5ZM16.75 9.5A0.25 0.25 0 0 1 16.5 9.75A0.25 0.25 0 0 1 16.25 9.5A0.25 0.25 0 0 1 16.5 9.25A0.25 0.25 0 0 1 16.75 9.5ZM18.75 9.5A0.25 0.25 0 0 1 18.5 9.75A0.25 0.25 0 0 1 18.25 9.5A0.25 0.25 0 0 1 18.5 9.25A0.25 0.25 0 0 1 18.75 9.5ZM22.75 9.5A0.25 0.25 0 0 1 22.5 9.75A0.25 0.25 0 0 1 22.25 9.5A0.25 0.25 0 0 1 22.5 9.25A0.25 0.25 0 0 1 22.75 9.5ZM23.75 9.5A0.25 0.25 0 0 1 23.5 9.75A0.25 0.25 0 0 1 23.25 9.5A0.25 0.25 0 0 1 23.5 9.25A0.25 0.25 0 0 1 23.75 9.5ZM24.75 9.5A0.25 0.25 0 0 1 24.5 9.75A0.25 0.25 0 0 1 24.25 9.5A0.25 0.25 0 0 1 24.5 9.25A0.25 0.25 0 0 1 24.75 9.5ZM2.75 10.5A0.25 0.25 0 0 1 2.5 10.75A0.25 0.25 0 0 1 2.25 10.5A0.25 0.25 0 0 1 2.5 10.25A0.25 0.25 0 0 1 2.75 10.5ZM4.75 10.5A0.25 0.25 0 0 1 4.5 10.75A0.25 0.25 0 0 1 4.25 10.5A0.25 0.25 0 0 1 4.5 10.25A0.25 0.25 0 0 1 4.75 10.5ZM5.75 10.5A0.25 0.25 0 0 1 5.5 10.75A0.25 0.25 0 0 1 5.25 10.5A0.25 0.25 0 0 1 5.5 10.25A0.25 0.25 0 0 1 5.75 10.5ZM6.75 10.5A0.25 0.25 0 0 1 6.5 10.75A0.25 0.25 0 0 1 6.25 10.5A0.25 0.25 0 0 1 6.5 10.25A0.25 0.25 0 0 1 6.75 10.5ZM10.75 10.5A0.25 0.25 0 0 1 10.5 10.75A0.25 0.25 0 0 1 10.25 10.5A0.25 0.25 0 0 1 10.5 10.25A0.25 0.25 0 0 1 10.75 10.5ZM11.75 10.5A0.25 0.25 0 0 1 11.5 10.75A0.25 0.25 0 0 1 11.25 10.5A0.25 0.25 0 0 1 11.5 10.25A0.25 0.25 0 0 1 11.75 10.5ZM12.75 10.5A0.25 0.25 0 0 1 12.5 10.75A0.25 0.25 0 0 1 12.25 10.5A0.25 0.25 0 0 1 12.5 10.25A0.25 0.25 0 0 1 12.75 10.5ZM13.75 10.5A0.25 0.25 0 0 1 13.5 10.75A0.25 0.25 0 0 1 13.25 10.5A0.25 0.25 0 0 1 13.5 10.25A0.25 0.25 0 0 1 13.75 10.5ZM17.75 10.5A0.25 0.25 0 0 1 17.5 10.75A0.25 0.25 0 0 1 17.25 10.5A0.25 0.25 0 0 1 17.5 10.25A0.25 0.25 0 0 1 17.75 10.5ZM18.75 10.5A0.25 0.25 0 0 1 18.5 10.75A0.25 0.25 0 0 1 18.25 10.5A0.25 0.25 0 0 1 18.5 10.25A0.25 0.25 0 0 1 18.75 10.5ZM19.75 10.5A0.25 0.25 0 0 1 19.5 10.75A0.25 0.25 0 0 1 19.25 10.5A0.25 0.25 0 0 1 19.5 10.25A0.25 0.25 0 0 1 19.75 10.5ZM20.75 10.5A0.25 0.25 0 0 1 20.5 10.75A0.25 0.25 0 0 1 20.25 10.5A0.25 0.25 0 0 1 20.5 10.25A0.25 0.25 0 0 1 20.75 10.5ZM21.75 10.5A0.25 0.25 0 0 1 21.5 10.75A0.25 0.25 0 0 1 21.25 10.5A0.25 0.25 0 0 1 21.5 10.25A0.25 0.25 0 0 1 21.75 10.5ZM22.75 10.5A0.25 0.25 0 0 1 22.5 10.75A0.25 0.25 0 0 1 22.25 10.5A0.25 0.25 0 0 1 22.5 10.25A0.25 0.25 0 0 1 22.75 10.5ZM23.75 10.5A0.25 0.25 0 0 1 23.5 10.75A0.25 0.25 0 0 1 23.25 10.5A0.25 0.25 0 0 1 23.5 10.25A0.25 0.25 0 0 1 23.75 10.5ZM24.75 10.5A0.25 0.25 0 0 1 24.5 10.75A0.25 0.25 0 0 1 24.25 10.5A0.25 0.25 0 0 1 24.5 10.25A0.25 0.25 0 0 1 24.75 10.5ZM0.75 11.5A0.25 0.25 0 0 1 0.5 11.75A0.25 0.25 0 0 1 0.25 11.5A0.25 0.25 0 0 1 0.5 11.25A0.25 0.25 0 0 1 0.75 11.5ZM2.75 11.5A0.25 0.25 0 0 1 2.5 11.75A0.25 0.25 0 0 1 2.25 11.5A0.25 0.25 0 0 1 2.5 11.25A0.25 0.25 0 0 1 2.75 11.5ZM3.75 11.5A0.25 0.25 0 0 1 3.5 11.75A0.25 0.25 0 0 1 3.25 11.5A0.25 0.25 0 0 1 3.5 11.25A0.25 0.25 0 0 1 3.75 11.5ZM4.75 11.5A0.25 0.25 0 0 1 4.5 11.75A0.25 0.25 0 0 1 4.25 11.5A0.25 0.25 0 0 1 4.5 11.25A0.25 0.25 0 0 1 4.75 11.5ZM7.75 11.5A0.25 0.25 0 0 1 7.5 11.75A0.25 0.25 0 0 1 7.25 11.5A0.25 0.25 0 0 1 7.5 11.25A0.25 0.25 0 0 1 7.75 11.5ZM10.75 11.5A0.25 0.25 0 0 1 10.5 11.75A0.25 0.25 0 0 1 10.25 11.5A0.25 0.25 0 0 1 10.5 11.25A0.25 0.25 0 0 1 10.75 11.5ZM15.75 11.5A0.25 0.25 0 0 1 15.5 11.75A0.25 0.25 0 0 1 15.25 11.5A0.25 0.25 0 0 1 15.5 11.25A0.25 0.25 0 0 1 15.75 11.5ZM16.75 11.5A0.25 0.25 0 0 1 16.5 11.75A0.25 0.25 0 0 1 16.25 11.5A0.25 0.25 0 0 1 16.5 11.25A0.25 0.25 0 0 1 16.75 11.5ZM19.75 11.5A0.25 0.25 0 0 1 19.5 11.75A0.25 0.25 0 0 1 19.25 11.5A0.25 0.25 0 0 1 19.5 11.25A0.25 0.25 0 0 1 19.75 11.5ZM1.75 12.5A0.25 0.25 0 0 1 1.5 12.75A0.25 0.25 0 0 1 1.25 12.5A0.25 0.25 0 0 1 1.5 12.25A0.25 0.25 0 0 1 1.75 12.5ZM5.75 12.5A0.25 0.25 0 0 1 5.5 12.75A0.25 0.25 0 0 1 5.25 12.5A0.25 0.25 0 0 1 5.5 12.25A0.25 0.25 0 0 1 5.75 12.5ZM6.75 12.5A0.25 0.25 0 0 1 6.5 12.75A0.25 0.25 0 0 1 6.25 12.5A0.25 0.25 0 0 1 6.5 12.25A0.25 0.25 0 0 1 6.75 12.5ZM8.75 12.5A0.25 0.25 0 0 1 8.5 12.75A0.25 0.25 0 0 1 8.25 12.5A0.25 0.25 0 0 1 8.5 12.25A0.25 0.25 0 0 1 8.75 12.5ZM9.75 12.5A0.25 0.25 0 0 1 9.5 12.75A0.25 0.25 0 0 1 9.25 12.5A0.25 0.25 0 0 1 9.5 12.25A0.25 0.25 0 0 1 9.75 12.5ZM11.75 12.5A0.25 0.25 0 0 1 11.5 12.75A0.25 0.25 0 0 1 11.25 12.5A0.25 0.25 0 0 1 11.5 12.25A0.25 0.25 0 0 1 11.75 12.5ZM12.75 12.5A0.25 0.25 0 0 1 12.5 12.75A0.25 0.25 0 0 1 12.25 12.5A0.25 0.25 0 0 1 12.5 12.25A0.25 0.25 0 0 1 12.75 12.5ZM16.75 12.5A0.25 0.25 0 0 1 16.5 12.75A0.25 0.25 0 0 1 16.25 12.5A0.25 0.25 0 0 1 16.5 12.25A0.25 0.25 0 0 1 16.75 12.5ZM17.75 12.5A0.25 0.25 0 0 1 17.5 12.75A0.25 0.25 0 0 1 17.25 12.5A0.25 0.25 0 0 1 17.5 12.25A0.25 0.25 0 0 1 17.75 12.5ZM18.75 12.5A0.25 0.25 0 0 1 18.5 12.75A0.25 0.25 0 0 1 18.25 12.5A0.25 0.25 0 0 1 18.5 12.25A0.25 0.25 0 0 1 18.75 12.5ZM19.75 12.5A0.25 0.25 0 0 1 19.5 12.75A0.25 0.25 0 0 1 19.25 12.5A0.25 0.25 0 0 1 19.5 12.25A0.25 0.25 0 0 1 19.75 12.5ZM21.75 12.5A0.25 0.25 0 0 1 21.5 12.75A0.25 0.25 0 0 1 21.25 12.5A0.25 0.25 0 0 1 21.5 12.25A0.25 0.25 0 0 1 21.75 12.5ZM23.75 12.5A0.25 0.25 0 0 1 23.5 12.75A0.25 0.25 0 0 1 23.25 12.5A0.25 0.25 0 0 1 23.5 12.25A0.25 0.25 0 0 1 23.75 12.5ZM24.75 12.5A0.25 0.25 0 0 1 24.5 12.75A0.25 0.25 0 0 1 24.25 12.5A0.25 0.25 0 0 1 24.5 12.25A0.25 0.25 0 0 1 24.75 12.5ZM1.75 13.5A0.25 0.25 0 0 1 1.5 13.75A0.25 0.25 0 0 1 1.25 13.5A0.25 0.25 0 0 1 1.5 13.25A0.25 0.25 0 0 1 1.75 13.5ZM2.75 13.5A0.25 0.25 0 0 1 2.5 13.75A0.25 0.25 0 0 1 2.25 13.5A0.25 0.25 0 0 1 2.5 13.25A0.25 0.25 0 0 1 2.75 13.5ZM4.75 13.5A0.25 0.25 0 0 1 4.5 13.75A0.25 0.25 0 0 1 4.25 13.5A0.25 0.25 0 0 1 4.5 13.25A0.25 0.25 0 0 1 4.75 13.5ZM5.75 13.5A0.25 0.25 0 0 1 5.5 13.75A0.25 0.25 0 0 1 5.25 13.5A0.25 0.25 0 0 1 5.5 13.25A0.25 0.25 0 0 1 5.75 13.5ZM7.75 13.5A0.25 0.25 0 0 1 7.5 13.75A0.25 0.25 0 0 1 7.25 13.5A0.25 0.25 0 0 1 7.5 13.25A0.25 0.25 0 0 1 7.75 13.5ZM9.75 13.5A0.25 0.25 0 0 1 9.5 13.75A0.25 0.25 0 0 1 9.25 13.5A0.25 0.25 0 0 1 9.5 13.25A0.25 0.25 0 0 1 9.75 13.5ZM11.75 13.5A0.25 0.25 0 0 1 11.5 13.75A0.25 0.25 0 0 1 11.25 13.5A0.25 0.25 0 0 1 11.5 13.25A0.25 0.25 0 0 1 11.75 13.5ZM12.75 13.5A0.25 0.25 0 0 1 12.5 13.75A0.25 0.25 0 0 1 12.25 13.5A0.25 0.25 0 0 1 12.5 13.25A0.25 0.25 0 0 1 12.75 13.5ZM13.75 13.5A0.25 0.25 0 0 1 13.5 13.75A0.25 0.25 0 0 1 13.25 13.5A0.25 0.25 0 0 1 13.5 13.25A0.25 0.25 0 0 1 13.75 13.5ZM16.75 13.5A0.25 0.25 0 0 1 16.5 13.75A0.25 0.25 0 0 1 16.25 13.5A0.25 0.25 0 0 1 16.5 13.25A0.25 0.25 0 0 1 16.75 13.5ZM17.75 13.5A0.25 0.25 0 0 1 17.5 13.75A0.25 0.25 0 0 1 17.25 13.5A0.25 0.25 0 0 1 17.5 13.25A0.25 0.25 0 0 1 17.75 13.5ZM18.75 13.5A0.25 0.25 0 0 1 18.5 13.75A0.25 0.25 0 0 1 18.25 13.5A0.25 0.25 0 0 1 18.5 13.25A0.25 0.25 0 0 1 18.75 13.5ZM21.75 13.5A0.25 0.25 0 0 1 21.5 13.75A0.25 0.25 0 0 1 21.25 13.5A0.25 0.25 0 0 1 21.5 13.25A0.25 0.25 0 0 1 21.75 13.5ZM23.75 13.5A0.25 0.25 0 0 1 23.5 13.75A0.25 0.25 0 0 1 23.25 13.5A0.25 0.25 0 0 1 23.5 13.25A0.25 0.25 0 0 1 23.75 13.5ZM24.75 13.5A0.25 0.25 0 0 1 24.5 13.75A0.25 0.25 0 0 1 24.25 13.5A0.25 0.25 0 0 1 24.5 13.25A0.25 0.25 0 0 1 24.75 13.5ZM0.75 14.5A0.25 0.25 0 0 1 0.5 14.75A0.25 0.25 0 0 1 0.25 14.5A0.25 0.25 0 0 1 0.5 14.25A0.25 0.25 0 0 1 0.75 14.5ZM2.75 14.5A0.25 0.25 0 0 1 2.5 14.75A0.25 0.25 0 0 1 2.25 14.5A0.25 0.25 0 0 1 2.5 14.25A0.25 0.25 0 0 1 2.75 14.5ZM3.75 14.5A0.25 0.25 0 0 1 3.5 14.75A0.25 0.25 0 0 1 3.25 14.5A0.25 0.25 0 0 1 3.5 14.25A0.25 0.25 0 0 1 3.75 14.5ZM4.75 14.5A0.25 0.25 0 0 1 4.5 14.75A0.25 0.25 0 0 1 4.25 14.5A0.25 0.25 0 0 1 4.5 14.25A0.25 0.25 0 0 1 4.75 14.5ZM6.75 14.5A0.25 0.25 0 0 1 6.5 14.75A0.25 0.25 0 0 1 6.25 14.5A0.25 0.25 0 0 1 6.5 14.25A0.25 0.25 0 0 1 6.75 14.5ZM10.75 14.5A0.25 0.25 0 0 1 10.5 14.75A0.25 0.25 0 0 1 10.25 14.5A0.25 0.25 0 0 1 10.5 14.25A0.25 0.25 0 0 1 10.75 14.5ZM11.75 14.5A0.25 0.25 0 0 1 11.5 14.75A0.25 0.25 0 0 1 11.25 14.5A0.25 0.25 0 0 1 11.5 14.25A0.25 0.25 0 0 1 11.75 14.5ZM12.75 14.5A0.25 0.25 0 0 1 12.5 14.75A0.25 0.25 0 0 1 12.25 14.5A0.25 0.25 0 0 1 12.5 14.25A0.25 0.25 0 0 1 12.75 14.5ZM14.75 14.5A0.25 0.25 0 0 1 14.5 14.75A0.25 0.25 0 0 1 14.25 14.5A0.25 0.25 0 0 1 14.5 14.25A0.25 0.25 0 0 1 14.75 14.5ZM20.75 14.5A0.25 0.25 0 0 1 20.5 14.75A0.25 0.25 0 0 1 20.25 14.5A0.25 0.25 0 0 1 20.5 14.25A0.25 0.25 0 0 1 20.75 14.5ZM22.75 14.5A0.25 0.25 0 0 1 22.5 14.75A0.25 0.25 0 0 1 22.25 14.5A0.25 0.25 0 0 1 22.5 14.25A0.25 0.25 0 0 1 22.75 14.5ZM23.75 14.5A0.25 0.25 0 0 1 23.5 14.75A0.25 0.25 0 0 1 23.25 14.5A0.25 0.25 0 0 1 23.5 14.25A0.25 0.25 0 0 1 23.75 14.5ZM24.75 14.5A0.25 0.25 0 0 1 24.5 14.75A0.25 0.25 0 0 1 24.25 14.5A0.25 0.25 0 0 1 24.5 14.25A0.25 0.25 0 0 1 24.75 14.5ZM1.75 15.5A0.25 0.25 0 0 1 1.5 15.75A0.25 0.25 0 0 1 1.25 15.5A0.25 0.25 0 0 1 1.5 15.25A0.25 0.25 0 0 1 1.75 15.5ZM2.75 15.5A0.25 0.25 0 0 1 2.5 15.75A0.25 0.25 0 0 1 2.25 15.5A0.25 0.25 0 0 1 2.5 15.25A0.25 0.25 0 0 1 2.75 15.5ZM3.75 15.5A0.25 0.25 0 0 1 3.5 15.75A0.25 0.25 0 0 1 3.25 15.5A0.25 0.25 0 0 1 3.5 15.25A0.25 0.25 0 0 1 3.75 15.5ZM4.75 15.5A0.25 0.25 0 0 1 4.5 15.75A0.25 0.25 0 0 1 4.25 15.5A0.25 0.25 0 0 1 4.5 15.25A0.25 0.25 0 0 1 4.75 15.5ZM7.75 15.5A0.25 0.25 0 0 1 7.5 15.75A0.25 0.25 0 0 1 7.25 15.5A0.25 0.25 0 0 1 7.5 15.25A0.25 0.25 0 0 1 7.75 15.5ZM9.75 15.5A0.25 0.25 0 0 1 9.5 15.75A0.25 0.25 0 0 1 9.25 15.5A0.25 0.25 0 0 1 9.5 15.25A0.25 0.25 0 0 1 9.75 15.5ZM12.75 15.5A0.25 0.25 0 0 1 12.5 15.75A0.25 0.25 0 0 1 12.25 15.5A0.25 0.25 0 0 1 12.5 15.25A0.25 0.25 0 0 1 12.75 15.5ZM13.75 15.5A0.25 0.25 0 0 1 13.5 15.75A0.25 0.25 0 0 1 13.25 15.5A0.25 0.25 0 0 1 13.5 15.25A0.25 0.25 0 0 1 13.75 15.5ZM14.75 15.5A0.25 0.25 0 0 1 14.5 15.75A0.25 0.25 0 0 1 14.25 15.5A0.25 0.25 0 0 1 14.5 15.25A0.25 0.25 0 0 1 14.75 15.5ZM15.75 15.5A0.25 0.25 0 0 1 15.5 15.75A0.25 0.25 0 0 1 15.25 15.5A0.25 0.25 0 0 1 15.5 15.25A0.25 0.25 0 0 1 15.75 15.5ZM16.75 15.5A0.25 0.25 0 0 1 16.5 15.75A0.25 0.25 0 0 1 16.25 15.5A0.25 0.25 0 0 1 16.5 15.25A0.25 0.25 0 0 1 16.75 15.5ZM19.75 15.5A0.25 0.25 0 0 1 19.5 15.75A0.25 0.25 0 0 1 19.25 15.5A0.25 0.25 0 0 1 19.5 15.25A0.25 0.25 0 0 1 19.75 15.5ZM23.75 15.5A0.25 0.25 0 0 1 23.5 15.75A0.25 0.25 0 0 1 23.25 15.5A0.25 0.25 0 0 1 23.5 15.25A0.25 0.25 0 0 1 23.75 15.5ZM0.75 16.5A0.25 0.25 0 0 1 0.5 16.75A0.25 0.25 0 0 1 0.25 16.5A0.25 0.25 0 0 1 0.5 16.25A0.25 0.25 0 0 1 0.75 16.5ZM3.75 16.5A0.25 0.25 0 0 1 3.5 16.75A0.25 0.25 0 0 1 3.25 16.5A0.25 0.25 0 0 1 3.5 16.25A0.25 0.25 0 0 1 3.75 16.5ZM5.75 16.5A0.25 0.25 0 0 1 5.5 16.75A0.25 0.25 0 0 1 5.25 16.5A0.25 0.25 0 0 1 5.5 16.25A0.25 0.25 0 0 1 5.75 16.5ZM6.75 16.5A0.25 0.25 0 0 1 6.5 16.75A0.25 0.25 0 0 1 6.25 16.5A0.25 0.25 0 0 1 6.5 16.25A0.25 0.25 0 0 1 6.75 16.5ZM7.75 16.5A0.25 0.25 0 0 1 7.5 16.75A0.25 0.25 0 0 1 7.25 16.5A0.25 0.25 0 0 1 7.5 16.25A0.25 0.25 0 0 1 7.75 16.5ZM9.75 16.5A0.25 0.25 0 0 1 9.5 16.75A0.25 0.25 0 0 1 9.25 16.5A0.25 0.25 0 0 1 9.5 16.25A0.25 0.25 0 0 1 9.75 16.5ZM11.75 16.5A0.25 0.25 0 0 1 11.5 16.75A0.25 0.25 0 0 1 11.25 16.5A0.25 0.25 0 0 1 11.5 16.25A0.25 0.25 0 0 1 11.75 16.5ZM14.75 16.5A0.25 0.25 0 0 1 14.5 16.75A0.25 0.25 0 0 1 14.25 16.5A0.25 0.25 0 0 1 14.5 16.25A0.25 0.25 0 0 1 14.75 16.5ZM15.75 16.5A0.25 0.25 0 0 1 15.5 16.75A0.25 0.25 0 0 1 15.25 16.5A0.25 0.25 0 0 1 15.5 16.25A0.25 0.25 0 0 1 15.75 16.5ZM16.75 16.5A0.25 0.25 0 0 1 16.5 16.75A0.25 0.25 0 0 1 16.25 16.5A0.25 0.25 0 0 1 16.5 16.25A0.25 0.25 0 0 1 16.75 16.5ZM17.75 16.5A0.25 0.25 0 0 1 17.5 16.75A0.25 0.25 0 0 1 17.25 16.5A0.25 0.25 0 0 1 17.5 16.25A0.25 0.25 0 0 1 17.75 16.5ZM18.75 16.5A0.25 0.25 0 0 1 18.5 16.75A0.25 0.25 0 0 1 18.25 16.5A0.25 0.25 0 0 1 18.5 16.25A0.25 0.25 0 0 1 18.75 16.5ZM19.75 16.5A0.25 0.25 0 0 1 19.5 16.75A0.25 0.25 0 0 1 19.25 16.5A0.25 0.25 0 0 1 19.5 16.25A0.25 0.25 0 0 1 19.75 16.5ZM20.75 16.5A0.25 0.25 0 0 1 20.5 16.75A0.25 0.25 0 0 1 20.25 16.5A0.25 0.25 0 0 1 20.5 16.25A0.25 0.25 0 0 1 20.75 16.5ZM23.75 16.5A0.25 0.25 0 0 1 23.5 16.75A0.25 0.25 0 0 1 23.25 16.5A0.25 0.25 0 0 1 23.5 16.25A0.25 0.25 0 0 1 23.75 16.5ZM24.75 16.5A0.25 0.25 0 0 1 24.5 16.75A0.25 0.25 0 0 1 24.25 16.5A0.25 0.25 0 0 1 24.5 16.25A0.25 0.25 0 0 1 24.75 16.5ZM8.75 17.5A0.25 0.25 0 0 1 8.5 17.75A0.25 0.25 0 0 1 8.25 17.5A0.25 0.25 0 0 1 8.5 17.25A0.25 0.25 0 0 1 8.75 17.5ZM9.75 17.5A0.25 0.25 0 0 1 9.5 17.75A0.25 0.25 0 0 1 9.25 17.5A0.25 0.25 0 0 1 9.5 17.25A0.25 0.25 0 0 1 9.75 17.5ZM10.75 17.5A0.25 0.25 0 0 1 10.5 17.75A0.25 0.25 0 0 1 10.25 17.5A0.25 0.25 0 0 1 10.5 17.25A0.25 0.25 0 0 1 10.75 17.5ZM11.75 17.5A0.25 0.25 0 0 1 11.5 17.75A0.25 0.25 0 0 1 11.25 17.5A0.25 0.25 0 0 1 11.5 17.25A0.25 0.25 0 0 1 11.75 17.5ZM14.75 17.5A0.25 0.25 0 0 1 14.5 17.75A0.25 0.25 0 0 1 14.25 17.5A0.25 0.25 0 0 1 14.5 17.25A0.25 0.25 0 0 1 14.75 17.5ZM15.75 17.5A0.25 0.25 0 0 1 15.5 17.75A0.25 0.25 0 0 1 15.25 17.5A0.25 0.25 0 0 1 15.5 17.25A0.25 0.25 0 0 1 15.75 17.5ZM16.75 17.5A0.25 0.25 0 0 1 16.5 17.75A0.25 0.25 0 0 1 16.25 17.5A0.25 0.25 0 0 1 16.5 17.25A0.25 0.25 0 0 1 16.75 17.5ZM20.75 17.5A0.25 0.25 0 0 1 20.5 17.75A0.25 0.25 0 0 1 20.25 17.5A0.25 0.25 0 0 1 20.5 17.25A0.25 0.25 0 0 1 20.75 17.5ZM22.75 17.5A0.25 0.25 0 0 1 22.5 17.75A0.25 0.25 0 0 1 22.25 17.5A0.25 0.25 0 0 1 22.5 17.25A0.25 0.25 0 0 1 22.75 17.5ZM9.75 18.5A0.25 0.25 0 0 1 9.5 18.75A0.25 0.25 0 0 1 9.25 18.5A0.25 0.25 0 0 1 9.5 18.25A0.25 0.25 0 0 1 9.75 18.5ZM10.75 18.5A0.25 0.25 0 0 1 10.5 18.75A0.25 0.25 0 0 1 10.25 18.5A0.25 0.25 0 0 1 10.5 18.25A0.25 0.25 0 0 1 10.75 18.5ZM13.75 18.5A0.25 0.25 0 0 1 13.5 18.75A0.25 0.25 0 0 1 13.25 18.5A0.25 0.25 0 0 1 13.5 18.25A0.25 0.25 0 0 1 13.75 18.5ZM15.75 18.5A0.25 0.25 0 0 1 15.5 18.75A0.25 0.25 0 0 1 15.25 18.5A0.25 0.25 0 0 1 15.5 18.25A0.25 0.25 0 0 1 15.75 18.5ZM16.75 18.5A0.25 0.25 0 0 1 16.5 18.75A0.25 0.25 0 0 1 16.25 18.5A0.25 0.25 0 0 1 16.5 18.25A0.25 0.25 0 0 1 16.75 18.5ZM18.75 18.5A0.25 0.25 0 0 1 18.5 18.75A0.25 0.25 0 0 1 18.25 18.5A0.25 0.25 0 0 1 18.5 18.25A0.25 0.25 0 0 1 18.75 18.5ZM20.75 18.5A0.25 0.25 0 0 1 20.5 18.75A0.25 0.25 0 0 1 20.25 18.5A0.25 0.25 0 0 1 20.5 18.25A0.25 0.25 0 0 1 20.75 18.5ZM21.75 18.5A0.25 0.25 0 0 1 21.5 18.75A0.25 0.25 0 0 1 21.25 18.5A0.25 0.25 0 0 1 21.5 18.25A0.25 0.25 0 0 1 21.75 18.5ZM23.75 18.5A0.25 0.25 0 0 1 23.5 18.75A0.25 0.25 0 0 1 23.25 18.5A0.25 0.25 0 0 1 23.5 18.25A0.25 0.25 0 0 1 23.75 18.5ZM24.75 18.5A0.25 0.25 0 0 1 24.5 18.75A0.25 0.25 0 0 1 24.25 18.5A0.25 0.25 0 0 1 24.5 18.25A0.25 0.25 0 0 1 24.75 18.5ZM11.75 19.5A0.25 0.25 0 0 1 11.5 19.75A0.25 0.25 0 0 1 11.25 19.5A0.25 0.25 0 0 1 11.5 19.25A0.25 0.25 0 0 1 11.75 19.5ZM16.75 19.5A0.25 0.25 0 0 1 16.5 19.75A0.25 0.25 0 0 1 16.25 19.5A0.25 0.25 0 0 1 16.5 19.25A0.25 0.25 0 0 1 16.75 19.5ZM20.75 19.5A0.25 0.25 0 0 1 20.5 19.75A0.25 0.25 0 0 1 20.25 19.5A0.25 0.25 0 0 1 20.5 19.25A0.25 0.25 0 0 1 20.75 19.5ZM24.75 19.5A0.25 0.25 0 0 1 24.5 19.75A0.25 0.25 0 0 1 24.25 19.5A0.25 0.25 0 0 1 24.5 19.25A0.25 0.25 0 0 1 24.75 19.5ZM8.75 20.5A0.25 0.25 0 0 1 8.5 20.75A0.25 0.25 0 0 1 8.25 20.5A0.25 0.25 0 0 1 8.5 20.25A0.25 0.25 0 0 1 8.75 20.5ZM9.75 20.5A0.25 0.25 0 0 1 9.5 20.75A0.25 0.25 0 0 1 9.25 20.5A0.25 0.25 0 0 1 9.5 20.25A0.25 0.25 0 0 1 9.75 20.5ZM12.75 20.5A0.25 0.25 0 0 1 12.5 20.75A0.25 0.25 0 0 1 12.25 20.5A0.25 0.25 0 0 1 12.5 20.25A0.25 0.25 0 0 1 12.75 20.5ZM16.75 20.5A0.25 0.25 0 0 1 16.5 20.75A0.25 0.25 0 0 1 16.25 20.5A0.25 0.25 0 0 1 16.5 20.25A0.25 0.25 0 0 1 16.75 20.5ZM17.75 20.5A0.25 0.25 0 0 1 17.5 20.75A0.25 0.25 0 0 1 17.25 20.5A0.25 0.25 0 0 1 17.5 20.25A0.25 0.25 0 0 1 17.75 20.5ZM18.75 20.5A0.25 0.25 0 0 1 18.5 20.75A0.25 0.25 0 0 1 18.25 20.5A0.25 0.25 0 0 1 18.5 20.25A0.25 0.25 0 0 1 18.75 20.5ZM19.75 20.5A0.25 0.25 0 0 1 19.5 20.75A0.25 0.25 0 0 1 19.25 20.5A0.25 0.25 0 0 1 19.5 20.25A0.25 0.25 0 0 1 19.75 20.5ZM20.75 20.5A0.25 0.25 0 0 1 20.5 20.75A0.25 0.25 0 0 1 20.25 20.5A0.25 0.25 0 0 1 20.5 20.25A0.25 0.25 0 0 1 20.75 20.5ZM21.75 20.5A0.25 0.25 0 0 1 21.5 20.75A0.25 0.25 0 0 1 21.25 20.5A0.25 0.25 0 0 1 21.5 20.25A0.25 0.25 0 0 1 21.75 20.5ZM24.75 20.5A0.25 0.25 0 0 1 24.5 20.75A0.25 0.25 0 0 1 24.25 20.5A0.25 0.25 0 0 1 24.5 20.25A0.25 0.25 0 0 1 24.75 20.5ZM9.75 21.5A0.25 0.25 0 0 1 9.5 21.75A0.25 0.25 0 0 1 9.25 21.5A0.25 0.25 0 0 1 9.5 21.25A0.25 0.25 0 0 1 9.75 21.5ZM11.75 21.5A0.25 0.25 0 0 1 11.5 21.75A0.25 0.25 0 0 1 11.25 21.5A0.25 0.25 0 0 1 11.5 21.25A0.25 0.25 0 0 1 11.75 21.5ZM12.75 21.5A0.25 0.25 0 0 1 12.5 21.75A0.25 0.25 0 0 1 12.25 21.5A0.25 0.25 0 0 1 12.5 21.25A0.25 0.25 0 0 1 12.75 21.5ZM13.75 21.5A0.25 0.25 0 0 1 13.5 21.75A0.25 0.25 0 0 1 13.25 21.5A0.25 0.25 0 0 1 13.5 21.25A0.25 0.25 0 0 1 13.75 21.5ZM17.75 21.5A0.25 0.25 0 0 1 17.5 21.75A0.25 0.25 0 0 1 17.25 21.5A0.25 0.25 0 0 1 17.5 21.25A0.25 0.25 0 0 1 17.75 21.5ZM19.75 21.5A0.25 0.25 0 0 1 19.5 21.75A0.25 0.25 0 0 1 19.25 21.5A0.25 0.25 0 0 1 19.5 21.25A0.25 0.25 0 0 1 19.75 21.5ZM20.75 21.5A0.25 0.25 0 0 1 20.5 21.75A0.25 0.25 0 0 1 20.25 21.5A0.25 0.25 0 0 1 20.5 21.25A0.25 0.25 0 0 1 20.75 21.5ZM21.75 21.5A0.25 0.25 0 0 1 21.5 21.75A0.25 0.25 0 0 1 21.25 21.5A0.25 0.25 0 0 1 21.5 21.25A0.25 0.25 0 0 1 21.75 21.5ZM8.75 22.5A0.25 0.25 0 0 1 8.5 22.75A0.25 0.25 0 0 1 8.25 22.5A0.25 0.25 0 0 1 8.5 22.25A0.25 0.25 0 0 1 8.75 22.5ZM9.75 22.5A0.25 0.25 0 0 1 9.5 22.75A0.25 0.25 0 0 1 9.25 22.5A0.25 0.25 0 0 1 9.5 22.25A0.25 0.25 0 0 1 9.75 22.5ZM10.75 22.5A0.25 0.25 0 0 1 10.5 22.75A0.25 0.25 0 0 1 10.25 22.5A0.25 0.25 0 0 1 10.5 22.25A0.25 0.25 0 0 1 10.75 22.5ZM11.75 22.5A0.25 0.25 0 0 1 11.5 22.75A0.25 0.25 0 0 1 11.25 22.5A0.25 0.25 0 0 1 11.5 22.25A0.25 0.25 0 0 1 11.75 22.5ZM12.75 22.5A0.25 0.25 0 0 1 12.5 22.75A0.25 0.25 0 0 1 12.25 22.5A0.25 0.25 0 0 1 12.5 22.25A0.25 0.25 0 0 1 12.75 22.5ZM14.75 22.5A0.25 0.25 0 0 1 14.5 22.75A0.25 0.25 0 0 1 14.25 22.5A0.25 0.25 0 0 1 14.5 22.25A0.25 0.25 0 0 1 14.75 22.5ZM16.75 22.5A0.25 0.25 0 0 1 16.5 22.75A0.25 0.25 0 0 1 16.25 22.5A0.25 0.25 0 0 1 16.5 22.25A0.25 0.25 0 0 1 16.75 22.5ZM20.75 22.5A0.25 0.25 0 0 1 20.5 22.75A0.25 0.25 0 0 1 20.25 22.5A0.25 0.25 0 0 1 20.5 22.25A0.25 0.25 0 0 1 20.75 22.5ZM24.75 22.5A0.25 0.25 0 0 1 24.5 22.75A0.25 0.25 0 0 1 24.25 22.5A0.25 0.25 0 0 1 24.5 22.25A0.25 0.25 0 0 1 24.75 22.5ZM12.75 23.5A0.25 0.25 0 0 1 12.5 23.75A0.25 0.25 0 0 1 12.25 23.5A0.25 0.25 0 0 1 12.5 23.25A0.25 0.25 0 0 1 12.75 23.5ZM13.75 23.5A0.25 0.25 0 0 1 13.5 23.75A0.25 0.25 0 0 1 13.25 23.5A0.25 0.25 0 0 1 13.5 23.25A0.25 0.25 0 0 1 13.75 23.5ZM14.75 23.5A0.25 0.25 0 0 1 14.5 23.75A0.25 0.25 0 0 1 14.25 23.5A0.25 0.25 0 0 1 14.5 23.25A0.25 0.25 0 0 1 14.75 23.5ZM15.75 23.5A0.25 0.25 0 0 1 15.5 23.75A0.25 0.25 0 0 1 15.25 23.5A0.25 0.25 0 0 1 15.5 23.25A0.25 0.25 0 0 1 15.75 23.5ZM16.75 23.5A0.25 0.25 0 0 1 16.5 23.75A0.25 0.25 0 0 1 16.25 23.5A0.25 0.25 0 0 1 16.5 23.25A0.25 0.25 0 0 1 16.75 23.5ZM17.75 23.5A0.25 0.25 0 0 1 17.5 23.75A0.25 0.25 0 0 1 17.25 23.5A0.25 0.25 0 0 1 17.5 23.25A0.25 0.25 0 0 1 17.75 23.5ZM23.75 23.5A0.25 0.25 0 0 1 23.5 23.75A0.25 0.25 0 0 1 23.25 23.5A0.25 0.25 0 0 1 23.5 23.25A0.25 0.25 0 0 1 23.75 23.5ZM8.75 24.5A0.25 0.25 0 0 1 8.5 24.75A0.25 0.25 0 0 1 8.25 24.5A0.25 0.25 0 0 1 8.5 24.25A0.25 0.25 0 0 1 8.75 24.5ZM9.75 24.5A0.25 0.25 0 0 1 9.5 24.75A0.25 0.25 0 0 1 9.25 24.5A0.25 0.25 0 0 1 9.5 24.25A0.25 0.25 0 0 1 9.75 24.5ZM11.75 24.5A0.25 0.25 0 0 1 11.5 24.75A0.25 0.25 0 0 1 11.25 24.5A0.25 0.25 0 0 1 11.5 24.25A0.25 0.25 0 0 1 11.75 24.5ZM14.75 24.5A0.25 0.25 0 0 1 14.5 24.75A0.25 0.25 0 0 1 14.25 24.5A0.25 0.25 0 0 1 14.5 24.25A0.25 0.25 0 0 1 14.75 24.5ZM15.75 24.5A0.25 0.25 0 0 1 15.5 24.75A0.25 0.25 0 0 1 15.25 24.5A0.25 0.25 0 0 1 15.5 24.25A0.25 0.25 0 0 1 15.75 24.5ZM16.75 24.5A0.25 0.25 0 0 1 16.5 24.75A0.25 0.25 0 0 1 16.25 24.5A0.25 0.25 0 0 1 16.5 24.25A0.25 0.25 0 0 1 16.75 24.5ZM18.75 24.5A0.25 0.25 0 0 1 18.5 24.75A0.25 0.25 0 0 1 18.25 24.5A0.25 0.25 0 0 1 18.5 24.25A0.25 0.25 0 0 1 18.75 24.5ZM20.75 24.5A0.25 0.25 0 0 1 20.5 24.75A0.25 0.25 0 0 1 20.25 24.5A0.25 0.25 0 0 1 20.5 24.25A0.25 0.25 0 0 1 20.75 24.5ZM23.75 24.5A0.25 0.25 0 0 1 23.5 24.75A0.25 0.25 0 0 1 23.25 24.5A0.25 0.25 0 0 1 23.5 24.25A0.25 0.25 0 0 1 23.75 24.5ZM24.75 24.5A0.25 0.25 0 0 1 24.5 24.75A0.25 0.25 0 0 1 24.25 24.5A0.25 0.25 0 0 1 24.5 24.25A0.25 0.25 0 0 1 24.75 24.5ZM0 0L7 0L7 7L0 7ZM1 1L1 6L6 6L6 1ZM2 2L5 2L5 5L2 5ZM18 0L25 0L25 7L18 7ZM19 1L19 6L24 6L24 1ZM20 2L23 2L23 5L20 5ZM0 18L7 18L7 25L0 25ZM1 19L1 24L6 24L6 19ZM2 20L5 20L5 23L2 23Z" fill="#d686eb"/></g></g></svg>
