<?xml version="1.0" encoding="UTF-8"?>
<svg xmlns="http://www.w3.org/2000/svg" version="1.1" width="100" height="100" viewBox="0 0 100 100"><rect x="0" y="0" width="100" height="100" fill="#ffffff"/><g transform="scale(0.741)"><g transform="translate(55,55)"><path fill-rule="evenodd" d="M10 0L10 2L12 2L12 3L10 3L10 5L9 5L9 2L8 2L8 8L9 8L9 10L8 10L8 9L7 9L7 8L2 8L2 9L3 9L3 11L2 11L2 10L1 10L1 8L0 8L0 10L1 10L1 11L0 11L0 17L1 17L1 13L2 13L2 15L3 15L3 13L4 13L4 15L5 15L5 16L2 16L2 17L5 17L5 16L6 16L6 17L7 17L7 16L8 16L8 18L9 18L9 16L10 16L10 15L11 15L11 13L12 13L12 14L13 14L13 15L12 15L12 17L14 17L14 18L15 18L15 22L14 22L14 21L12 21L12 19L13 19L13 18L11 18L11 17L10 17L10 23L9 23L9 19L8 19L8 23L9 23L9 24L8 24L8 25L9 25L9 24L10 24L10 25L11 25L11 24L10 24L10 23L11 23L11 21L12 21L12 22L13 22L13 23L12 23L12 25L13 25L13 24L14 24L14 25L15 25L15 24L14 24L14 23L16 23L16 25L17 25L17 24L19 24L19 25L20 25L20 24L21 24L21 25L25 25L25 24L24 24L24 23L25 23L25 20L24 20L24 19L25 19L25 11L24 11L24 10L20 10L20 11L22 11L22 13L24 13L24 14L22 14L22 15L21 15L21 14L20 14L20 13L19 13L19 12L18 12L18 11L19 11L19 9L23 9L23 8L18 8L18 10L17 10L17 8L15 8L15 9L16 9L16 10L17 10L17 11L16 11L16 12L14 12L14 14L13 14L13 13L12 13L12 12L13 12L13 11L15 11L15 10L13 10L13 9L11 9L11 8L13 8L13 6L14 6L14 7L15 7L15 6L16 6L16 7L17 7L17 6L16 6L16 3L17 3L17 2L16 2L16 1L17 1L17 0L14 0L14 1L12 1L12 0ZM13 2L13 4L12 4L12 5L10 5L10 6L9 6L9 8L10 8L10 6L11 6L11 7L12 7L12 5L14 5L14 6L15 6L15 4L14 4L14 2ZM15 2L15 3L16 3L16 2ZM6 9L6 10L7 10L7 11L5 11L5 10L4 10L4 11L3 11L3 12L2 12L2 11L1 11L1 12L2 12L2 13L3 13L3 12L4 12L4 13L5 13L5 15L6 15L6 16L7 16L7 15L8 15L8 14L9 14L9 15L10 15L10 14L9 14L9 13L11 13L11 12L9 12L9 13L6 13L6 12L7 12L7 11L8 11L8 10L7 10L7 9ZM10 9L10 11L11 11L11 9ZM23 11L23 12L24 12L24 11ZM16 12L16 13L18 13L18 12ZM6 14L6 15L7 15L7 14ZM16 14L16 15L15 15L15 16L14 16L14 15L13 15L13 16L14 16L14 17L15 17L15 16L16 16L16 15L17 15L17 14ZM19 14L19 15L18 15L18 16L19 16L19 15L20 15L20 16L21 16L21 20L22 20L22 21L20 21L20 23L22 23L22 24L23 24L23 23L24 23L24 22L23 22L23 19L22 19L22 18L24 18L24 16L23 16L23 15L22 15L22 16L21 16L21 15L20 15L20 14ZM22 16L22 17L23 17L23 16ZM17 17L17 20L20 20L20 17ZM18 18L18 19L19 19L19 18ZM16 22L16 23L17 23L17 22ZM22 22L22 23L23 23L23 22ZM0 0L7 0L7 7L0 7ZM1 1L1 6L6 6L6 1ZM5 3.5A1.5 1.5 0 0 1 3.5 5A1.5 1.5 0 0 1 2 3.5A1.5 1.5 0 0 1 3.5 2A1.5 1.5 0 0 1 5 3.5ZM18 0L25 0L25 7L18 7ZM19 1L19 6L24 6L24 1ZM23 3.5A1.5 1.5 0 0 1 21.5 5A1.5 1.5 0 0 1 20 3.5A1.5 1.5 0 0 1 21.5 2A1.5 1.5 0 0 1 23 3.5ZM0 18L7 18L7 25L0 25ZM1 19L1 24L6 24L6 19ZM5 21.5A1.5 1.5 0 0 1 3.5 23A1.5 1.5 0 0 1 2 21.5A1.5 1.5 0 0 1 3.5 20A1.5 1.5 0 0 1 5 21.5Z" fill="#cde206"/></g></g></svg>
