<?xml version="1.0" encoding="UTF-8"?>
<svg xmlns="http://www.w3.org/2000/svg" version="1.1" width="300" height="300" viewBox="0 0 300 300"><rect x="0" y="0" width="300" height="300" fill="#a69445" fill-opacity="0.59"/><g transform="scale(1.37)"><g transform="translate(97,97)"><path fill-rule="evenodd" d="M8 0.25L8 0.75A0.25 0.25 0 0 0 8.25 1L8.75 1A0.25 0.25 0 0 0 9 0.75L9 0.25A0.25 0.25 0 0 0 8.75 0L8.25 0A0.25 0.25 0 0 0 8 0.25ZM13 0.25L13 0.75A0.25 0.25 0 0 1 12.75 1L10.25 1A0.25 0.25 0 0 0 10 1.25L10 1.75A0.25 0.25 0 0 0 10.25 2L10.75 2A0.25 0.25 0 0 1 11 2.25L11 2.75A0.25 0.25 0 0 1 10.75 3L9.25 3A0.25 0.25 0 0 1 9 2.75L9 2.25A0.25 0.25 0 0 0 8.75 2L8.25 2A0.25 0.25 0 0 0 8 2.25L8 2.75A0.25 0.25 0 0 0 8.25 3L8.75 3A0.25 0.25 0 0 1 9 3.25L9 3.75A0.25 0.25 0 0 0 9.25 4L9.75 4A0.25 0.25 0 0 1 10 4.25L10 4.75A0.25 0.25 0 0 1 9.75 5L8.25 5A0.25 0.25 0 0 0 8 5.25L8 6.75A0.25 0.25 0 0 0 8.25 7L8.75 7A0.25 0.25 0 0 1 9 7.25L9 9.75A0.25 0.25 0 0 1 8.75 10L8.25 10A0.25 0.25 0 0 0 8 10.25L8 10.75A0.25 0.25 0 0 0 8.25 11L8.75 11A0.25 0.25 0 0 1 9 11.25L9 11.75A0.25 0.25 0 0 1 8.75 12L6.25 12A0.25 0.25 0 0 0 6 12.25L6 12.75A0.25 0.25 0 0 1 5.75 13L5.25 13A0.25 0.25 0 0 0 5 13.25L5 13.75A0.25 0.25 0 0 1 4.75 14L4.25 14A0.25 0.25 0 0 0 4 14.25L4 14.75A0.25 0.25 0 0 0 4.25 15L4.75 15A0.25 0.25 0 0 1 5 15.25L5 15.75A0.25 0.25 0 0 0 5.25 16L5.75 16A0.25 0.25 0 0 1 6 16.25L6 16.75A0.25 0.25 0 0 0 6.25 17L7.75 17A0.25 0.25 0 0 1 8 17.25L8 18.75A0.25 0.25 0 0 0 8.25 19L10.75 19A0.25 0.25 0 0 1 11 19.25L11 19.75A0.25 0.25 0 0 1 10.75 20L9.25 20A0.25 0.25 0 0 0 9 20.25L9 21.75A0.25 0.25 0 0 1 8.75 22L8.25 22A0.25 0.25 0 0 0 8 22.25L8 22.75A0.25 0.25 0 0 0 8.25 23L8.75 23A0.25 0.25 0 0 0 9 22.75L9 22.25A0.25 0.25 0 0 1 9.25 22L9.75 22A0.25 0.25 0 0 1 10 22.25L10 24.75A0.25 0.25 0 0 0 10.25 25L13.75 25A0.25 0.25 0 0 0 14 24.75L14 23.25A0.25 0.25 0 0 0 13.75 23L13.25 23A0.25 0.25 0 0 0 13 23.25L13 23.75A0.25 0.25 0 0 1 12.75 24L11.25 24A0.25 0.25 0 0 1 11 23.75L11 23.25A0.25 0.25 0 0 1 11.25 23L11.75 23A0.25 0.25 0 0 0 12 22.75L12 22.25A0.25 0.25 0 0 0 11.75 22L11.25 22A0.25 0.25 0 0 1 11 21.75L11 20.25A0.25 0.25 0 0 1 11.25 20L12.75 20A0.25 0.25 0 0 1 13 20.25L13 21.75A0.25 0.25 0 0 0 13.25 22L13.75 22A0.25 0.25 0 0 0 14 21.75L14 21.25A0.25 0.25 0 0 1 14.25 21L15.75 21A0.25 0.25 0 0 1 16 21.25L16 21.75A0.25 0.25 0 0 1 15.75 22L15.25 22A0.25 0.25 0 0 0 15 22.25L15 22.75A0.25 0.25 0 0 0 15.25 23L16.75 23A0.25 0.25 0 0 1 17 23.25L17 23.75A0.25 0.25 0 0 1 16.75 24L16.25 24A0.25 0.25 0 0 0 16 24.25L16 24.75A0.25 0.25 0 0 0 16.25 25L16.75 25A0.25 0.25 0 0 0 17 24.75L17 24.25A0.25 0.25 0 0 1 17.25 24L17.75 24A0.25 0.25 0 0 0 18 23.75L18 23.25A0.25 0.25 0 0 0 17.75 23L17.25 23A0.25 0.25 0 0 1 17 22.75L17 21.25A0.25 0.25 0 0 1 17.25 21L18.75 21A0.25 0.25 0 0 1 19 21.25L19 22.75A0.25 0.25 0 0 0 19.25 23L19.75 23A0.25 0.25 0 0 1 20 23.25L20 24.75A0.25 0.25 0 0 0 20.25 25L20.75 25A0.25 0.25 0 0 0 21 24.75L21 23.25A0.25 0.25 0 0 1 21.25 23L21.75 23A0.25 0.25 0 0 1 22 23.25L22 24.75A0.25 0.25 0 0 0 22.25 25L22.75 25A0.25 0.25 0 0 0 23 24.75L23 24.25A0.25 0.25 0 0 1 23.25 24L23.75 24A0.25 0.25 0 0 1 24 24.25L24 24.75A0.25 0.25 0 0 0 24.25 25L24.75 25A0.25 0.25 0 0 0 25 24.75L25 22.25A0.25 0.25 0 0 0 24.75 22L23.25 22A0.25 0.25 0 0 0 23 22.25L23 22.75A0.25 0.25 0 0 1 22.75 23L22.25 23A0.25 0.25 0 0 1 22 22.75L22 20.25A0.25 0.25 0 0 0 21.75 20L21.25 20A0.25 0.25 0 0 1 21 19.75L21 18.25A0.25 0.25 0 0 1 21.25 18L21.75 18A0.25 0.25 0 0 0 22 17.75L22 17.25A0.25 0.25 0 0 1 22.25 17L24.75 17A0.25 0.25 0 0 0 25 16.75L25 16.25A0.25 0.25 0 0 0 24.75 16L24.25 16A0.25 0.25 0 0 1 24 15.75L24 15.25A0.25 0.25 0 0 1 24.25 15L24.75 15A0.25 0.25 0 0 0 25 14.75L25 14.25A0.25 0.25 0 0 0 24.75 14L24.25 14A0.25 0.25 0 0 0 24 14.25L24 14.75A0.25 0.25 0 0 1 23.75 15L23.25 15A0.25 0.25 0 0 0 23 15.25L23 15.75A0.25 0.25 0 0 1 22.75 16L22.25 16A0.25 0.25 0 0 1 22 15.75L22 13.25A0.25 0.25 0 0 1 22.25 13L22.75 13A0.25 0.25 0 0 0 23 12.75L23 12.25A0.25 0.25 0 0 0 22.75 12L20.25 12A0.25 0.25 0 0 0 20 12.25L20 12.75A0.25 0.25 0 0 1 19.75 13L19.25 13A0.25 0.25 0 0 1 19 12.75L19 11.25A0.25 0.25 0 0 1 19.25 11L19.75 11A0.25 0.25 0 0 0 20 10.75L20 10.25A0.25 0.25 0 0 0 19.75 10L18.25 10A0.25 0.25 0 0 0 18 10.25L18 12.75A0.25 0.25 0 0 1 17.75 13L17.25 13A0.25 0.25 0 0 0 17 13.25L17 13.75A0.25 0.25 0 0 0 17.25 14L17.75 14A0.25 0.25 0 0 1 18 14.25L18 14.75A0.25 0.25 0 0 1 17.75 15L16.25 15A0.25 0.25 0 0 1 16 14.75L16 14.25A0.25 0.25 0 0 0 15.75 14L15.25 14A0.25 0.25 0 0 1 15 13.75L15 13.25A0.25 0.25 0 0 1 15.25 13L15.75 13A0.25 0.25 0 0 0 16 12.75L16 12.25A0.25 0.25 0 0 1 16.25 12L16.75 12A0.25 0.25 0 0 0 17 11.75L17 11.25A0.25 0.25 0 0 0 16.75 11L16.25 11A0.25 0.25 0 0 1 16 10.75L16 10.25A0.25 0.25 0 0 1 16.25 10L16.75 10A0.25 0.25 0 0 0 17 9.75L17 9.25A0.25 0.25 0 0 0 16.75 9L16.25 9A0.25 0.25 0 0 1 16 8.75L16 8.25A0.25 0.25 0 0 1 16.25 8L16.75 8A0.25 0.25 0 0 0 17 7.75L17 6.25A0.25 0.25 0 0 0 16.75 6L16.25 6A0.25 0.25 0 0 1 16 5.75L16 5.25A0.25 0.25 0 0 0 15.75 5L14.25 5A0.25 0.25 0 0 1 14 4.75L14 4.25A0.25 0.25 0 0 1 14.25 4L14.75 4A0.25 0.25 0 0 0 15 3.75L15 1.25A0.25 0.25 0 0 1 15.25 1L16.75 1A0.25 0.25 0 0 0 17 0.75L17 0.25A0.25 0.25 0 0 0 16.75 0L13.25 0A0.25 0.25 0 0 0 13 0.25ZM12 2.25L12 2.75A0.25 0.25 0 0 1 11.75 3L11.25 3A0.25 0.25 0 0 0 11 3.25L11 3.75A0.25 0.25 0 0 0 11.25 4L11.75 4A0.25 0.25 0 0 0 12 3.75L12 3.25A0.25 0.25 0 0 1 12.25 3L13.75 3A0.25 0.25 0 0 0 14 2.75L14 2.25A0.25 0.25 0 0 0 13.75 2L12.25 2A0.25 0.25 0 0 0 12 2.25ZM16 2.25L16 3.75A0.25 0.25 0 0 0 16.25 4L16.75 4A0.25 0.25 0 0 0 17 3.75L17 2.25A0.25 0.25 0 0 0 16.75 2L16.25 2A0.25 0.25 0 0 0 16 2.25ZM10 5.25L10 5.75A0.25 0.25 0 0 1 9.75 6L9.25 6A0.25 0.25 0 0 0 9 6.25L9 6.75A0.25 0.25 0 0 0 9.25 7L9.75 7A0.25 0.25 0 0 1 10 7.25L10 9.75A0.25 0.25 0 0 1 9.75 10L9.25 10A0.25 0.25 0 0 0 9 10.25L9 10.75A0.25 0.25 0 0 0 9.25 11L9.75 11A0.25 0.25 0 0 0 10 10.75L10 10.25A0.25 0.25 0 0 1 10.25 10L10.75 10A0.25 0.25 0 0 0 11 9.75L11 9.25A0.25 0.25 0 0 1 11.25 9L12.75 9A0.25 0.25 0 0 1 13 9.25L13 10.75A0.25 0.25 0 0 0 13.25 11L13.75 11A0.25 0.25 0 0 1 14 11.25L14 11.75A0.25 0.25 0 0 0 14.25 12L14.75 12A0.25 0.25 0 0 0 15 11.75L15 10.25A0.25 0.25 0 0 1 15.25 10L15.75 10A0.25 0.25 0 0 0 16 9.75L16 9.25A0.25 0.25 0 0 0 15.75 9L15.25 9A0.25 0.25 0 0 1 15 8.75L15 7.25A0.25 0.25 0 0 1 15.25 7L15.75 7A0.25 0.25 0 0 0 16 6.75L16 6.25A0.25 0.25 0 0 0 15.75 6L15.25 6A0.25 0.25 0 0 0 15 6.25L15 6.75A0.25 0.25 0 0 1 14.75 7L14.25 7A0.25 0.25 0 0 1 14 6.75L14 6.25A0.25 0.25 0 0 0 13.75 6L13.25 6A0.25 0.25 0 0 0 13 6.25L13 7.75A0.25 0.25 0 0 1 12.75 8L12.25 8A0.25 0.25 0 0 1 12 7.75L12 5.25A0.25 0.25 0 0 0 11.75 5L10.25 5A0.25 0.25 0 0 0 10 5.25ZM10 6.25L10 6.75A0.25 0.25 0 0 0 10.25 7L10.75 7A0.25 0.25 0 0 0 11 6.75L11 6.25A0.25 0.25 0 0 0 10.75 6L10.25 6A0.25 0.25 0 0 0 10 6.25ZM0 8.25L0 10.75A0.25 0.25 0 0 0 0.25 11L1.75 11A0.25 0.25 0 0 1 2 11.25L2 11.75A0.25 0.25 0 0 1 1.75 12L0.25 12A0.25 0.25 0 0 0 0 12.25L0 12.75A0.25 0.25 0 0 0 0.25 13L0.75 13A0.25 0.25 0 0 1 1 13.25L1 13.75A0.25 0.25 0 0 1 0.75 14L0.25 14A0.25 0.25 0 0 0 0 14.25L0 14.75A0.25 0.25 0 0 0 0.25 15L1.75 15A0.25 0.25 0 0 0 2 14.75L2 14.25A0.25 0.25 0 0 1 2.25 14L2.75 14A0.25 0.25 0 0 0 3 13.75L3 11.25A0.25 0.25 0 0 1 3.25 11L3.75 11A0.25 0.25 0 0 1 4 11.25L4 11.75A0.25 0.25 0 0 0 4.25 12L4.75 12A0.25 0.25 0 0 0 5 11.75L5 11.25A0.25 0.25 0 0 1 5.25 11L6.75 11A0.25 0.25 0 0 0 7 10.75L7 10.25A0.25 0.25 0 0 0 6.75 10L5.25 10A0.25 0.25 0 0 1 5 9.75L5 9.25A0.25 0.25 0 0 0 4.75 9L4.25 9A0.25 0.25 0 0 0 4 9.25L4 9.75A0.25 0.25 0 0 1 3.75 10L3.25 10A0.25 0.25 0 0 1 3 9.75L3 8.25A0.25 0.25 0 0 0 2.75 8L2.25 8A0.25 0.25 0 0 0 2 8.25L2 9.75A0.25 0.25 0 0 1 1.75 10L1.25 10A0.25 0.25 0 0 1 1 9.75L1 8.25A0.25 0.25 0 0 0 0.75 8L0.25 8A0.25 0.25 0 0 0 0 8.25ZM6 8.25L6 8.75A0.25 0.25 0 0 0 6.25 9L7.75 9A0.25 0.25 0 0 0 8 8.75L8 8.25A0.25 0.25 0 0 0 7.75 8L6.25 8A0.25 0.25 0 0 0 6 8.25ZM13 8.25L13 8.75A0.25 0.25 0 0 0 13.25 9L13.75 9A0.25 0.25 0 0 0 14 8.75L14 8.25A0.25 0.25 0 0 0 13.75 8L13.25 8A0.25 0.25 0 0 0 13 8.25ZM19 8.25L19 8.75A0.25 0.25 0 0 0 19.25 9L19.75 9A0.25 0.25 0 0 0 20 8.75L20 8.25A0.25 0.25 0 0 0 19.75 8L19.25 8A0.25 0.25 0 0 0 19 8.25ZM22 8.25L22 8.75A0.25 0.25 0 0 1 21.75 9L21.25 9A0.25 0.25 0 0 0 21 9.25L21 9.75A0.25 0.25 0 0 0 21.25 10L21.75 10A0.25 0.25 0 0 0 22 9.75L22 9.25A0.25 0.25 0 0 1 22.25 9L22.75 9A0.25 0.25 0 0 1 23 9.25L23 10.75A0.25 0.25 0 0 0 23.25 11L24.75 11A0.25 0.25 0 0 0 25 10.75L25 10.25A0.25 0.25 0 0 0 24.75 10L24.25 10A0.25 0.25 0 0 1 24 9.75L24 9.25A0.25 0.25 0 0 1 24.25 9L24.75 9A0.25 0.25 0 0 0 25 8.75L25 8.25A0.25 0.25 0 0 0 24.75 8L24.25 8A0.25 0.25 0 0 0 24 8.25L24 8.75A0.25 0.25 0 0 1 23.75 9L23.25 9A0.25 0.25 0 0 1 23 8.75L23 8.25A0.25 0.25 0 0 0 22.75 8L22.25 8A0.25 0.25 0 0 0 22 8.25ZM4 10.25L4 10.75A0.25 0.25 0 0 0 4.25 11L4.75 11A0.25 0.25 0 0 0 5 10.75L5 10.25A0.25 0.25 0 0 0 4.75 10L4.25 10A0.25 0.25 0 0 0 4 10.25ZM10 12.25L10 12.75A0.25 0.25 0 0 1 9.75 13L9.25 13A0.25 0.25 0 0 0 9 13.25L9 13.75A0.25 0.25 0 0 0 9.25 14L11.75 14A0.25 0.25 0 0 1 12 14.25L12 14.75A0.25 0.25 0 0 1 11.75 15L11.25 15A0.25 0.25 0 0 0 11 15.25L11 15.75A0.25 0.25 0 0 1 10.75 16L10.25 16A0.25 0.25 0 0 1 10 15.75L10 15.25A0.25 0.25 0 0 0 9.75 15L9.25 15A0.25 0.25 0 0 0 9 15.25L9 15.75A0.25 0.25 0 0 1 8.75 16L8.25 16A0.25 0.25 0 0 0 8 16.25L8 16.75A0.25 0.25 0 0 0 8.25 17L8.75 17A0.25 0.25 0 0 1 9 17.25L9 17.75A0.25 0.25 0 0 0 9.25 18L10.75 18A0.25 0.25 0 0 1 11 18.25L11 18.75A0.25 0.25 0 0 0 11.25 19L11.75 19A0.25 0.25 0 0 0 12 18.75L12 17.25A0.25 0.25 0 0 0 11.75 17L11.25 17A0.25 0.25 0 0 1 11 16.75L11 16.25A0.25 0.25 0 0 1 11.25 16L13.75 16A0.25 0.25 0 0 1 14 16.25L14 16.75A0.25 0.25 0 0 1 13.75 17L13.25 17A0.25 0.25 0 0 0 13 17.25L13 17.75A0.25 0.25 0 0 0 13.25 18L15.75 18A0.25 0.25 0 0 0 16 17.75L16 17.25A0.25 0.25 0 0 0 15.75 17L15.25 17A0.25 0.25 0 0 1 15 16.75L15 16.25A0.25 0.25 0 0 0 14.75 16L14.25 16A0.25 0.25 0 0 1 14 15.75L14 15.25A0.25 0.25 0 0 1 14.25 15L14.75 15A0.25 0.25 0 0 0 15 14.75L15 14.25A0.25 0.25 0 0 0 14.75 14L14.25 14A0.25 0.25 0 0 1 14 13.75L14 13.25A0.25 0.25 0 0 0 13.75 13L13.25 13A0.25 0.25 0 0 1 13 12.75L13 12.25A0.25 0.25 0 0 0 12.75 12L12.25 12A0.25 0.25 0 0 0 12 12.25L12 12.75A0.25 0.25 0 0 1 11.75 13L11.25 13A0.25 0.25 0 0 1 11 12.75L11 12.25A0.25 0.25 0 0 0 10.75 12L10.25 12A0.25 0.25 0 0 0 10 12.25ZM24 12.25L24 12.75A0.25 0.25 0 0 0 24.25 13L24.75 13A0.25 0.25 0 0 0 25 12.75L25 12.25A0.25 0.25 0 0 0 24.75 12L24.25 12A0.25 0.25 0 0 0 24 12.25ZM6 13.25L6 13.75A0.25 0.25 0 0 0 6.25 14L7.75 14A0.25 0.25 0 0 0 8 13.75L8 13.25A0.25 0.25 0 0 0 7.75 13L6.25 13A0.25 0.25 0 0 0 6 13.25ZM18 13.25L18 13.75A0.25 0.25 0 0 0 18.25 14L18.75 14A0.25 0.25 0 0 0 19 13.75L19 13.25A0.25 0.25 0 0 0 18.75 13L18.25 13A0.25 0.25 0 0 0 18 13.25ZM20 14.25L20 15.75A0.25 0.25 0 0 0 20.25 16L20.75 16A0.25 0.25 0 0 1 21 16.25L21 16.75A0.25 0.25 0 0 0 21.25 17L21.75 17A0.25 0.25 0 0 0 22 16.75L22 16.25A0.25 0.25 0 0 0 21.75 16L21.25 16A0.25 0.25 0 0 1 21 15.75L21 14.25A0.25 0.25 0 0 0 20.75 14L20.25 14A0.25 0.25 0 0 0 20 14.25ZM6 15.25L6 15.75A0.25 0.25 0 0 0 6.25 16L6.75 16A0.25 0.25 0 0 0 7 15.75L7 15.25A0.25 0.25 0 0 0 6.75 15L6.25 15A0.25 0.25 0 0 0 6 15.25ZM0 16.25L0 16.75A0.25 0.25 0 0 0 0.25 17L3.75 17A0.25 0.25 0 0 0 4 16.75L4 16.25A0.25 0.25 0 0 0 3.75 16L0.25 16A0.25 0.25 0 0 0 0 16.25ZM9 16.25L9 16.75A0.25 0.25 0 0 0 9.25 17L9.75 17A0.25 0.25 0 0 0 10 16.75L10 16.25A0.25 0.25 0 0 0 9.75 16L9.25 16A0.25 0.25 0 0 0 9 16.25ZM17 17.25L17 19.75A0.25 0.25 0 0 0 17.25 20L19.75 20A0.25 0.25 0 0 0 20 19.75L20 17.25A0.25 0.25 0 0 0 19.75 17L17.25 17A0.25 0.25 0 0 0 17 17.25ZM18 18.25L18 18.75A0.25 0.25 0 0 0 18.25 19L18.75 19A0.25 0.25 0 0 0 19 18.75L19 18.25A0.25 0.25 0 0 0 18.75 18L18.25 18A0.25 0.25 0 0 0 18 18.25ZM24 18.25L24 18.75A0.25 0.25 0 0 1 23.75 19L23.25 19A0.25 0.25 0 0 0 23 19.25L23 19.75A0.25 0.25 0 0 0 23.25 20L24.75 20A0.25 0.25 0 0 0 25 19.75L25 18.25A0.25 0.25 0 0 0 24.75 18L24.25 18A0.25 0.25 0 0 0 24 18.25ZM13 19.25L13 19.75A0.25 0.25 0 0 0 13.25 20L15.75 20A0.25 0.25 0 0 0 16 19.75L16 19.25A0.25 0.25 0 0 0 15.75 19L13.25 19A0.25 0.25 0 0 0 13 19.25ZM20 21.25L20 21.75A0.25 0.25 0 0 0 20.25 22L20.75 22A0.25 0.25 0 0 0 21 21.75L21 21.25A0.25 0.25 0 0 0 20.75 21L20.25 21A0.25 0.25 0 0 0 20 21.25ZM8 24.25L8 24.75A0.25 0.25 0 0 0 8.25 25L8.75 25A0.25 0.25 0 0 0 9 24.75L9 24.25A0.25 0.25 0 0 0 8.75 24L8.25 24A0.25 0.25 0 0 0 8 24.25ZM0 0L7 0L7 7L0 7ZM1 1L1 6L6 6L6 1ZM2 2L5 2L5 5L2 5ZM18 0L25 0L25 7L18 7ZM19 1L19 6L24 6L24 1ZM20 2L23 2L23 5L20 5ZM0 18L7 18L7 25L0 25ZM1 19L1 24L6 24L6 19ZM2 20L5 20L5 23L2 23Z" fill="#f1711e"/></g></g></svg>
