<?xml version="1.0" encoding="UTF-8"?>
<svg xmlns="http://www.w3.org/2000/svg" version="1.1" width="600" height="600" viewBox="0 0 600 600"><rect x="0" y="0" width="600" height="600" fill="#ffffff"/><g transform="scale(4.255)"><g transform="translate(56,56)"><path fill-rule="evenodd" d="M8 0.25L8 0.75A0.25 0.25 0 0 0 8.25 1L9.75 1A0.25 0.25 0 0 1 10 1.25L10 1.75A0.25 0.25 0 0 1 9.75 2L8.25 2A0.25 0.25 0 0 0 8 2.25L8 3.75A0.25 0.25 0 0 0 8.25 4L9.75 4A0.25 0.25 0 0 1 10 4.25L10 6.75A0.25 0.25 0 0 0 10.25 7L10.75 7A0.25 0.25 0 0 1 11 7.25L11 7.75A0.25 0.25 0 0 1 10.75 8L10.25 8A0.25 0.25 0 0 0 10 8.25L10 9.75A0.25 0.25 0 0 0 10.25 10L10.75 10A0.25 0.25 0 0 1 11 10.25L11 11.75A0.25 0.25 0 0 1 10.75 12L10.25 12A0.25 0.25 0 0 0 10 12.25L10 12.75A0.25 0.25 0 0 1 9.75 13L9.25 13A0.25 0.25 0 0 1 9 12.75L9 12.25A0.25 0.25 0 0 0 8.75 12L8.25 12A0.25 0.25 0 0 1 8 11.75L8 9.25A0.25 0.25 0 0 1 8.25 9L8.75 9A0.25 0.25 0 0 0 9 8.75L9 5.25A0.25 0.25 0 0 0 8.75 5L8.25 5A0.25 0.25 0 0 0 8 5.25L8 7.75A0.25 0.25 0 0 1 7.75 8L5.25 8A0.25 0.25 0 0 0 5 8.25L5 8.75A0.25 0.25 0 0 1 4.75 9L4.25 9A0.25 0.25 0 0 1 4 8.75L4 8.25A0.25 0.25 0 0 0 3.75 8L3.25 8A0.25 0.25 0 0 0 3 8.25L3 8.75A0.25 0.25 0 0 1 2.75 9L2.25 9A0.25 0.25 0 0 1 2 8.75L2 8.25A0.25 0.25 0 0 0 1.75 8L1.25 8A0.25 0.25 0 0 0 1 8.25L1 8.75A0.25 0.25 0 0 0 1.25 9L1.75 9A0.25 0.25 0 0 1 2 9.25L2 9.75A0.25 0.25 0 0 1 1.75 10L1.25 10A0.25 0.25 0 0 0 1 10.25L1 10.75A0.25 0.25 0 0 1 0.75 11L0.25 11A0.25 0.25 0 0 0 0 11.25L0 11.75A0.25 0.25 0 0 0 0.25 12L0.75 12A0.25 0.25 0 0 0 1 11.75L1 11.25A0.25 0.25 0 0 1 1.25 11L1.75 11A0.25 0.25 0 0 1 2 11.25L2 11.75A0.25 0.25 0 0 0 2.25 12L2.75 12A0.25 0.25 0 0 0 3 11.75L3 11.25A0.25 0.25 0 0 1 3.25 11L4.75 11A0.25 0.25 0 0 1 5 11.25L5 11.75A0.25 0.25 0 0 1 4.75 12L4.25 12A0.25 0.25 0 0 0 4 12.25L4 12.75A0.25 0.25 0 0 1 3.75 13L3.25 13A0.25 0.25 0 0 0 3 13.25L3 13.75A0.25 0.25 0 0 0 3.25 14L3.75 14A0.25 0.25 0 0 1 4 14.25L4 14.75A0.25 0.25 0 0 1 3.75 15L3.25 15A0.25 0.25 0 0 0 3 15.25L3 15.75A0.25 0.25 0 0 0 3.25 16L3.75 16A0.25 0.25 0 0 0 4 15.75L4 15.25A0.25 0.25 0 0 1 4.25 15L4.75 15A0.25 0.25 0 0 0 5 14.75L5 14.25A0.25 0.25 0 0 1 5.25 14L5.75 14A0.25 0.25 0 0 1 6 14.25L6 14.75A0.25 0.25 0 0 0 6.25 15L7.75 15A0.25 0.25 0 0 1 8 15.25L8 15.75A0.25 0.25 0 0 1 7.75 16L6.25 16A0.25 0.25 0 0 0 6 16.25L6 16.75A0.25 0.25 0 0 0 6.25 17L7.75 17A0.25 0.25 0 0 0 8 16.75L8 16.25A0.25 0.25 0 0 1 8.25 16L8.75 16A0.25 0.25 0 0 1 9 16.25L9 18.75A0.25 0.25 0 0 0 9.25 19L9.75 19A0.25 0.25 0 0 0 10 18.75L10 18.25A0.25 0.25 0 0 1 10.25 18L10.75 18A0.25 0.25 0 0 1 11 18.25L11 19.75A0.25 0.25 0 0 0 11.25 20L11.75 20A0.25 0.25 0 0 1 12 20.25L12 20.75A0.25 0.25 0 0 1 11.75 21L10.25 21A0.25 0.25 0 0 0 10 21.25L10 23.75A0.25 0.25 0 0 1 9.75 24L9.25 24A0.25 0.25 0 0 1 9 23.75L9 21.25A0.25 0.25 0 0 0 8.75 21L8.25 21A0.25 0.25 0 0 0 8 21.25L8 23.75A0.25 0.25 0 0 0 8.25 24L8.75 24A0.25 0.25 0 0 1 9 24.25L9 24.75A0.25 0.25 0 0 1 8.75 25L8.25 25A0.25 0.25 0 0 0 8 25.25L8 25.75A0.25 0.25 0 0 0 8.25 26L9.75 26A0.25 0.25 0 0 1 10 26.25L10 27.75A0.25 0.25 0 0 0 10.25 28L10.75 28A0.25 0.25 0 0 1 11 28.25L11 28.75A0.25 0.25 0 0 0 11.25 29L11.75 29A0.25 0.25 0 0 0 12 28.75L12 28.25A0.25 0.25 0 0 1 12.25 28L12.75 28A0.25 0.25 0 0 1 13 28.25L13 28.75A0.25 0.25 0 0 0 13.25 29L14.75 29A0.25 0.25 0 0 0 15 28.75L15 28.25A0.25 0.25 0 0 1 15.25 28L15.75 28A0.25 0.25 0 0 0 16 27.75L16 27.25A0.25 0.25 0 0 0 15.75 27L15.25 27A0.25 0.25 0 0 0 15 27.25L15 27.75A0.25 0.25 0 0 1 14.75 28L14.25 28A0.25 0.25 0 0 1 14 27.75L14 24.25A0.25 0.25 0 0 1 14.25 24L14.75 24A0.25 0.25 0 0 0 15 23.75L15 22.25A0.25 0.25 0 0 1 15.25 22L16.75 22A0.25 0.25 0 0 1 17 22.25L17 22.75A0.25 0.25 0 0 1 16.75 23L16.25 23A0.25 0.25 0 0 0 16 23.25L16 23.75A0.25 0.25 0 0 0 16.25 24L17.75 24A0.25 0.25 0 0 0 18 23.75L18 22.25A0.25 0.25 0 0 1 18.25 22L18.75 22A0.25 0.25 0 0 1 19 22.25L19 23.75A0.25 0.25 0 0 0 19.25 24L19.75 24A0.25 0.25 0 0 1 20 24.25L20 25.75A0.25 0.25 0 0 0 20.25 26L20.75 26A0.25 0.25 0 0 1 21 26.25L21 26.75A0.25 0.25 0 0 0 21.25 27L21.75 27A0.25 0.25 0 0 1 22 27.25L22 28.75A0.25 0.25 0 0 0 22.25 29L24.75 29A0.25 0.25 0 0 0 25 28.75L25 28.25A0.25 0.25 0 0 1 25.25 28L25.75 28A0.25 0.25 0 0 1 26 28.25L26 28.75A0.25 0.25 0 0 0 26.25 29L27.75 29A0.25 0.25 0 0 0 28 28.75L28 28.25A0.25 0.25 0 0 1 28.25 28L28.75 28A0.25 0.25 0 0 0 29 27.75L29 23.25A0.25 0.25 0 0 0 28.75 23L28.25 23A0.25 0.25 0 0 1 28 22.75L28 20.25A0.25 0.25 0 0 1 28.25 20L28.75 20A0.25 0.25 0 0 0 29 19.75L29 18.25A0.25 0.25 0 0 0 28.75 18L28.25 18A0.25 0.25 0 0 1 28 17.75L28 17.25A0.25 0.25 0 0 0 27.75 17L26.25 17A0.25 0.25 0 0 1 26 16.75L26 16.25A0.25 0.25 0 0 0 25.75 16L24.25 16A0.25 0.25 0 0 0 24 16.25L24 16.75A0.25 0.25 0 0 0 24.25 17L25.75 17A0.25 0.25 0 0 1 26 17.25L26 17.75A0.25 0.25 0 0 0 26.25 18L26.75 18A0.25 0.25 0 0 1 27 18.25L27 18.75A0.25 0.25 0 0 1 26.75 19L25.25 19A0.25 0.25 0 0 1 25 18.75L25 18.25A0.25 0.25 0 0 0 24.75 18L24.25 18A0.25 0.25 0 0 0 24 18.25L24 18.75A0.25 0.25 0 0 1 23.75 19L23.25 19A0.25 0.25 0 0 1 23 18.75L23 18.25A0.25 0.25 0 0 0 22.75 18L21.25 18A0.25 0.25 0 0 1 21 17.75L21 17.25A0.25 0.25 0 0 0 20.75 17L20.25 17A0.25 0.25 0 0 1 20 16.75L20 16.25A0.25 0.25 0 0 1 20.25 16L20.75 16A0.25 0.25 0 0 0 21 15.75L21 14.25A0.25 0.25 0 0 0 20.75 14L20.25 14A0.25 0.25 0 0 1 20 13.75L20 13.25A0.25 0.25 0 0 1 20.25 13L20.75 13A0.25 0.25 0 0 0 21 12.75L21 12.25A0.25 0.25 0 0 1 21.25 12L21.75 12A0.25 0.25 0 0 1 22 12.25L22 14.75A0.25 0.25 0 0 0 22.25 15L23.75 15A0.25 0.25 0 0 0 24 14.75L24 14.25A0.25 0.25 0 0 1 24.25 14L24.75 14A0.25 0.25 0 0 1 25 14.25L25 14.75A0.25 0.25 0 0 0 25.25 15L25.75 15A0.25 0.25 0 0 0 26 14.75L26 13.25A0.25 0.25 0 0 1 26.25 13L26.75 13A0.25 0.25 0 0 1 27 13.25L27 13.75A0.25 0.25 0 0 0 27.25 14L27.75 14A0.25 0.25 0 0 1 28 14.25L28 14.75A0.25 0.25 0 0 1 27.75 15L27.25 15A0.25 0.25 0 0 0 27 15.25L27 15.75A0.25 0.25 0 0 0 27.25 16L28.75 16A0.25 0.25 0 0 0 29 15.75L29 12.25A0.25 0.25 0 0 0 28.75 12L28.25 12A0.25 0.25 0 0 0 28 12.25L28 12.75A0.25 0.25 0 0 1 27.75 13L27.25 13A0.25 0.25 0 0 1 27 12.75L27 11.25A0.25 0.25 0 0 0 26.75 11L26.25 11A0.25 0.25 0 0 1 26 10.75L26 10.25A0.25 0.25 0 0 0 25.75 10L25.25 10A0.25 0.25 0 0 1 25 9.75L25 9.25A0.25 0.25 0 0 1 25.25 9L26.75 9A0.25 0.25 0 0 0 27 8.75L27 8.25A0.25 0.25 0 0 0 26.75 8L25.25 8A0.25 0.25 0 0 0 25 8.25L25 8.75A0.25 0.25 0 0 1 24.75 9L24.25 9A0.25 0.25 0 0 1 24 8.75L24 8.25A0.25 0.25 0 0 0 23.75 8L21.25 8A0.25 0.25 0 0 1 21 7.75L21 5.25A0.25 0.25 0 0 0 20.75 5L20.25 5A0.25 0.25 0 0 1 20 4.75L20 4.25A0.25 0.25 0 0 1 20.25 4L20.75 4A0.25 0.25 0 0 0 21 3.75L21 3.25A0.25 0.25 0 0 0 20.75 3L19.25 3A0.25 0.25 0 0 0 19 3.25L19 3.75A0.25 0.25 0 0 1 18.75 4L17.25 4A0.25 0.25 0 0 1 17 3.75L17 3.25A0.25 0.25 0 0 1 17.25 3L17.75 3A0.25 0.25 0 0 0 18 2.75L18 2.25A0.25 0.25 0 0 1 18.25 2L18.75 2A0.25 0.25 0 0 0 19 1.75L19 1.25A0.25 0.25 0 0 0 18.75 1L18.25 1A0.25 0.25 0 0 0 18 1.25L18 1.75A0.25 0.25 0 0 1 17.75 2L17.25 2A0.25 0.25 0 0 0 17 2.25L17 2.75A0.25 0.25 0 0 1 16.75 3L15.25 3A0.25 0.25 0 0 0 15 3.25L15 3.75A0.25 0.25 0 0 0 15.25 4L16.75 4A0.25 0.25 0 0 1 17 4.25L17 4.75A0.25 0.25 0 0 1 16.75 5L16.25 5A0.25 0.25 0 0 0 16 5.25L16 7.75A0.25 0.25 0 0 1 15.75 8L13.25 8A0.25 0.25 0 0 1 13 7.75L13 6.25A0.25 0.25 0 0 1 13.25 6L13.75 6A0.25 0.25 0 0 1 14 6.25L14 6.75A0.25 0.25 0 0 0 14.25 7L14.75 7A0.25 0.25 0 0 0 15 6.75L15 5.25A0.25 0.25 0 0 0 14.75 5L14.25 5A0.25 0.25 0 0 1 14 4.75L14 4.25A0.25 0.25 0 0 0 13.75 4L12.25 4A0.25 0.25 0 0 1 12 3.75L12 3.25A0.25 0.25 0 0 1 12.25 3L12.75 3A0.25 0.25 0 0 0 13 2.75L13 2.25A0.25 0.25 0 0 1 13.25 2L13.75 2A0.25 0.25 0 0 0 14 1.75L14 0.25A0.25 0.25 0 0 0 13.75 0L13.25 0A0.25 0.25 0 0 0 13 0.25L13 0.75A0.25 0.25 0 0 1 12.75 1L12.25 1A0.25 0.25 0 0 1 12 0.75L12 0.25A0.25 0.25 0 0 0 11.75 0L8.25 0A0.25 0.25 0 0 0 8 0.25ZM15 0.25L15 0.75A0.25 0.25 0 0 0 15.25 1L15.75 1A0.25 0.25 0 0 0 16 0.75L16 0.25A0.25 0.25 0 0 0 15.75 0L15.25 0A0.25 0.25 0 0 0 15 0.25ZM20 0.25L20 1.75A0.25 0.25 0 0 0 20.25 2L20.75 2A0.25 0.25 0 0 0 21 1.75L21 0.25A0.25 0.25 0 0 0 20.75 0L20.25 0A0.25 0.25 0 0 0 20 0.25ZM11 1.25L11 1.75A0.25 0.25 0 0 1 10.75 2L10.25 2A0.25 0.25 0 0 0 10 2.25L10 2.75A0.25 0.25 0 0 0 10.25 3L10.75 3A0.25 0.25 0 0 0 11 2.75L11 2.25A0.25 0.25 0 0 1 11.25 2L11.75 2A0.25 0.25 0 0 0 12 1.75L12 1.25A0.25 0.25 0 0 0 11.75 1L11.25 1A0.25 0.25 0 0 0 11 1.25ZM11 5.25L11 6.75A0.25 0.25 0 0 0 11.25 7L11.75 7A0.25 0.25 0 0 0 12 6.75L12 5.25A0.25 0.25 0 0 0 11.75 5L11.25 5A0.25 0.25 0 0 0 11 5.25ZM17 6.25L17 7.75A0.25 0.25 0 0 0 17.25 8L17.75 8A0.25 0.25 0 0 1 18 8.25L18 10.75A0.25 0.25 0 0 1 17.75 11L17.25 11A0.25 0.25 0 0 0 17 11.25L17 11.75A0.25 0.25 0 0 1 16.75 12L16.25 12A0.25 0.25 0 0 1 16 11.75L16 11.25A0.25 0.25 0 0 0 15.75 11L15.25 11A0.25 0.25 0 0 1 15 10.75L15 10.25A0.25 0.25 0 0 1 15.25 10L16.75 10A0.25 0.25 0 0 0 17 9.75L17 9.25A0.25 0.25 0 0 0 16.75 9L15.25 9A0.25 0.25 0 0 0 15 9.25L15 9.75A0.25 0.25 0 0 1 14.75 10L14.25 10A0.25 0.25 0 0 1 14 9.75L14 9.25A0.25 0.25 0 0 0 13.75 9L13.25 9A0.25 0.25 0 0 1 13 8.75L13 8.25A0.25 0.25 0 0 0 12.75 8L11.25 8A0.25 0.25 0 0 0 11 8.25L11 8.75A0.25 0.25 0 0 0 11.25 9L12.75 9A0.25 0.25 0 0 1 13 9.25L13 10.75A0.25 0.25 0 0 1 12.75 11L12.25 11A0.25 0.25 0 0 0 12 11.25L12 16.75A0.25 0.25 0 0 1 11.75 17L11.25 17A0.25 0.25 0 0 1 11 16.75L11 13.25A0.25 0.25 0 0 0 10.75 13L10.25 13A0.25 0.25 0 0 0 10 13.25L10 16.75A0.25 0.25 0 0 0 10.25 17L10.75 17A0.25 0.25 0 0 1 11 17.25L11 17.75A0.25 0.25 0 0 0 11.25 18L11.75 18A0.25 0.25 0 0 0 12 17.75L12 17.25A0.25 0.25 0 0 1 12.25 17L12.75 17A0.25 0.25 0 0 1 13 17.25L13 17.75A0.25 0.25 0 0 0 13.25 18L13.75 18A0.25 0.25 0 0 0 14 17.75L14 16.25A0.25 0.25 0 0 1 14.25 16L14.75 16A0.25 0.25 0 0 1 15 16.25L15 16.75A0.25 0.25 0 0 0 15.25 17L16.75 17A0.25 0.25 0 0 1 17 17.25L17 17.75A0.25 0.25 0 0 0 17.25 18L17.75 18A0.25 0.25 0 0 1 18 18.25L18 18.75A0.25 0.25 0 0 1 17.75 19L14.25 19A0.25 0.25 0 0 0 14 19.25L14 19.75A0.25 0.25 0 0 0 14.25 20L15.75 20A0.25 0.25 0 0 1 16 20.25L16 20.75A0.25 0.25 0 0 0 16.25 21L16.75 21A0.25 0.25 0 0 1 17 21.25L17 21.75A0.25 0.25 0 0 0 17.25 22L17.75 22A0.25 0.25 0 0 0 18 21.75L18 21.25A0.25 0.25 0 0 1 18.25 21L19.75 21A0.25 0.25 0 0 0 20 20.75L20 20.25A0.25 0.25 0 0 1 20.25 20L20.75 20A0.25 0.25 0 0 0 21 19.75L21 18.25A0.25 0.25 0 0 0 20.75 18L18.25 18A0.25 0.25 0 0 1 18 17.75L18 16.25A0.25 0.25 0 0 0 17.75 16L17.25 16A0.25 0.25 0 0 1 17 15.75L17 14.25A0.25 0.25 0 0 0 16.75 14L16.25 14A0.25 0.25 0 0 1 16 13.75L16 13.25A0.25 0.25 0 0 1 16.25 13L18.75 13A0.25 0.25 0 0 0 19 12.75L19 12.25A0.25 0.25 0 0 1 19.25 12L20.75 12A0.25 0.25 0 0 0 21 11.75L21 11.25A0.25 0.25 0 0 0 20.75 11L20.25 11A0.25 0.25 0 0 1 20 10.75L20 10.25A0.25 0.25 0 0 0 19.75 10L19.25 10A0.25 0.25 0 0 1 19 9.75L19 9.25A0.25 0.25 0 0 1 19.25 9L20.75 9A0.25 0.25 0 0 0 21 8.75L21 8.25A0.25 0.25 0 0 0 20.75 8L19.25 8A0.25 0.25 0 0 1 19 7.75L19 7.25A0.25 0.25 0 0 1 19.25 7L19.75 7A0.25 0.25 0 0 0 20 6.75L20 6.25A0.25 0.25 0 0 0 19.75 6L19.25 6A0.25 0.25 0 0 0 19 6.25L19 6.75A0.25 0.25 0 0 1 18.75 7L18.25 7A0.25 0.25 0 0 1 18 6.75L18 6.25A0.25 0.25 0 0 0 17.75 6L17.25 6A0.25 0.25 0 0 0 17 6.25ZM28 8.25L28 9.75A0.25 0.25 0 0 0 28.25 10L28.75 10A0.25 0.25 0 0 0 29 9.75L29 8.25A0.25 0.25 0 0 0 28.75 8L28.25 8A0.25 0.25 0 0 0 28 8.25ZM3 9.25L3 9.75A0.25 0.25 0 0 1 2.75 10L2.25 10A0.25 0.25 0 0 0 2 10.25L2 10.75A0.25 0.25 0 0 0 2.25 11L2.75 11A0.25 0.25 0 0 0 3 10.75L3 10.25A0.25 0.25 0 0 1 3.25 10L3.75 10A0.25 0.25 0 0 0 4 9.75L4 9.25A0.25 0.25 0 0 0 3.75 9L3.25 9A0.25 0.25 0 0 0 3 9.25ZM5 9.25L5 9.75A0.25 0.25 0 0 0 5.25 10L6.75 10A0.25 0.25 0 0 0 7 9.75L7 9.25A0.25 0.25 0 0 0 6.75 9L5.25 9A0.25 0.25 0 0 0 5 9.25ZM22 9.25L22 10.75A0.25 0.25 0 0 0 22.25 11L24.75 11A0.25 0.25 0 0 1 25 11.25L25 11.75A0.25 0.25 0 0 0 25.25 12L25.75 12A0.25 0.25 0 0 0 26 11.75L26 11.25A0.25 0.25 0 0 0 25.75 11L25.25 11A0.25 0.25 0 0 1 25 10.75L25 10.25A0.25 0.25 0 0 0 24.75 10L24.25 10A0.25 0.25 0 0 1 24 9.75L24 9.25A0.25 0.25 0 0 0 23.75 9L22.25 9A0.25 0.25 0 0 0 22 9.25ZM6 11.25L6 11.75A0.25 0.25 0 0 1 5.75 12L5.25 12A0.25 0.25 0 0 0 5 12.25L5 12.75A0.25 0.25 0 0 0 5.25 13L5.75 13A0.25 0.25 0 0 1 6 13.25L6 13.75A0.25 0.25 0 0 0 6.25 14L7.75 14A0.25 0.25 0 0 1 8 14.25L8 14.75A0.25 0.25 0 0 0 8.25 15L8.75 15A0.25 0.25 0 0 0 9 14.75L9 14.25A0.25 0.25 0 0 0 8.75 14L8.25 14A0.25 0.25 0 0 1 8 13.75L8 12.25A0.25 0.25 0 0 0 7.75 12L7.25 12A0.25 0.25 0 0 1 7 11.75L7 11.25A0.25 0.25 0 0 0 6.75 11L6.25 11A0.25 0.25 0 0 0 6 11.25ZM13 11.25L13 11.75A0.25 0.25 0 0 0 13.25 12L14.75 12A0.25 0.25 0 0 1 15 12.25L15 12.75A0.25 0.25 0 0 1 14.75 13L13.25 13A0.25 0.25 0 0 0 13 13.25L13 15.75A0.25 0.25 0 0 0 13.25 16L13.75 16A0.25 0.25 0 0 0 14 15.75L14 15.25A0.25 0.25 0 0 1 14.25 15L14.75 15A0.25 0.25 0 0 1 15 15.25L15 15.75A0.25 0.25 0 0 0 15.25 16L15.75 16A0.25 0.25 0 0 0 16 15.75L16 14.25A0.25 0.25 0 0 0 15.75 14L15.25 14A0.25 0.25 0 0 1 15 13.75L15 13.25A0.25 0.25 0 0 1 15.25 13L15.75 13A0.25 0.25 0 0 0 16 12.75L16 12.25A0.25 0.25 0 0 0 15.75 12L15.25 12A0.25 0.25 0 0 1 15 11.75L15 11.25A0.25 0.25 0 0 0 14.75 11L13.25 11A0.25 0.25 0 0 0 13 11.25ZM18 11.25L18 11.75A0.25 0.25 0 0 0 18.25 12L18.75 12A0.25 0.25 0 0 0 19 11.75L19 11.25A0.25 0.25 0 0 0 18.75 11L18.25 11A0.25 0.25 0 0 0 18 11.25ZM6 12.25L6 12.75A0.25 0.25 0 0 0 6.25 13L6.75 13A0.25 0.25 0 0 0 7 12.75L7 12.25A0.25 0.25 0 0 0 6.75 12L6.25 12A0.25 0.25 0 0 0 6 12.25ZM0 13.25L0 16.75A0.25 0.25 0 0 0 0.25 17L0.75 17A0.25 0.25 0 0 1 1 17.25L1 17.75A0.25 0.25 0 0 1 0.75 18L0.25 18A0.25 0.25 0 0 0 0 18.25L0 18.75A0.25 0.25 0 0 0 0.25 19L0.75 19A0.25 0.25 0 0 0 1 18.75L1 18.25A0.25 0.25 0 0 1 1.25 18L1.75 18A0.25 0.25 0 0 1 2 18.25L2 20.75A0.25 0.25 0 0 0 2.25 21L2.75 21A0.25 0.25 0 0 0 3 20.75L3 20.25A0.25 0.25 0 0 1 3.25 20L3.75 20A0.25 0.25 0 0 1 4 20.25L4 20.75A0.25 0.25 0 0 0 4.25 21L4.75 21A0.25 0.25 0 0 0 5 20.75L5 19.25A0.25 0.25 0 0 1 5.25 19L6.75 19A0.25 0.25 0 0 1 7 19.25L7 19.75A0.25 0.25 0 0 1 6.75 20L6.25 20A0.25 0.25 0 0 0 6 20.25L6 20.75A0.25 0.25 0 0 0 6.25 21L6.75 21A0.25 0.25 0 0 0 7 20.75L7 20.25A0.25 0.25 0 0 1 7.25 20L7.75 20A0.25 0.25 0 0 0 8 19.75L8 19.25A0.25 0.25 0 0 0 7.75 19L7.25 19A0.25 0.25 0 0 1 7 18.75L7 18.25A0.25 0.25 0 0 0 6.75 18L4.25 18A0.25 0.25 0 0 0 4 18.25L4 18.75A0.25 0.25 0 0 1 3.75 19L3.25 19A0.25 0.25 0 0 1 3 18.75L3 17.25A0.25 0.25 0 0 0 2.75 17L1.25 17A0.25 0.25 0 0 1 1 16.75L1 15.25A0.25 0.25 0 0 1 1.25 15L1.75 15A0.25 0.25 0 0 0 2 14.75L2 13.25A0.25 0.25 0 0 0 1.75 13L0.25 13A0.25 0.25 0 0 0 0 13.25ZM19 14.25L19 15.75A0.25 0.25 0 0 0 19.25 16L19.75 16A0.25 0.25 0 0 0 20 15.75L20 14.25A0.25 0.25 0 0 0 19.75 14L19.25 14A0.25 0.25 0 0 0 19 14.25ZM22 19.25L22 19.75A0.25 0.25 0 0 0 22.25 20L22.75 20A0.25 0.25 0 0 0 23 19.75L23 19.25A0.25 0.25 0 0 0 22.75 19L22.25 19A0.25 0.25 0 0 0 22 19.25ZM24 19.25L24 19.75A0.25 0.25 0 0 0 24.25 20L24.75 20A0.25 0.25 0 0 1 25 20.25L25 21.75A0.25 0.25 0 0 0 25.25 22L25.75 22A0.25 0.25 0 0 1 26 22.25L26 22.75A0.25 0.25 0 0 1 25.75 23L25.25 23A0.25 0.25 0 0 0 25 23.25L25 23.75A0.25 0.25 0 0 0 25.25 24L25.75 24A0.25 0.25 0 0 0 26 23.75L26 23.25A0.25 0.25 0 0 1 26.25 23L26.75 23A0.25 0.25 0 0 1 27 23.25L27 23.75A0.25 0.25 0 0 0 27.25 24L27.75 24A0.25 0.25 0 0 0 28 23.75L28 23.25A0.25 0.25 0 0 0 27.75 23L27.25 23A0.25 0.25 0 0 1 27 22.75L27 21.25A0.25 0.25 0 0 0 26.75 21L26.25 21A0.25 0.25 0 0 1 26 20.75L26 20.25A0.25 0.25 0 0 0 25.75 20L25.25 20A0.25 0.25 0 0 1 25 19.75L25 19.25A0.25 0.25 0 0 0 24.75 19L24.25 19A0.25 0.25 0 0 0 24 19.25ZM27 19.25L27 19.75A0.25 0.25 0 0 0 27.25 20L27.75 20A0.25 0.25 0 0 0 28 19.75L28 19.25A0.25 0.25 0 0 0 27.75 19L27.25 19A0.25 0.25 0 0 0 27 19.25ZM0 20.25L0 20.75A0.25 0.25 0 0 0 0.25 21L0.75 21A0.25 0.25 0 0 0 1 20.75L1 20.25A0.25 0.25 0 0 0 0.75 20L0.25 20A0.25 0.25 0 0 0 0 20.25ZM17 20.25L17 20.75A0.25 0.25 0 0 0 17.25 21L17.75 21A0.25 0.25 0 0 0 18 20.75L18 20.25A0.25 0.25 0 0 0 17.75 20L17.25 20A0.25 0.25 0 0 0 17 20.25ZM13 21.25L13 21.75A0.25 0.25 0 0 1 12.75 22L12.25 22A0.25 0.25 0 0 0 12 22.25L12 22.75A0.25 0.25 0 0 1 11.75 23L11.25 23A0.25 0.25 0 0 0 11 23.25L11 24.75A0.25 0.25 0 0 1 10.75 25L10.25 25A0.25 0.25 0 0 0 10 25.25L10 25.75A0.25 0.25 0 0 0 10.25 26L10.75 26A0.25 0.25 0 0 1 11 26.25L11 27.75A0.25 0.25 0 0 0 11.25 28L11.75 28A0.25 0.25 0 0 0 12 27.75L12 25.25A0.25 0.25 0 0 1 12.25 25L12.75 25A0.25 0.25 0 0 0 13 24.75L13 23.25A0.25 0.25 0 0 1 13.25 23L13.75 23A0.25 0.25 0 0 0 14 22.75L14 21.25A0.25 0.25 0 0 0 13.75 21L13.25 21A0.25 0.25 0 0 0 13 21.25ZM21 21.25L21 23.75A0.25 0.25 0 0 0 21.25 24L23.75 24A0.25 0.25 0 0 0 24 23.75L24 21.25A0.25 0.25 0 0 0 23.75 21L21.25 21A0.25 0.25 0 0 0 21 21.25ZM22 22.25L22 22.75A0.25 0.25 0 0 0 22.25 23L22.75 23A0.25 0.25 0 0 0 23 22.75L23 22.25A0.25 0.25 0 0 0 22.75 22L22.25 22A0.25 0.25 0 0 0 22 22.25ZM15 25.25L15 25.75A0.25 0.25 0 0 0 15.25 26L17.75 26A0.25 0.25 0 0 1 18 26.25L18 26.75A0.25 0.25 0 0 1 17.75 27L17.25 27A0.25 0.25 0 0 0 17 27.25L17 27.75A0.25 0.25 0 0 0 17.25 28L17.75 28A0.25 0.25 0 0 1 18 28.25L18 28.75A0.25 0.25 0 0 0 18.25 29L18.75 29A0.25 0.25 0 0 0 19 28.75L19 28.25A0.25 0.25 0 0 1 19.25 28L19.75 28A0.25 0.25 0 0 0 20 27.75L20 27.25A0.25 0.25 0 0 0 19.75 27L19.25 27A0.25 0.25 0 0 1 19 26.75L19 26.25A0.25 0.25 0 0 0 18.75 26L18.25 26A0.25 0.25 0 0 1 18 25.75L18 25.25A0.25 0.25 0 0 0 17.75 25L15.25 25A0.25 0.25 0 0 0 15 25.25ZM21 25.25L21 25.75A0.25 0.25 0 0 0 21.25 26L22.75 26A0.25 0.25 0 0 1 23 26.25L23 26.75A0.25 0.25 0 0 0 23.25 27L25.75 27A0.25 0.25 0 0 0 26 26.75L26 26.25A0.25 0.25 0 0 1 26.25 26L26.75 26A0.25 0.25 0 0 1 27 26.25L27 27.75A0.25 0.25 0 0 0 27.25 28L27.75 28A0.25 0.25 0 0 0 28 27.75L28 26.25A0.25 0.25 0 0 0 27.75 26L27.25 26A0.25 0.25 0 0 1 27 25.75L27 25.25A0.25 0.25 0 0 0 26.75 25L26.25 25A0.25 0.25 0 0 0 26 25.25L26 25.75A0.25 0.25 0 0 1 25.75 26L23.25 26A0.25 0.25 0 0 1 23 25.75L23 25.25A0.25 0.25 0 0 0 22.75 25L21.25 25A0.25 0.25 0 0 0 21 25.25ZM8 27.25L8 27.75A0.25 0.25 0 0 0 8.25 28L8.75 28A0.25 0.25 0 0 0 9 27.75L9 27.25A0.25 0.25 0 0 0 8.75 27L8.25 27A0.25 0.25 0 0 0 8 27.25ZM18 27.25L18 27.75A0.25 0.25 0 0 0 18.25 28L18.75 28A0.25 0.25 0 0 0 19 27.75L19 27.25A0.25 0.25 0 0 0 18.75 27L18.25 27A0.25 0.25 0 0 0 18 27.25ZM0 0L7 0L7 7L0 7ZM1 1L1 6L6 6L6 1ZM2 2L5 2L5 5L2 5ZM22 0L29 0L29 7L22 7ZM23 1L23 6L28 6L28 1ZM24 2L27 2L27 5L24 5ZM0 22L7 22L7 29L0 29ZM1 23L1 28L6 28L6 23ZM2 24L5 24L5 27L2 27Z" fill="#c7c790"/></g></g></svg>
