<?xml version="1.0" encoding="UTF-8"?>
<svg xmlns="http://www.w3.org/2000/svg" version="1.1" width="900" height="900" viewBox="0 0 900 900"><rect x="0" y="0" width="900" height="900" fill="#c29278" fill-opacity="0.7"/><g transform="scale(5.66)"><g transform="translate(65,65)"><path fill-rule="evenodd" d="M9 0L9 1L8 1L8 2L9 2L9 3L8 3L8 5L9 5L9 6L8 6L8 9L10 9L10 8L9 8L9 6L10 6L10 7L11 7L11 8L14 8L14 9L13 9L13 10L12 10L12 9L11 9L11 10L10 10L10 11L9 11L9 10L6 10L6 9L7 9L7 8L3 8L3 9L2 9L2 8L1 8L1 9L0 9L0 13L2 13L2 14L0 14L0 15L2 15L2 14L3 14L3 15L4 15L4 14L5 14L5 16L4 16L4 17L5 17L5 18L6 18L6 19L7 19L7 20L6 20L6 21L8 21L8 22L9 22L9 21L12 21L12 22L10 22L10 26L9 26L9 23L8 23L8 26L9 26L9 27L8 27L8 28L9 28L9 29L10 29L10 28L11 28L11 29L14 29L14 28L13 28L13 26L12 26L12 25L14 25L14 23L13 23L13 21L12 21L12 20L13 20L13 19L12 19L12 20L11 20L11 18L13 18L13 17L16 17L16 18L15 18L15 19L14 19L14 20L15 20L15 21L14 21L14 22L15 22L15 21L16 21L16 22L17 22L17 24L16 24L16 23L15 23L15 25L16 25L16 27L15 27L15 28L16 28L16 27L17 27L17 28L20 28L20 29L21 29L21 27L18 27L18 26L17 26L17 25L19 25L19 26L20 26L20 25L23 25L23 26L24 26L24 27L25 27L25 28L24 28L24 29L25 29L25 28L26 28L26 29L27 29L27 28L28 28L28 27L29 27L29 26L28 26L28 25L29 25L29 24L28 24L28 25L26 25L26 24L25 24L25 22L28 22L28 23L29 23L29 20L28 20L28 19L29 19L29 17L28 17L28 19L27 19L27 20L26 20L26 21L25 21L25 19L26 19L26 14L27 14L27 15L29 15L29 14L28 14L28 13L29 13L29 11L27 11L27 12L25 12L25 9L26 9L26 10L27 10L27 9L28 9L28 10L29 10L29 9L28 9L28 8L27 8L27 9L26 9L26 8L24 8L24 10L23 10L23 8L18 8L18 9L20 9L20 10L21 10L21 9L22 9L22 10L23 10L23 12L22 12L22 13L21 13L21 12L19 12L19 11L18 11L18 12L17 12L17 8L16 8L16 7L17 7L17 6L18 6L18 7L19 7L19 6L20 6L20 7L21 7L21 6L20 6L20 5L21 5L21 4L20 4L20 3L21 3L21 1L20 1L20 0L17 0L17 2L16 2L16 0L15 0L15 3L13 3L13 5L11 5L11 6L10 6L10 5L9 5L9 4L11 4L11 3L12 3L12 2L13 2L13 1L14 1L14 0L13 0L13 1L12 1L12 0L11 0L11 2L9 2L9 1L10 1L10 0ZM19 1L19 3L20 3L20 1ZM17 2L17 3L16 3L16 4L14 4L14 5L17 5L17 4L18 4L18 2ZM19 4L19 5L20 5L20 4ZM11 6L11 7L12 7L12 6ZM13 6L13 7L14 7L14 8L15 8L15 10L13 10L13 11L12 11L12 12L11 12L11 13L12 13L12 12L13 12L13 13L15 13L15 12L14 12L14 11L15 11L15 10L16 10L16 8L15 8L15 7L16 7L16 6L15 6L15 7L14 7L14 6ZM2 10L2 13L3 13L3 12L4 12L4 13L5 13L5 14L8 14L8 12L9 12L9 11L8 11L8 12L7 12L7 11L6 11L6 10ZM6 12L6 13L7 13L7 12ZM18 12L18 15L19 15L19 12ZM23 12L23 13L22 13L22 14L21 14L21 13L20 13L20 14L21 14L21 15L20 15L20 16L18 16L18 17L19 17L19 18L16 18L16 19L15 19L15 20L16 20L16 21L17 21L17 22L19 22L19 23L18 23L18 24L20 24L20 22L19 22L19 21L20 21L20 20L22 20L22 16L23 16L23 17L24 17L24 19L25 19L25 17L24 17L24 16L23 16L23 15L25 15L25 14L26 14L26 13L25 13L25 14L24 14L24 12ZM9 13L9 17L6 17L6 16L7 16L7 15L6 15L6 16L5 16L5 17L6 17L6 18L8 18L8 19L9 19L9 20L8 20L8 21L9 21L9 20L10 20L10 18L11 18L11 17L12 17L12 16L16 16L16 15L17 15L17 13L16 13L16 15L14 15L14 14L12 14L12 16L11 16L11 17L10 17L10 13ZM1 16L1 17L0 17L0 21L2 21L2 20L3 20L3 21L5 21L5 19L4 19L4 18L3 18L3 16ZM20 16L20 19L21 19L21 16ZM9 17L9 18L10 18L10 17ZM3 19L3 20L4 20L4 19ZM17 19L17 20L18 20L18 21L19 21L19 19ZM21 21L21 24L24 24L24 21ZM22 22L22 23L23 23L23 22ZM11 23L11 25L12 25L12 24L13 24L13 23ZM24 25L24 26L26 26L26 25ZM10 26L10 27L11 27L11 28L12 28L12 26ZM22 27L22 28L23 28L23 27ZM0 0L7 0L7 7L0 7ZM1 1L1 6L6 6L6 1ZM2 2L5 2L5 5L2 5ZM22 0L29 0L29 7L22 7ZM23 1L23 6L28 6L28 1ZM24 2L27 2L27 5L24 5ZM0 22L7 22L7 29L0 29ZM1 23L1 28L6 28L6 23ZM2 24L5 24L5 27L2 27Z" fill="#603b88"/></g></g></svg>
