<?xml version="1.0" encoding="UTF-8"?>
<svg xmlns="http://www.w3.org/2000/svg" version="1.1" width="600" height="600" viewBox="0 0 600 600"><rect x="0" y="0" width="600" height="600" fill="#ffffff"/><g transform="scale(14.634)"><g transform="translate(2,2)"><path fill-rule="evenodd" d="M8 0.25L8 0.75A0.25 0.25 0 0 0 8.25 1L8.75 1A0.25 0.25 0 0 0 9 0.75L9 0.25A0.25 0.25 0 0 0 8.75 0L8.25 0A0.25 0.25 0 0 0 8 0.25ZM10 0.25L10 1.75A0.25 0.25 0 0 0 10.25 2L11.75 2A0.25 0.25 0 0 0 12 1.75L12 1.25A0.25 0.25 0 0 1 12.25 1L14.75 1A0.25 0.25 0 0 0 15 0.75L15 0.25A0.25 0.25 0 0 0 14.75 0L12.25 0A0.25 0.25 0 0 0 12 0.25L12 0.75A0.25 0.25 0 0 1 11.75 1L11.25 1A0.25 0.25 0 0 1 11 0.75L11 0.25A0.25 0.25 0 0 0 10.75 0L10.25 0A0.25 0.25 0 0 0 10 0.25ZM16 0.25L16 1.75A0.25 0.25 0 0 1 15.75 2L13.25 2A0.25 0.25 0 0 0 13 2.25L13 2.75A0.25 0.25 0 0 0 13.25 3L13.75 3A0.25 0.25 0 0 1 14 3.25L14 3.75A0.25 0.25 0 0 0 14.25 4L14.75 4A0.25 0.25 0 0 0 15 3.75L15 3.25A0.25 0.25 0 0 1 15.25 3L15.75 3A0.25 0.25 0 0 1 16 3.25L16 4.75A0.25 0.25 0 0 1 15.75 5L14.25 5A0.25 0.25 0 0 0 14 5.25L14 6.75A0.25 0.25 0 0 1 13.75 7L13.25 7A0.25 0.25 0 0 1 13 6.75L13 6.25A0.25 0.25 0 0 0 12.75 6L12.25 6A0.25 0.25 0 0 0 12 6.25L12 6.75A0.25 0.25 0 0 0 12.25 7L12.75 7A0.25 0.25 0 0 1 13 7.25L13 8.75A0.25 0.25 0 0 0 13.25 9L15.75 9A0.25 0.25 0 0 1 16 9.25L16 10.75A0.25 0.25 0 0 1 15.75 11L15.25 11A0.25 0.25 0 0 1 15 10.75L15 10.25A0.25 0.25 0 0 0 14.75 10L13.25 10A0.25 0.25 0 0 0 13 10.25L13 10.75A0.25 0.25 0 0 1 12.75 11L12.25 11A0.25 0.25 0 0 1 12 10.75L12 10.25A0.25 0.25 0 0 0 11.75 10L11.25 10A0.25 0.25 0 0 1 11 9.75L11 9.25A0.25 0.25 0 0 1 11.25 9L11.75 9A0.25 0.25 0 0 0 12 8.75L12 8.25A0.25 0.25 0 0 0 11.75 8L11.25 8A0.25 0.25 0 0 1 11 7.75L11 5.25A0.25 0.25 0 0 1 11.25 5L11.75 5A0.25 0.25 0 0 0 12 4.75L12 3.25A0.25 0.25 0 0 0 11.75 3L9.25 3A0.25 0.25 0 0 1 9 2.75L9 2.25A0.25 0.25 0 0 0 8.75 2L8.25 2A0.25 0.25 0 0 0 8 2.25L8 2.75A0.25 0.25 0 0 0 8.25 3L8.75 3A0.25 0.25 0 0 1 9 3.25L9 3.75A0.25 0.25 0 0 1 8.75 4L8.25 4A0.25 0.25 0 0 0 8 4.25L8 4.75A0.25 0.25 0 0 0 8.25 5L8.75 5A0.25 0.25 0 0 1 9 5.25L9 5.75A0.25 0.25 0 0 1 8.75 6L8.25 6A0.25 0.25 0 0 0 8 6.25L8 7.75A0.25 0.25 0 0 0 8.25 8L9.75 8A0.25 0.25 0 0 1 10 8.25L10 8.75A0.25 0.25 0 0 1 9.75 9L9.25 9A0.25 0.25 0 0 0 9 9.25L9 9.75A0.25 0.25 0 0 1 8.75 10L8.25 10A0.25 0.25 0 0 1 8 9.75L8 9.25A0.25 0.25 0 0 0 7.75 9L7.25 9A0.25 0.25 0 0 1 7 8.75L7 8.25A0.25 0.25 0 0 0 6.75 8L5.25 8A0.25 0.25 0 0 0 5 8.25L5 8.75A0.25 0.25 0 0 1 4.75 9L3.25 9A0.25 0.25 0 0 0 3 9.25L3 9.75A0.25 0.25 0 0 1 2.75 10L0.25 10A0.25 0.25 0 0 0 0 10.25L0 10.75A0.25 0.25 0 0 0 0.25 11L1.75 11A0.25 0.25 0 0 1 2 11.25L2 11.75A0.25 0.25 0 0 0 2.25 12L3.75 12A0.25 0.25 0 0 1 4 12.25L4 12.75A0.25 0.25 0 0 1 3.75 13L1.25 13A0.25 0.25 0 0 1 1 12.75L1 12.25A0.25 0.25 0 0 0 0.75 12L0.25 12A0.25 0.25 0 0 0 0 12.25L0 12.75A0.25 0.25 0 0 0 0.25 13L0.75 13A0.25 0.25 0 0 1 1 13.25L1 13.75A0.25 0.25 0 0 1 0.75 14L0.25 14A0.25 0.25 0 0 0 0 14.25L0 14.75A0.25 0.25 0 0 0 0.25 15L0.75 15A0.25 0.25 0 0 1 1 15.25L1 15.75A0.25 0.25 0 0 0 1.25 16L1.75 16A0.25 0.25 0 0 1 2 16.25L2 16.75A0.25 0.25 0 0 1 1.75 17L0.25 17A0.25 0.25 0 0 0 0 17.25L0 17.75A0.25 0.25 0 0 0 0.25 18L0.75 18A0.25 0.25 0 0 1 1 18.25L1 19.75A0.25 0.25 0 0 0 1.25 20L2.75 20A0.25 0.25 0 0 1 3 20.25L3 20.75A0.25 0.25 0 0 0 3.25 21L3.75 21A0.25 0.25 0 0 1 4 21.25L4 21.75A0.25 0.25 0 0 0 4.25 22L4.75 22A0.25 0.25 0 0 1 5 22.25L5 22.75A0.25 0.25 0 0 1 4.75 23L4.25 23A0.25 0.25 0 0 0 4 23.25L4 23.75A0.25 0.25 0 0 1 3.75 24L1.25 24A0.25 0.25 0 0 1 1 23.75L1 22.25A0.25 0.25 0 0 1 1.25 22L1.75 22A0.25 0.25 0 0 1 2 22.25L2 22.75A0.25 0.25 0 0 0 2.25 23L2.75 23A0.25 0.25 0 0 0 3 22.75L3 22.25A0.25 0.25 0 0 0 2.75 22L2.25 22A0.25 0.25 0 0 1 2 21.75L2 21.25A0.25 0.25 0 0 0 1.75 21L1.25 21A0.25 0.25 0 0 0 1 21.25L1 21.75A0.25 0.25 0 0 1 0.75 22L0.25 22A0.25 0.25 0 0 0 0 22.25L0 28.75A0.25 0.25 0 0 0 0.25 29L0.75 29A0.25 0.25 0 0 0 1 28.75L1 26.25A0.25 0.25 0 0 1 1.25 26L1.75 26A0.25 0.25 0 0 1 2 26.25L2 28.75A0.25 0.25 0 0 0 2.25 29L7.75 29A0.25 0.25 0 0 1 8 29.25L8 29.75A0.25 0.25 0 0 0 8.25 30L8.75 30A0.25 0.25 0 0 1 9 30.25L9 30.75A0.25 0.25 0 0 1 8.75 31L8.25 31A0.25 0.25 0 0 0 8 31.25L8 31.75A0.25 0.25 0 0 0 8.25 32L8.75 32A0.25 0.25 0 0 0 9 31.75L9 31.25A0.25 0.25 0 0 1 9.25 31L10.75 31A0.25 0.25 0 0 0 11 30.75L11 29.25A0.25 0.25 0 0 1 11.25 29L12.75 29A0.25 0.25 0 0 0 13 28.75L13 27.25A0.25 0.25 0 0 1 13.25 27L13.75 27A0.25 0.25 0 0 0 14 26.75L14 26.25A0.25 0.25 0 0 0 13.75 26L12.25 26A0.25 0.25 0 0 1 12 25.75L12 25.25A0.25 0.25 0 0 0 11.75 25L11.25 25A0.25 0.25 0 0 1 11 24.75L11 23.25A0.25 0.25 0 0 1 11.25 23L11.75 23A0.25 0.25 0 0 1 12 23.25L12 23.75A0.25 0.25 0 0 0 12.25 24L12.75 24A0.25 0.25 0 0 1 13 24.25L13 24.75A0.25 0.25 0 0 0 13.25 25L14.75 25A0.25 0.25 0 0 1 15 25.25L15 25.75A0.25 0.25 0 0 0 15.25 26L17.75 26A0.25 0.25 0 0 1 18 26.25L18 26.75A0.25 0.25 0 0 0 18.25 27L18.75 27A0.25 0.25 0 0 1 19 27.25L19 27.75A0.25 0.25 0 0 1 18.75 28L17.25 28A0.25 0.25 0 0 1 17 27.75L17 27.25A0.25 0.25 0 0 0 16.75 27L15.25 27A0.25 0.25 0 0 0 15 27.25L15 27.75A0.25 0.25 0 0 1 14.75 28L14.25 28A0.25 0.25 0 0 0 14 28.25L14 31.75A0.25 0.25 0 0 0 14.25 32L14.75 32A0.25 0.25 0 0 1 15 32.25L15 33.75A0.25 0.25 0 0 0 15.25 34L15.75 34A0.25 0.25 0 0 1 16 34.25L16 36.75A0.25 0.25 0 0 0 16.25 37L16.75 37A0.25 0.25 0 0 0 17 36.75L17 34.25A0.25 0.25 0 0 1 17.25 34L20.75 34A0.25 0.25 0 0 1 21 34.25L21 34.75A0.25 0.25 0 0 1 20.75 35L18.25 35A0.25 0.25 0 0 0 18 35.25L18 35.75A0.25 0.25 0 0 0 18.25 36L18.75 36A0.25 0.25 0 0 1 19 36.25L19 36.75A0.25 0.25 0 0 0 19.25 37L19.75 37A0.25 0.25 0 0 0 20 36.75L20 36.25A0.25 0.25 0 0 1 20.25 36L20.75 36A0.25 0.25 0 0 1 21 36.25L21 36.75A0.25 0.25 0 0 0 21.25 37L22.75 37A0.25 0.25 0 0 0 23 36.75L23 36.25A0.25 0.25 0 0 1 23.25 36L23.75 36A0.25 0.25 0 0 0 24 35.75L24 35.25A0.25 0.25 0 0 1 24.25 35L25.75 35A0.25 0.25 0 0 1 26 35.25L26 35.75A0.25 0.25 0 0 1 25.75 36L25.25 36A0.25 0.25 0 0 0 25 36.25L25 36.75A0.25 0.25 0 0 0 25.25 37L26.75 37A0.25 0.25 0 0 0 27 36.75L27 35.25A0.25 0.25 0 0 1 27.25 35L28.75 35A0.25 0.25 0 0 0 29 34.75L29 34.25A0.25 0.25 0 0 1 29.25 34L29.75 34A0.25 0.25 0 0 1 30 34.25L30 34.75A0.25 0.25 0 0 0 30.25 35L30.75 35A0.25 0.25 0 0 1 31 35.25L31 35.75A0.25 0.25 0 0 1 30.75 36L28.25 36A0.25 0.25 0 0 0 28 36.25L28 36.75A0.25 0.25 0 0 0 28.25 37L30.75 37A0.25 0.25 0 0 0 31 36.75L31 36.25A0.25 0.25 0 0 1 31.25 36L31.75 36A0.25 0.25 0 0 0 32 35.75L32 35.25A0.25 0.25 0 0 1 32.25 35L32.75 35A0.25 0.25 0 0 0 33 34.75L33 34.25A0.25 0.25 0 0 1 33.25 34L33.75 34A0.25 0.25 0 0 0 34 33.75L34 32.25A0.25 0.25 0 0 1 34.25 32L34.75 32A0.25 0.25 0 0 1 35 32.25L35 33.75A0.25 0.25 0 0 0 35.25 34L35.75 34A0.25 0.25 0 0 1 36 34.25L36 34.75A0.25 0.25 0 0 1 35.75 35L34.25 35A0.25 0.25 0 0 0 34 35.25L34 35.75A0.25 0.25 0 0 1 33.75 36L33.25 36A0.25 0.25 0 0 0 33 36.25L33 36.75A0.25 0.25 0 0 0 33.25 37L34.75 37A0.25 0.25 0 0 0 35 36.75L35 36.25A0.25 0.25 0 0 1 35.25 36L35.75 36A0.25 0.25 0 0 1 36 36.25L36 36.75A0.25 0.25 0 0 0 36.25 37L36.75 37A0.25 0.25 0 0 0 37 36.75L37 36.25A0.25 0.25 0 0 0 36.75 36L36.25 36A0.25 0.25 0 0 1 36 35.75L36 35.25A0.25 0.25 0 0 1 36.25 35L36.75 35A0.25 0.25 0 0 0 37 34.75L37 33.25A0.25 0.25 0 0 0 36.75 33L36.25 33A0.25 0.25 0 0 1 36 32.75L36 32.25A0.25 0.25 0 0 1 36.25 32L36.75 32A0.25 0.25 0 0 0 37 31.75L37 31.25A0.25 0.25 0 0 0 36.75 31L36.25 31A0.25 0.25 0 0 1 36 30.75L36 30.25A0.25 0.25 0 0 1 36.25 30L36.75 30A0.25 0.25 0 0 0 37 29.75L37 29.25A0.25 0.25 0 0 0 36.75 29L36.25 29A0.25 0.25 0 0 1 36 28.75L36 28.25A0.25 0.25 0 0 1 36.25 28L36.75 28A0.25 0.25 0 0 0 37 27.75L37 27.25A0.25 0.25 0 0 0 36.75 27L35.25 27A0.25 0.25 0 0 0 35 27.25L35 27.75A0.25 0.25 0 0 1 34.75 28L32.25 28A0.25 0.25 0 0 1 32 27.75L32 26.25A0.25 0.25 0 0 1 32.25 26L32.75 26A0.25 0.25 0 0 1 33 26.25L33 26.75A0.25 0.25 0 0 0 33.25 27L33.75 27A0.25 0.25 0 0 0 34 26.75L34 26.25A0.25 0.25 0 0 1 34.25 26L36.75 26A0.25 0.25 0 0 0 37 25.75L37 25.25A0.25 0.25 0 0 0 36.75 25L36.25 25A0.25 0.25 0 0 1 36 24.75L36 24.25A0.25 0.25 0 0 0 35.75 24L33.25 24A0.25 0.25 0 0 1 33 23.75L33 23.25A0.25 0.25 0 0 1 33.25 23L34.75 23A0.25 0.25 0 0 0 35 22.75L35 21.25A0.25 0.25 0 0 0 34.75 21L34.25 21A0.25 0.25 0 0 1 34 20.75L34 20.25A0.25 0.25 0 0 0 33.75 20L33.25 20A0.25 0.25 0 0 1 33 19.75L33 19.25A0.25 0.25 0 0 1 33.25 19L33.75 19A0.25 0.25 0 0 0 34 18.75L34 18.25A0.25 0.25 0 0 0 33.75 18L33.25 18A0.25 0.25 0 0 0 33 18.25L33 18.75A0.25 0.25 0 0 1 32.75 19L32.25 19A0.25 0.25 0 0 1 32 18.75L32 17.25A0.25 0.25 0 0 1 32.25 17L33.75 17A0.25 0.25 0 0 0 34 16.75L34 16.25A0.25 0.25 0 0 1 34.25 16L34.75 16A0.25 0.25 0 0 0 35 15.75L35 15.25A0.25 0.25 0 0 1 35.25 15L35.75 15A0.25 0.25 0 0 1 36 15.25L36 15.75A0.25 0.25 0 0 0 36.25 16L36.75 16A0.25 0.25 0 0 0 37 15.75L37 14.25A0.25 0.25 0 0 0 36.75 14L36.25 14A0.25 0.25 0 0 1 36 13.75L36 12.25A0.25 0.25 0 0 1 36.25 12L36.75 12A0.25 0.25 0 0 0 37 11.75L37 10.25A0.25 0.25 0 0 0 36.75 10L36.25 10A0.25 0.25 0 0 1 36 9.75L36 9.25A0.25 0.25 0 0 1 36.25 9L36.75 9A0.25 0.25 0 0 0 37 8.75L37 8.25A0.25 0.25 0 0 0 36.75 8L36.25 8A0.25 0.25 0 0 0 36 8.25L36 8.75A0.25 0.25 0 0 1 35.75 9L35.25 9A0.25 0.25 0 0 1 35 8.75L35 8.25A0.25 0.25 0 0 0 34.75 8L34.25 8A0.25 0.25 0 0 0 34 8.25L34 8.75A0.25 0.25 0 0 1 33.75 9L33.25 9A0.25 0.25 0 0 1 33 8.75L33 8.25A0.25 0.25 0 0 0 32.75 8L32.25 8A0.25 0.25 0 0 0 32 8.25L32 8.75A0.25 0.25 0 0 1 31.75 9L31.25 9A0.25 0.25 0 0 1 31 8.75L31 8.25A0.25 0.25 0 0 0 30.75 8L30.25 8A0.25 0.25 0 0 0 30 8.25L30 8.75A0.25 0.25 0 0 1 29.75 9L29.25 9A0.25 0.25 0 0 1 29 8.75L29 8.25A0.25 0.25 0 0 0 28.75 8L28.25 8A0.25 0.25 0 0 1 28 7.75L28 7.25A0.25 0.25 0 0 1 28.25 7L28.75 7A0.25 0.25 0 0 0 29 6.75L29 5.25A0.25 0.25 0 0 0 28.75 5L28.25 5A0.25 0.25 0 0 1 28 4.75L28 2.25A0.25 0.25 0 0 0 27.75 2L26.25 2A0.25 0.25 0 0 1 26 1.75L26 1.25A0.25 0.25 0 0 1 26.25 1L27.75 1A0.25 0.25 0 0 0 28 0.75L28 0.25A0.25 0.25 0 0 0 27.75 0L26.25 0A0.25 0.25 0 0 0 26 0.25L26 0.75A0.25 0.25 0 0 1 25.75 1L25.25 1A0.25 0.25 0 0 1 25 0.75L25 0.25A0.25 0.25 0 0 0 24.75 0L24.25 0A0.25 0.25 0 0 0 24 0.25L24 0.75A0.25 0.25 0 0 1 23.75 1L22.25 1A0.25 0.25 0 0 1 22 0.75L22 0.25A0.25 0.25 0 0 0 21.75 0L21.25 0A0.25 0.25 0 0 0 21 0.25L21 0.75A0.25 0.25 0 0 1 20.75 1L20.25 1A0.25 0.25 0 0 0 20 1.25L20 1.75A0.25 0.25 0 0 1 19.75 2L19.25 2A0.25 0.25 0 0 1 19 1.75L19 0.25A0.25 0.25 0 0 0 18.75 0L18.25 0A0.25 0.25 0 0 0 18 0.25L18 0.75A0.25 0.25 0 0 1 17.75 1L17.25 1A0.25 0.25 0 0 1 17 0.75L17 0.25A0.25 0.25 0 0 0 16.75 0L16.25 0A0.25 0.25 0 0 0 16 0.25ZM21 1.25L21 1.75A0.25 0.25 0 0 1 20.75 2L20.25 2A0.25 0.25 0 0 0 20 2.25L20 2.75A0.25 0.25 0 0 0 20.25 3L20.75 3A0.25 0.25 0 0 1 21 3.25L21 6.75A0.25 0.25 0 0 1 20.75 7L20.25 7A0.25 0.25 0 0 1 20 6.75L20 4.25A0.25 0.25 0 0 0 19.75 4L19.25 4A0.25 0.25 0 0 1 19 3.75L19 2.25A0.25 0.25 0 0 0 18.75 2L16.25 2A0.25 0.25 0 0 0 16 2.25L16 2.75A0.25 0.25 0 0 0 16.25 3L16.75 3A0.25 0.25 0 0 1 17 3.25L17 6.75A0.25 0.25 0 0 1 16.75 7L16.25 7A0.25 0.25 0 0 1 16 6.75L16 6.25A0.25 0.25 0 0 0 15.75 6L15.25 6A0.25 0.25 0 0 0 15 6.25L15 6.75A0.25 0.25 0 0 1 14.75 7L14.25 7A0.25 0.25 0 0 0 14 7.25L14 7.75A0.25 0.25 0 0 0 14.25 8L16.75 8A0.25 0.25 0 0 1 17 8.25L17 8.75A0.25 0.25 0 0 0 17.25 9L18.75 9A0.25 0.25 0 0 1 19 9.25L19 10.75A0.25 0.25 0 0 1 18.75 11L17.25 11A0.25 0.25 0 0 0 17 11.25L17 11.75A0.25 0.25 0 0 1 16.75 12L15.25 12A0.25 0.25 0 0 1 15 11.75L15 11.25A0.25 0.25 0 0 0 14.75 11L14.25 11A0.25 0.25 0 0 0 14 11.25L14 11.75A0.25 0.25 0 0 1 13.75 12L13.25 12A0.25 0.25 0 0 0 13 12.25L13 13.75A0.25 0.25 0 0 1 12.75 14L10.25 14A0.25 0.25 0 0 0 10 14.25L10 14.75A0.25 0.25 0 0 0 10.25 15L12.75 15A0.25 0.25 0 0 0 13 14.75L13 14.25A0.25 0.25 0 0 1 13.25 14L14.75 14A0.25 0.25 0 0 1 15 14.25L15 14.75A0.25 0.25 0 0 1 14.75 15L14.25 15A0.25 0.25 0 0 0 14 15.25L14 15.75A0.25 0.25 0 0 1 13.75 16L13.25 16A0.25 0.25 0 0 0 13 16.25L13 16.75A0.25 0.25 0 0 0 13.25 17L13.75 17A0.25 0.25 0 0 1 14 17.25L14 18.75A0.25 0.25 0 0 1 13.75 19L13.25 19A0.25 0.25 0 0 1 13 18.75L13 18.25A0.25 0.25 0 0 0 12.75 18L12.25 18A0.25 0.25 0 0 1 12 17.75L12 16.25A0.25 0.25 0 0 0 11.75 16L11.25 16A0.25 0.25 0 0 0 11 16.25L11 16.75A0.25 0.25 0 0 1 10.75 17L10.25 17A0.25 0.25 0 0 0 10 17.25L10 18.75A0.25 0.25 0 0 1 9.75 19L9.25 19A0.25 0.25 0 0 1 9 18.75L9 18.25A0.25 0.25 0 0 0 8.75 18L8.25 18A0.25 0.25 0 0 0 8 18.25L8 18.75A0.25 0.25 0 0 0 8.25 19L8.75 19A0.25 0.25 0 0 1 9 19.25L9 19.75A0.25 0.25 0 0 1 8.75 20L8.25 20A0.25 0.25 0 0 0 8 20.25L8 20.75A0.25 0.25 0 0 1 7.75 21L6.25 21A0.25 0.25 0 0 1 6 20.75L6 20.25A0.25 0.25 0 0 1 6.25 20L6.75 20A0.25 0.25 0 0 0 7 19.75L7 19.25A0.25 0.25 0 0 0 6.75 19L5.25 19A0.25 0.25 0 0 1 5 18.75L5 17.25A0.25 0.25 0 0 1 5.25 17L5.75 17A0.25 0.25 0 0 1 6 17.25L6 17.75A0.25 0.25 0 0 0 6.25 18L6.75 18A0.25 0.25 0 0 0 7 17.75L7 17.25A0.25 0.25 0 0 1 7.25 17L8.75 17A0.25 0.25 0 0 0 9 16.75L9 16.25A0.25 0.25 0 0 0 8.75 16L8.25 16A0.25 0.25 0 0 1 8 15.75L8 13.25A0.25 0.25 0 0 0 7.75 13L6.25 13A0.25 0.25 0 0 1 6 12.75L6 12.25A0.25 0.25 0 0 1 6.25 12L6.75 12A0.25 0.25 0 0 0 7 11.75L7 11.25A0.25 0.25 0 0 1 7.25 11L7.75 11A0.25 0.25 0 0 0 8 10.75L8 10.25A0.25 0.25 0 0 0 7.75 10L7.25 10A0.25 0.25 0 0 1 7 9.75L7 9.25A0.25 0.25 0 0 0 6.75 9L6.25 9A0.25 0.25 0 0 0 6 9.25L6 9.75A0.25 0.25 0 0 1 5.75 10L4.25 10A0.25 0.25 0 0 0 4 10.25L4 11.75A0.25 0.25 0 0 0 4.25 12L4.75 12A0.25 0.25 0 0 1 5 12.25L5 12.75A0.25 0.25 0 0 1 4.75 13L4.25 13A0.25 0.25 0 0 0 4 13.25L4 13.75A0.25 0.25 0 0 0 4.25 14L4.75 14A0.25 0.25 0 0 1 5 14.25L5 14.75A0.25 0.25 0 0 1 4.75 15L3.25 15A0.25 0.25 0 0 1 3 14.75L3 14.25A0.25 0.25 0 0 0 2.75 14L2.25 14A0.25 0.25 0 0 0 2 14.25L2 15.75A0.25 0.25 0 0 0 2.25 16L4.75 16A0.25 0.25 0 0 1 5 16.25L5 16.75A0.25 0.25 0 0 1 4.75 17L4.25 17A0.25 0.25 0 0 0 4 17.25L4 18.75A0.25 0.25 0 0 1 3.75 19L3.25 19A0.25 0.25 0 0 1 3 18.75L3 18.25A0.25 0.25 0 0 0 2.75 18L2.25 18A0.25 0.25 0 0 0 2 18.25L2 18.75A0.25 0.25 0 0 0 2.25 19L2.75 19A0.25 0.25 0 0 1 3 19.25L3 19.75A0.25 0.25 0 0 0 3.25 20L3.75 20A0.25 0.25 0 0 0 4 19.75L4 19.25A0.25 0.25 0 0 1 4.25 19L4.75 19A0.25 0.25 0 0 1 5 19.25L5 20.75A0.25 0.25 0 0 0 5.25 21L5.75 21A0.25 0.25 0 0 1 6 21.25L6 21.75A0.25 0.25 0 0 0 6.25 22L6.75 22A0.25 0.25 0 0 1 7 22.25L7 22.75A0.25 0.25 0 0 1 6.75 23L5.25 23A0.25 0.25 0 0 0 5 23.25L5 23.75A0.25 0.25 0 0 1 4.75 24L4.25 24A0.25 0.25 0 0 0 4 24.25L4 24.75A0.25 0.25 0 0 0 4.25 25L4.75 25A0.25 0.25 0 0 0 5 24.75L5 24.25A0.25 0.25 0 0 1 5.25 24L6.75 24A0.25 0.25 0 0 1 7 24.25L7 24.75A0.25 0.25 0 0 1 6.75 25L6.25 25A0.25 0.25 0 0 0 6 25.25L6 25.75A0.25 0.25 0 0 1 5.75 26L5.25 26A0.25 0.25 0 0 0 5 26.25L5 27.75A0.25 0.25 0 0 0 5.25 28L7.75 28A0.25 0.25 0 0 1 8 28.25L8 28.75A0.25 0.25 0 0 0 8.25 29L8.75 29A0.25 0.25 0 0 1 9 29.25L9 29.75A0.25 0.25 0 0 0 9.25 30L9.75 30A0.25 0.25 0 0 0 10 29.75L10 29.25A0.25 0.25 0 0 1 10.25 29L10.75 29A0.25 0.25 0 0 0 11 28.75L11 27.25A0.25 0.25 0 0 1 11.25 27L11.75 27A0.25 0.25 0 0 0 12 26.75L12 26.25A0.25 0.25 0 0 0 11.75 26L11.25 26A0.25 0.25 0 0 1 11 25.75L11 25.25A0.25 0.25 0 0 0 10.75 25L10.25 25A0.25 0.25 0 0 1 10 24.75L10 24.25A0.25 0.25 0 0 0 9.75 24L8.25 24A0.25 0.25 0 0 1 8 23.75L8 23.25A0.25 0.25 0 0 1 8.25 23L8.75 23A0.25 0.25 0 0 0 9 22.75L9 22.25A0.25 0.25 0 0 0 8.75 22L8.25 22A0.25 0.25 0 0 1 8 21.75L8 21.25A0.25 0.25 0 0 1 8.25 21L9.75 21A0.25 0.25 0 0 1 10 21.25L10 21.75A0.25 0.25 0 0 0 10.25 22L10.75 22A0.25 0.25 0 0 0 11 21.75L11 21.25A0.25 0.25 0 0 1 11.25 21L11.75 21A0.25 0.25 0 0 1 12 21.25L12 22.75A0.25 0.25 0 0 0 12.25 23L12.75 23A0.25 0.25 0 0 1 13 23.25L13 23.75A0.25 0.25 0 0 0 13.25 24L13.75 24A0.25 0.25 0 0 0 14 23.75L14 23.25A0.25 0.25 0 0 0 13.75 23L13.25 23A0.25 0.25 0 0 1 13 22.75L13 20.25A0.25 0.25 0 0 1 13.25 20L13.75 20A0.25 0.25 0 0 0 14 19.75L14 19.25A0.25 0.25 0 0 1 14.25 19L14.75 19A0.25 0.25 0 0 1 15 19.25L15 20.75A0.25 0.25 0 0 1 14.75 21L14.25 21A0.25 0.25 0 0 0 14 21.25L14 21.75A0.25 0.25 0 0 0 14.25 22L15.75 22A0.25 0.25 0 0 0 16 21.75L16 21.25A0.25 0.25 0 0 1 16.25 21L18.75 21A0.25 0.25 0 0 1 19 21.25L19 22.75A0.25 0.25 0 0 0 19.25 23L19.75 23A0.25 0.25 0 0 0 20 22.75L20 22.25A0.25 0.25 0 0 1 20.25 22L21.75 22A0.25 0.25 0 0 1 22 22.25L22 22.75A0.25 0.25 0 0 1 21.75 23L21.25 23A0.25 0.25 0 0 0 21 23.25L21 23.75A0.25 0.25 0 0 1 20.75 24L20.25 24A0.25 0.25 0 0 0 20 24.25L20 24.75A0.25 0.25 0 0 0 20.25 25L21.75 25A0.25 0.25 0 0 1 22 25.25L22 26.75A0.25 0.25 0 0 1 21.75 27L21.25 27A0.25 0.25 0 0 1 21 26.75L21 26.25A0.25 0.25 0 0 0 20.75 26L19.25 26A0.25 0.25 0 0 0 19 26.25L19 26.75A0.25 0.25 0 0 0 19.25 27L19.75 27A0.25 0.25 0 0 1 20 27.25L20 27.75A0.25 0.25 0 0 1 19.75 28L19.25 28A0.25 0.25 0 0 0 19 28.25L19 28.75A0.25 0.25 0 0 1 18.75 29L18.25 29A0.25 0.25 0 0 0 18 29.25L18 30.75A0.25 0.25 0 0 1 17.75 31L17.25 31A0.25 0.25 0 0 1 17 30.75L17 28.25A0.25 0.25 0 0 0 16.75 28L16.25 28A0.25 0.25 0 0 0 16 28.25L16 28.75A0.25 0.25 0 0 1 15.75 29L15.25 29A0.25 0.25 0 0 0 15 29.25L15 29.75A0.25 0.25 0 0 0 15.25 30L15.75 30A0.25 0.25 0 0 1 16 30.25L16 30.75A0.25 0.25 0 0 0 16.25 31L16.75 31A0.25 0.25 0 0 1 17 31.25L17 32.75A0.25 0.25 0 0 1 16.75 33L16.25 33A0.25 0.25 0 0 0 16 33.25L16 33.75A0.25 0.25 0 0 0 16.25 34L16.75 34A0.25 0.25 0 0 0 17 33.75L17 33.25A0.25 0.25 0 0 1 17.25 33L18.75 33A0.25 0.25 0 0 0 19 32.75L19 30.25A0.25 0.25 0 0 1 19.25 30L19.75 30A0.25 0.25 0 0 1 20 30.25L20 30.75A0.25 0.25 0 0 0 20.25 31L20.75 31A0.25 0.25 0 0 0 21 30.75L21 30.25A0.25 0.25 0 0 0 20.75 30L20.25 30A0.25 0.25 0 0 1 20 29.75L20 29.25A0.25 0.25 0 0 1 20.25 29L22.75 29A0.25 0.25 0 0 1 23 29.25L23 29.75A0.25 0.25 0 0 1 22.75 30L22.25 30A0.25 0.25 0 0 0 22 30.25L22 30.75A0.25 0.25 0 0 0 22.25 31L22.75 31A0.25 0.25 0 0 1 23 31.25L23 31.75A0.25 0.25 0 0 0 23.25 32L24.75 32A0.25 0.25 0 0 0 25 31.75L25 31.25A0.25 0.25 0 0 1 25.25 31L25.75 31A0.25 0.25 0 0 0 26 30.75L26 30.25A0.25 0.25 0 0 1 26.25 30L27.75 30A0.25 0.25 0 0 0 28 29.75L28 28.25A0.25 0.25 0 0 1 28.25 28L30.75 28A0.25 0.25 0 0 0 31 27.75L31 26.25A0.25 0.25 0 0 1 31.25 26L31.75 26A0.25 0.25 0 0 0 32 25.75L32 22.25A0.25 0.25 0 0 1 32.25 22L33.75 22A0.25 0.25 0 0 0 34 21.75L34 21.25A0.25 0.25 0 0 0 33.75 21L32.25 21A0.25 0.25 0 0 1 32 20.75L32 19.25A0.25 0.25 0 0 0 31.75 19L31.25 19A0.25 0.25 0 0 1 31 18.75L31 18.25A0.25 0.25 0 0 0 30.75 18L29.25 18A0.25 0.25 0 0 1 29 17.75L29 17.25A0.25 0.25 0 0 1 29.25 17L30.75 17A0.25 0.25 0 0 0 31 16.75L31 16.25A0.25 0.25 0 0 1 31.25 16L32.75 16A0.25 0.25 0 0 0 33 15.75L33 15.25A0.25 0.25 0 0 0 32.75 15L32.25 15A0.25 0.25 0 0 1 32 14.75L32 14.25A0.25 0.25 0 0 1 32.25 14L34.75 14A0.25 0.25 0 0 0 35 13.75L35 13.25A0.25 0.25 0 0 0 34.75 13L34.25 13A0.25 0.25 0 0 1 34 12.75L34 11.25A0.25 0.25 0 0 1 34.25 11L34.75 11A0.25 0.25 0 0 1 35 11.25L35 11.75A0.25 0.25 0 0 0 35.25 12L35.75 12A0.25 0.25 0 0 0 36 11.75L36 11.25A0.25 0.25 0 0 0 35.75 11L35.25 11A0.25 0.25 0 0 1 35 10.75L35 9.25A0.25 0.25 0 0 0 34.75 9L34.25 9A0.25 0.25 0 0 0 34 9.25L34 9.75A0.25 0.25 0 0 1 33.75 10L31.25 10A0.25 0.25 0 0 1 31 9.75L31 9.25A0.25 0.25 0 0 0 30.75 9L30.25 9A0.25 0.25 0 0 0 30 9.25L30 10.75A0.25 0.25 0 0 0 30.25 11L30.75 11A0.25 0.25 0 0 1 31 11.25L31 11.75A0.25 0.25 0 0 1 30.75 12L30.25 12A0.25 0.25 0 0 0 30 12.25L30 12.75A0.25 0.25 0 0 1 29.75 13L26.25 13A0.25 0.25 0 0 0 26 13.25L26 13.75A0.25 0.25 0 0 1 25.75 14L25.25 14A0.25 0.25 0 0 1 25 13.75L25 13.25A0.25 0.25 0 0 0 24.75 13L24.25 13A0.25 0.25 0 0 0 24 13.25L24 13.75A0.25 0.25 0 0 1 23.75 14L22.25 14A0.25 0.25 0 0 1 22 13.75L22 13.25A0.25 0.25 0 0 1 22.25 13L22.75 13A0.25 0.25 0 0 0 23 12.75L23 11.25A0.25 0.25 0 0 1 23.25 11L23.75 11A0.25 0.25 0 0 0 24 10.75L24 10.25A0.25 0.25 0 0 1 24.25 10L24.75 10A0.25 0.25 0 0 1 25 10.25L25 10.75A0.25 0.25 0 0 0 25.25 11L25.75 11A0.25 0.25 0 0 0 26 10.75L26 10.25A0.25 0.25 0 0 0 25.75 10L25.25 10A0.25 0.25 0 0 1 25 9.75L25 9.25A0.25 0.25 0 0 1 25.25 9L25.75 9A0.25 0.25 0 0 0 26 8.75L26 8.25A0.25 0.25 0 0 1 26.25 8L26.75 8A0.25 0.25 0 0 1 27 8.25L27 9.75A0.25 0.25 0 0 0 27.25 10L27.75 10A0.25 0.25 0 0 0 28 9.75L28 8.25A0.25 0.25 0 0 0 27.75 8L27.25 8A0.25 0.25 0 0 1 27 7.75L27 7.25A0.25 0.25 0 0 1 27.25 7L27.75 7A0.25 0.25 0 0 0 28 6.75L28 5.25A0.25 0.25 0 0 0 27.75 5L27.25 5A0.25 0.25 0 0 0 27 5.25L27 6.75A0.25 0.25 0 0 1 26.75 7L26.25 7A0.25 0.25 0 0 1 26 6.75L26 6.25A0.25 0.25 0 0 0 25.75 6L25.25 6A0.25 0.25 0 0 0 25 6.25L25 6.75A0.25 0.25 0 0 0 25.25 7L25.75 7A0.25 0.25 0 0 1 26 7.25L26 7.75A0.25 0.25 0 0 1 25.75 8L23.25 8A0.25 0.25 0 0 1 23 7.75L23 7.25A0.25 0.25 0 0 1 23.25 7L23.75 7A0.25 0.25 0 0 0 24 6.75L24 5.25A0.25 0.25 0 0 0 23.75 5L23.25 5A0.25 0.25 0 0 1 23 4.75L23 3.25A0.25 0.25 0 0 0 22.75 3L21.25 3A0.25 0.25 0 0 1 21 2.75L21 2.25A0.25 0.25 0 0 1 21.25 2L21.75 2A0.25 0.25 0 0 0 22 1.75L22 1.25A0.25 0.25 0 0 0 21.75 1L21.25 1A0.25 0.25 0 0 0 21 1.25ZM24 1.25L24 1.75A0.25 0.25 0 0 0 24.25 2L24.75 2A0.25 0.25 0 0 0 25 1.75L25 1.25A0.25 0.25 0 0 0 24.75 1L24.25 1A0.25 0.25 0 0 0 24 1.25ZM25 3.25L25 3.75A0.25 0.25 0 0 0 25.25 4L25.75 4A0.25 0.25 0 0 0 26 3.75L26 3.25A0.25 0.25 0 0 0 25.75 3L25.25 3A0.25 0.25 0 0 0 25 3.25ZM18 4.25L18 7.75A0.25 0.25 0 0 0 18.25 8L18.75 8A0.25 0.25 0 0 1 19 8.25L19 8.75A0.25 0.25 0 0 0 19.25 9L19.75 9A0.25 0.25 0 0 1 20 9.25L20 11.75A0.25 0.25 0 0 0 20.25 12L20.75 12A0.25 0.25 0 0 0 21 11.75L21 11.25A0.25 0.25 0 0 1 21.25 11L22.75 11A0.25 0.25 0 0 0 23 10.75L23 10.25A0.25 0.25 0 0 1 23.25 10L23.75 10A0.25 0.25 0 0 0 24 9.75L24 9.25A0.25 0.25 0 0 0 23.75 9L23.25 9A0.25 0.25 0 0 1 23 8.75L23 8.25A0.25 0.25 0 0 0 22.75 8L22.25 8A0.25 0.25 0 0 0 22 8.25L22 8.75A0.25 0.25 0 0 1 21.75 9L20.25 9A0.25 0.25 0 0 1 20 8.75L20 7.25A0.25 0.25 0 0 0 19.75 7L19.25 7A0.25 0.25 0 0 1 19 6.75L19 4.25A0.25 0.25 0 0 0 18.75 4L18.25 4A0.25 0.25 0 0 0 18 4.25ZM9 6.25L9 6.75A0.25 0.25 0 0 0 9.25 7L9.75 7A0.25 0.25 0 0 0 10 6.75L10 6.25A0.25 0.25 0 0 0 9.75 6L9.25 6A0.25 0.25 0 0 0 9 6.25ZM22 6.25L22 6.75A0.25 0.25 0 0 0 22.25 7L22.75 7A0.25 0.25 0 0 0 23 6.75L23 6.25A0.25 0.25 0 0 0 22.75 6L22.25 6A0.25 0.25 0 0 0 22 6.25ZM22 9.25L22 9.75A0.25 0.25 0 0 0 22.25 10L22.75 10A0.25 0.25 0 0 0 23 9.75L23 9.25A0.25 0.25 0 0 0 22.75 9L22.25 9A0.25 0.25 0 0 0 22 9.25ZM6 10.25L6 10.75A0.25 0.25 0 0 1 5.75 11L5.25 11A0.25 0.25 0 0 0 5 11.25L5 11.75A0.25 0.25 0 0 0 5.25 12L5.75 12A0.25 0.25 0 0 0 6 11.75L6 11.25A0.25 0.25 0 0 1 6.25 11L6.75 11A0.25 0.25 0 0 0 7 10.75L7 10.25A0.25 0.25 0 0 0 6.75 10L6.25 10A0.25 0.25 0 0 0 6 10.25ZM10 11.25L10 11.75A0.25 0.25 0 0 1 9.75 12L9.25 12A0.25 0.25 0 0 0 9 12.25L9 12.75A0.25 0.25 0 0 0 9.25 13L9.75 13A0.25 0.25 0 0 0 10 12.75L10 12.25A0.25 0.25 0 0 1 10.25 12L11.75 12A0.25 0.25 0 0 0 12 11.75L12 11.25A0.25 0.25 0 0 0 11.75 11L10.25 11A0.25 0.25 0 0 0 10 11.25ZM27 11.25L27 11.75A0.25 0.25 0 0 0 27.25 12L28.75 12A0.25 0.25 0 0 0 29 11.75L29 11.25A0.25 0.25 0 0 0 28.75 11L27.25 11A0.25 0.25 0 0 0 27 11.25ZM32 11.25L32 11.75A0.25 0.25 0 0 0 32.25 12L32.75 12A0.25 0.25 0 0 0 33 11.75L33 11.25A0.25 0.25 0 0 0 32.75 11L32.25 11A0.25 0.25 0 0 0 32 11.25ZM14 12.25L14 12.75A0.25 0.25 0 0 0 14.25 13L14.75 13A0.25 0.25 0 0 0 15 12.75L15 12.25A0.25 0.25 0 0 0 14.75 12L14.25 12A0.25 0.25 0 0 0 14 12.25ZM17 12.25L17 12.75A0.25 0.25 0 0 1 16.75 13L16.25 13A0.25 0.25 0 0 0 16 13.25L16 14.75A0.25 0.25 0 0 0 16.25 15L16.75 15A0.25 0.25 0 0 1 17 15.25L17 15.75A0.25 0.25 0 0 1 16.75 16L14.25 16A0.25 0.25 0 0 0 14 16.25L14 16.75A0.25 0.25 0 0 0 14.25 17L15.75 17A0.25 0.25 0 0 1 16 17.25L16 17.75A0.25 0.25 0 0 0 16.25 18L18.75 18A0.25 0.25 0 0 0 19 17.75L19 17.25A0.25 0.25 0 0 1 19.25 17L19.75 17A0.25 0.25 0 0 1 20 17.25L20 18.75A0.25 0.25 0 0 1 19.75 19L16.25 19A0.25 0.25 0 0 0 16 19.25L16 19.75A0.25 0.25 0 0 0 16.25 20L19.75 20A0.25 0.25 0 0 1 20 20.25L20 20.75A0.25 0.25 0 0 0 20.25 21L21.75 21A0.25 0.25 0 0 0 22 20.75L22 18.25A0.25 0.25 0 0 1 22.25 18L22.75 18A0.25 0.25 0 0 1 23 18.25L23 18.75A0.25 0.25 0 0 0 23.25 19L23.75 19A0.25 0.25 0 0 0 24 18.75L24 18.25A0.25 0.25 0 0 0 23.75 18L23.25 18A0.25 0.25 0 0 1 23 17.75L23 16.25A0.25 0.25 0 0 1 23.25 16L23.75 16A0.25 0.25 0 0 1 24 16.25L24 16.75A0.25 0.25 0 0 0 24.25 17L24.75 17A0.25 0.25 0 0 1 25 17.25L25 19.75A0.25 0.25 0 0 1 24.75 20L24.25 20A0.25 0.25 0 0 0 24 20.25L24 20.75A0.25 0.25 0 0 1 23.75 21L23.25 21A0.25 0.25 0 0 0 23 21.25L23 22.75A0.25 0.25 0 0 0 23.25 23L23.75 23A0.25 0.25 0 0 1 24 23.25L24 23.75A0.25 0.25 0 0 1 23.75 24L22.25 24A0.25 0.25 0 0 0 22 24.25L22 24.75A0.25 0.25 0 0 0 22.25 25L23.75 25A0.25 0.25 0 0 1 24 25.25L24 25.75A0.25 0.25 0 0 0 24.25 26L24.75 26A0.25 0.25 0 0 1 25 26.25L25 26.75A0.25 0.25 0 0 1 24.75 27L24.25 27A0.25 0.25 0 0 0 24 27.25L24 29.75A0.25 0.25 0 0 0 24.25 30L25.75 30A0.25 0.25 0 0 0 26 29.75L26 29.25A0.25 0.25 0 0 0 25.75 29L25.25 29A0.25 0.25 0 0 1 25 28.75L25 28.25A0.25 0.25 0 0 1 25.25 28L27.75 28A0.25 0.25 0 0 0 28 27.75L28 27.25A0.25 0.25 0 0 0 27.75 27L26.25 27A0.25 0.25 0 0 1 26 26.75L26 26.25A0.25 0.25 0 0 1 26.25 26L26.75 26A0.25 0.25 0 0 0 27 25.75L27 23.25A0.25 0.25 0 0 0 26.75 23L26.25 23A0.25 0.25 0 0 0 26 23.25L26 23.75A0.25 0.25 0 0 1 25.75 24L25.25 24A0.25 0.25 0 0 1 25 23.75L25 23.25A0.25 0.25 0 0 0 24.75 23L24.25 23A0.25 0.25 0 0 1 24 22.75L24 22.25A0.25 0.25 0 0 1 24.25 22L24.75 22A0.25 0.25 0 0 0 25 21.75L25 20.25A0.25 0.25 0 0 1 25.25 20L26.75 20A0.25 0.25 0 0 0 27 19.75L27 19.25A0.25 0.25 0 0 0 26.75 19L26.25 19A0.25 0.25 0 0 1 26 18.75L26 17.25A0.25 0.25 0 0 0 25.75 17L25.25 17A0.25 0.25 0 0 1 25 16.75L25 16.25A0.25 0.25 0 0 1 25.25 16L25.75 16A0.25 0.25 0 0 0 26 15.75L26 15.25A0.25 0.25 0 0 1 26.25 15L26.75 15A0.25 0.25 0 0 0 27 14.75L27 14.25A0.25 0.25 0 0 0 26.75 14L26.25 14A0.25 0.25 0 0 0 26 14.25L26 14.75A0.25 0.25 0 0 1 25.75 15L23.25 15A0.25 0.25 0 0 0 23 15.25L23 15.75A0.25 0.25 0 0 1 22.75 16L21.25 16A0.25 0.25 0 0 0 21 16.25L21 16.75A0.25 0.25 0 0 1 20.75 17L20.25 17A0.25 0.25 0 0 1 20 16.75L20 16.25A0.25 0.25 0 0 0 19.75 16L19.25 16A0.25 0.25 0 0 0 19 16.25L19 16.75A0.25 0.25 0 0 1 18.75 17L17.25 17A0.25 0.25 0 0 1 17 16.75L17 16.25A0.25 0.25 0 0 1 17.25 16L17.75 16A0.25 0.25 0 0 0 18 15.75L18 15.25A0.25 0.25 0 0 1 18.25 15L18.75 15A0.25 0.25 0 0 0 19 14.75L19 14.25A0.25 0.25 0 0 1 19.25 14L19.75 14A0.25 0.25 0 0 0 20 13.75L20 13.25A0.25 0.25 0 0 0 19.75 13L19.25 13A0.25 0.25 0 0 0 19 13.25L19 13.75A0.25 0.25 0 0 1 18.75 14L18.25 14A0.25 0.25 0 0 1 18 13.75L18 12.25A0.25 0.25 0 0 0 17.75 12L17.25 12A0.25 0.25 0 0 0 17 12.25ZM30 13.25L30 13.75A0.25 0.25 0 0 1 29.75 14L28.25 14A0.25 0.25 0 0 0 28 14.25L28 14.75A0.25 0.25 0 0 0 28.25 15L28.75 15A0.25 0.25 0 0 1 29 15.25L29 15.75A0.25 0.25 0 0 1 28.75 16L28.25 16A0.25 0.25 0 0 0 28 16.25L28 16.75A0.25 0.25 0 0 0 28.25 17L28.75 17A0.25 0.25 0 0 0 29 16.75L29 16.25A0.25 0.25 0 0 1 29.25 16L30.75 16A0.25 0.25 0 0 0 31 15.75L31 15.25A0.25 0.25 0 0 0 30.75 15L30.25 15A0.25 0.25 0 0 1 30 14.75L30 14.25A0.25 0.25 0 0 1 30.25 14L31.75 14A0.25 0.25 0 0 0 32 13.75L32 13.25A0.25 0.25 0 0 0 31.75 13L30.25 13A0.25 0.25 0 0 0 30 13.25ZM6 14.25L6 14.75A0.25 0.25 0 0 0 6.25 15L6.75 15A0.25 0.25 0 0 0 7 14.75L7 14.25A0.25 0.25 0 0 0 6.75 14L6.25 14A0.25 0.25 0 0 0 6 14.25ZM17 14.25L17 14.75A0.25 0.25 0 0 0 17.25 15L17.75 15A0.25 0.25 0 0 0 18 14.75L18 14.25A0.25 0.25 0 0 0 17.75 14L17.25 14A0.25 0.25 0 0 0 17 14.25ZM21 14.25L21 14.75A0.25 0.25 0 0 0 21.25 15L21.75 15A0.25 0.25 0 0 0 22 14.75L22 14.25A0.25 0.25 0 0 0 21.75 14L21.25 14A0.25 0.25 0 0 0 21 14.25ZM6 16.25L6 16.75A0.25 0.25 0 0 0 6.25 17L6.75 17A0.25 0.25 0 0 0 7 16.75L7 16.25A0.25 0.25 0 0 0 6.75 16L6.25 16A0.25 0.25 0 0 0 6 16.25ZM36 17.25L36 18.75A0.25 0.25 0 0 0 36.25 19L36.75 19A0.25 0.25 0 0 0 37 18.75L37 17.25A0.25 0.25 0 0 0 36.75 17L36.25 17A0.25 0.25 0 0 0 36 17.25ZM11 18.25L11 18.75A0.25 0.25 0 0 1 10.75 19L10.25 19A0.25 0.25 0 0 0 10 19.25L10 19.75A0.25 0.25 0 0 0 10.25 20L11.75 20A0.25 0.25 0 0 0 12 19.75L12 18.25A0.25 0.25 0 0 0 11.75 18L11.25 18A0.25 0.25 0 0 0 11 18.25ZM20 19.25L20 19.75A0.25 0.25 0 0 0 20.25 20L20.75 20A0.25 0.25 0 0 0 21 19.75L21 19.25A0.25 0.25 0 0 0 20.75 19L20.25 19A0.25 0.25 0 0 0 20 19.25ZM28 19.25L28 19.75A0.25 0.25 0 0 0 28.25 20L30.75 20A0.25 0.25 0 0 0 31 19.75L31 19.25A0.25 0.25 0 0 0 30.75 19L28.25 19A0.25 0.25 0 0 0 28 19.25ZM26 21.25L26 21.75A0.25 0.25 0 0 0 26.25 22L26.75 22A0.25 0.25 0 0 0 27 21.75L27 21.25A0.25 0.25 0 0 0 26.75 21L26.25 21A0.25 0.25 0 0 0 26 21.25ZM28 21.25L28 25.75A0.25 0.25 0 0 0 28.25 26L28.75 26A0.25 0.25 0 0 0 29 25.75L29 25.25A0.25 0.25 0 0 1 29.25 25L29.75 25A0.25 0.25 0 0 1 30 25.25L30 25.75A0.25 0.25 0 0 0 30.25 26L30.75 26A0.25 0.25 0 0 0 31 25.75L31 21.25A0.25 0.25 0 0 0 30.75 21L28.25 21A0.25 0.25 0 0 0 28 21.25ZM36 21.25L36 21.75A0.25 0.25 0 0 0 36.25 22L36.75 22A0.25 0.25 0 0 0 37 21.75L37 21.25A0.25 0.25 0 0 0 36.75 21L36.25 21A0.25 0.25 0 0 0 36 21.25ZM29 22.25L29 23.75A0.25 0.25 0 0 0 29.25 24L29.75 24A0.25 0.25 0 0 0 30 23.75L30 22.25A0.25 0.25 0 0 0 29.75 22L29.25 22A0.25 0.25 0 0 0 29 22.25ZM16 23.25L16 23.75A0.25 0.25 0 0 0 16.25 24L17.75 24A0.25 0.25 0 0 1 18 24.25L18 24.75A0.25 0.25 0 0 0 18.25 25L18.75 25A0.25 0.25 0 0 0 19 24.75L19 24.25A0.25 0.25 0 0 0 18.75 24L18.25 24A0.25 0.25 0 0 1 18 23.75L18 23.25A0.25 0.25 0 0 0 17.75 23L16.25 23A0.25 0.25 0 0 0 16 23.25ZM24 24.25L24 24.75A0.25 0.25 0 0 0 24.25 25L24.75 25A0.25 0.25 0 0 0 25 24.75L25 24.25A0.25 0.25 0 0 0 24.75 24L24.25 24A0.25 0.25 0 0 0 24 24.25ZM2 25.25L2 25.75A0.25 0.25 0 0 0 2.25 26L2.75 26A0.25 0.25 0 0 0 3 25.75L3 25.25A0.25 0.25 0 0 0 2.75 25L2.25 25A0.25 0.25 0 0 0 2 25.25ZM9 25.25L9 25.75A0.25 0.25 0 0 1 8.75 26L6.25 26A0.25 0.25 0 0 0 6 26.25L6 26.75A0.25 0.25 0 0 0 6.25 27L8.75 27A0.25 0.25 0 0 0 9 26.75L9 26.25A0.25 0.25 0 0 1 9.25 26L9.75 26A0.25 0.25 0 0 0 10 25.75L10 25.25A0.25 0.25 0 0 0 9.75 25L9.25 25A0.25 0.25 0 0 0 9 25.25ZM33 25.25L33 25.75A0.25 0.25 0 0 0 33.25 26L33.75 26A0.25 0.25 0 0 0 34 25.75L34 25.25A0.25 0.25 0 0 0 33.75 25L33.25 25A0.25 0.25 0 0 0 33 25.25ZM29 29.25L29 31.75A0.25 0.25 0 0 0 29.25 32L31.75 32A0.25 0.25 0 0 0 32 31.75L32 29.25A0.25 0.25 0 0 0 31.75 29L29.25 29A0.25 0.25 0 0 0 29 29.25ZM12 30.25L12 30.75A0.25 0.25 0 0 0 12.25 31L12.75 31A0.25 0.25 0 0 0 13 30.75L13 30.25A0.25 0.25 0 0 0 12.75 30L12.25 30A0.25 0.25 0 0 0 12 30.25ZM30 30.25L30 30.75A0.25 0.25 0 0 0 30.25 31L30.75 31A0.25 0.25 0 0 0 31 30.75L31 30.25A0.25 0.25 0 0 0 30.75 30L30.25 30A0.25 0.25 0 0 0 30 30.25ZM33 30.25L33 31.75A0.25 0.25 0 0 0 33.25 32L33.75 32A0.25 0.25 0 0 0 34 31.75L34 30.25A0.25 0.25 0 0 0 33.75 30L33.25 30A0.25 0.25 0 0 0 33 30.25ZM20 32.25L20 32.75A0.25 0.25 0 0 0 20.25 33L20.75 33A0.25 0.25 0 0 0 21 32.75L21 32.25A0.25 0.25 0 0 0 20.75 32L20.25 32A0.25 0.25 0 0 0 20 32.25ZM26 32.25L26 32.75A0.25 0.25 0 0 0 26.25 33L26.75 33A0.25 0.25 0 0 1 27 33.25L27 33.75A0.25 0.25 0 0 1 26.75 34L26.25 34A0.25 0.25 0 0 0 26 34.25L26 34.75A0.25 0.25 0 0 0 26.25 35L26.75 35A0.25 0.25 0 0 0 27 34.75L27 34.25A0.25 0.25 0 0 1 27.25 34L27.75 34A0.25 0.25 0 0 0 28 33.75L28 33.25A0.25 0.25 0 0 0 27.75 33L27.25 33A0.25 0.25 0 0 1 27 32.75L27 32.25A0.25 0.25 0 0 0 26.75 32L26.25 32A0.25 0.25 0 0 0 26 32.25ZM9 33.25L9 34.75A0.25 0.25 0 0 0 9.25 35L9.75 35A0.25 0.25 0 0 1 10 35.25L10 35.75A0.25 0.25 0 0 1 9.75 36L9.25 36A0.25 0.25 0 0 0 9 36.25L9 36.75A0.25 0.25 0 0 0 9.25 37L9.75 37A0.25 0.25 0 0 0 10 36.75L10 36.25A0.25 0.25 0 0 1 10.25 36L10.75 36A0.25 0.25 0 0 1 11 36.25L11 36.75A0.25 0.25 0 0 0 11.25 37L11.75 37A0.25 0.25 0 0 0 12 36.75L12 34.25A0.25 0.25 0 0 1 12.25 34L12.75 34A0.25 0.25 0 0 1 13 34.25L13 34.75A0.25 0.25 0 0 0 13.25 35L13.75 35A0.25 0.25 0 0 1 14 35.25L14 35.75A0.25 0.25 0 0 1 13.75 36L13.25 36A0.25 0.25 0 0 0 13 36.25L13 36.75A0.25 0.25 0 0 0 13.25 37L13.75 37A0.25 0.25 0 0 0 14 36.75L14 36.25A0.25 0.25 0 0 1 14.25 36L14.75 36A0.25 0.25 0 0 0 15 35.75L15 35.25A0.25 0.25 0 0 0 14.75 35L14.25 35A0.25 0.25 0 0 1 14 34.75L14 34.25A0.25 0.25 0 0 0 13.75 34L13.25 34A0.25 0.25 0 0 1 13 33.75L13 33.25A0.25 0.25 0 0 0 12.75 33L12.25 33A0.25 0.25 0 0 0 12 33.25L12 33.75A0.25 0.25 0 0 1 11.75 34L10.25 34A0.25 0.25 0 0 1 10 33.75L10 33.25A0.25 0.25 0 0 0 9.75 33L9.25 33A0.25 0.25 0 0 0 9 33.25ZM22 33.25L22 33.75A0.25 0.25 0 0 0 22.25 34L24.75 34A0.25 0.25 0 0 0 25 33.75L25 33.25A0.25 0.25 0 0 0 24.75 33L22.25 33A0.25 0.25 0 0 0 22 33.25ZM30 33.25L30 33.75A0.25 0.25 0 0 0 30.25 34L30.75 34A0.25 0.25 0 0 1 31 34.25L31 34.75A0.25 0.25 0 0 0 31.25 35L31.75 35A0.25 0.25 0 0 0 32 34.75L32 33.25A0.25 0.25 0 0 0 31.75 33L30.25 33A0.25 0.25 0 0 0 30 33.25ZM22 35.25L22 35.75A0.25 0.25 0 0 0 22.25 36L22.75 36A0.25 0.25 0 0 0 23 35.75L23 35.25A0.25 0.25 0 0 0 22.75 35L22.25 35A0.25 0.25 0 0 0 22 35.25ZM0 0L7 0L7 7L0 7ZM1 1L1 6L6 6L6 1ZM5 3.5A1.5 1.5 0 0 1 3.5 5A1.5 1.5 0 0 1 2 3.5A1.5 1.5 0 0 1 3.5 2A1.5 1.5 0 0 1 5 3.5ZM30 0L37 0L37 7L30 7ZM31 1L31 6L36 6L36 1ZM35 3.5A1.5 1.5 0 0 1 33.5 5A1.5 1.5 0 0 1 32 3.5A1.5 1.5 0 0 1 33.5 2A1.5 1.5 0 0 1 35 3.5ZM0 30L7 30L7 37L0 37ZM1 31L1 36L6 36L6 31ZM5 33.5A1.5 1.5 0 0 1 3.5 35A1.5 1.5 0 0 1 2 33.5A1.5 1.5 0 0 1 3.5 32A1.5 1.5 0 0 1 5 33.5Z" fill="#6d33f1"/></g></g></svg>
