<?xml version="1.0" encoding="UTF-8"?>
<svg xmlns="http://www.w3.org/2000/svg" version="1.1" width="900" height="900" viewBox="0 0 900 900"><rect x="0" y="0" width="900" height="900" fill="#e0cb82" fill-opacity="0.49"/><g transform="scale(10.112)"><g transform="translate(30,30)"><g><g transform="translate(3.5,3.5)"><path fill-rule="evenodd" d="M-3.5 -3.5L3.5 -3.5L3.5 3.5L-3.5 3.5ZM-2.5 -2.5L-2.5 2.5L2.5 2.5L2.5 -2.5Z" fill="#1900d6"/><path fill-rule="evenodd" d="M1.5 0A1.5 1.5 0 0 1 0 1.5A1.5 1.5 0 0 1 -1.5 0A1.5 1.5 0 0 1 0 -1.5A1.5 1.5 0 0 1 1.5 0Z" fill="#21a039"/></g></g><g><g transform="translate(25.5,3.5)"><g transform="rotate(90)"><path fill-rule="evenodd" d="M-3.5 -3.5L3.5 -3.5L3.5 3.5L-3.5 3.5ZM-2.5 -2.5L-2.5 2.5L2.5 2.5L2.5 -2.5Z" fill="#03c1a5"/><path fill-rule="evenodd" d="M1.5 0A1.5 1.5 0 0 1 0 1.5A1.5 1.5 0 0 1 -1.5 0A1.5 1.5 0 0 1 0 -1.5A1.5 1.5 0 0 1 1.5 0Z" fill="#cc006d"/></g></g></g><g><g transform="translate(3.5,25.5)"><g transform="rotate(-90)"><path fill-rule="evenodd" d="M-3.5 -3.5L3.5 -3.5L3.5 3.5L-3.5 3.5ZM-2.5 -2.5L-2.5 2.5L2.5 2.5L2.5 -2.5Z" fill="#9fa810"/><path fill-rule="evenodd" d="M1.5 0A1.5 1.5 0 0 1 0 1.5A1.5 1.5 0 0 1 -1.5 0A1.5 1.5 0 0 1 0 -1.5A1.5 1.5 0 0 1 1.5 0Z" fill="#dcdfc8"/></g></g></g><defs><linearGradient gradientUnits="userSpaceOnUse" x1="0" y1="29" x2="29" y2="0" id="g1"><stop offset="0%" stop-color="#f995c7"/><stop offset="100%" stop-color="#0cdeed"/></linearGradient></defs><path fill-rule="evenodd" d="M9 0L9 1L10 1L10 0ZM13 0L13 1L11 1L11 2L10 2L10 4L8 4L8 7L9 7L9 8L8 8L8 9L7 9L7 8L6 8L6 9L5 9L5 8L4 8L4 9L2 9L2 8L1 8L1 9L0 9L0 10L1 10L1 11L0 11L0 12L4 12L4 13L5 13L5 12L4 12L4 11L5 11L5 10L6 10L6 11L7 11L7 12L6 12L6 13L8 13L8 11L10 11L10 12L9 12L9 13L10 13L10 14L11 14L11 15L10 15L10 18L8 18L8 19L7 19L7 18L6 18L6 17L9 17L9 16L6 16L6 15L9 15L9 14L4 14L4 15L5 15L5 16L4 16L4 18L3 18L3 13L0 13L0 14L1 14L1 15L0 15L0 18L1 18L1 17L2 17L2 19L3 19L3 21L4 21L4 20L5 20L5 21L8 21L8 22L10 22L10 23L11 23L11 26L10 26L10 25L9 25L9 24L8 24L8 25L9 25L9 26L10 26L10 27L12 27L12 26L14 26L14 27L13 27L13 28L15 28L15 29L17 29L17 28L19 28L19 29L22 29L22 28L23 28L23 29L28 29L28 28L25 28L25 26L26 26L26 27L29 27L29 26L28 26L28 24L26 24L26 23L29 23L29 22L28 22L28 21L29 21L29 20L28 20L28 19L29 19L29 18L28 18L28 19L27 19L27 17L28 17L28 16L26 16L26 19L25 19L25 18L22 18L22 19L20 19L20 17L25 17L25 16L24 16L24 15L26 15L26 14L28 14L28 15L29 15L29 14L28 14L28 13L27 13L27 12L26 12L26 14L25 14L25 12L24 12L24 10L25 10L25 8L23 8L23 9L24 9L24 10L22 10L22 11L21 11L21 9L22 9L22 8L21 8L21 5L20 5L20 4L21 4L21 1L20 1L20 0L18 0L18 1L17 1L17 0ZM14 1L14 2L11 2L11 4L10 4L10 5L12 5L12 6L11 6L11 9L14 9L14 11L13 11L13 10L12 10L12 12L11 12L11 14L12 14L12 15L13 15L13 16L14 16L14 17L15 17L15 18L14 18L14 19L12 19L12 20L10 20L10 19L11 19L11 18L10 18L10 19L9 19L9 21L11 21L11 23L12 23L12 24L13 24L13 25L14 25L14 26L15 26L15 28L17 28L17 27L18 27L18 26L20 26L20 28L21 28L21 27L22 27L22 26L23 26L23 25L20 25L20 22L18 22L18 21L20 21L20 20L19 20L19 19L18 19L18 17L19 17L19 15L18 15L18 14L17 14L17 13L18 13L18 12L20 12L20 13L21 13L21 11L20 11L20 10L19 10L19 9L18 9L18 8L17 8L17 7L18 7L18 5L19 5L19 7L20 7L20 5L19 5L19 4L17 4L17 3L15 3L15 2L16 2L16 1ZM18 1L18 3L19 3L19 2L20 2L20 1ZM8 2L8 3L9 3L9 2ZM12 3L12 5L13 5L13 6L12 6L12 7L13 7L13 8L14 8L14 7L15 7L15 6L14 6L14 5L16 5L16 4L15 4L15 3L14 3L14 4L13 4L13 3ZM9 6L9 7L10 7L10 6ZM13 6L13 7L14 7L14 6ZM16 6L16 7L17 7L17 6ZM9 8L9 9L10 9L10 8ZM15 8L15 9L16 9L16 10L15 10L15 11L14 11L14 12L15 12L15 13L17 13L17 12L18 12L18 11L17 11L17 9L16 9L16 8ZM20 8L20 9L21 9L21 8ZM26 8L26 11L27 11L27 8ZM6 9L6 10L7 10L7 11L8 11L8 10L7 10L7 9ZM2 10L2 11L3 11L3 10ZM10 10L10 11L11 11L11 10ZM28 10L28 12L29 12L29 10ZM15 11L15 12L17 12L17 11ZM22 11L22 12L23 12L23 13L22 13L22 14L20 14L20 15L22 15L22 16L23 16L23 14L24 14L24 12L23 12L23 11ZM12 12L12 13L13 13L13 14L14 14L14 13L13 13L13 12ZM15 14L15 15L14 15L14 16L15 16L15 15L16 15L16 14ZM1 15L1 16L2 16L2 15ZM11 16L11 17L12 17L12 18L13 18L13 17L12 17L12 16ZM16 16L16 17L17 17L17 16ZM5 18L5 20L7 20L7 19L6 19L6 18ZM15 18L15 20L16 20L16 23L17 23L17 24L18 24L18 25L19 25L19 23L18 23L18 22L17 22L17 21L18 21L18 20L17 20L17 19L16 19L16 18ZM22 19L22 20L25 20L25 22L26 22L26 20L25 20L25 19ZM0 20L0 21L2 21L2 20ZM27 20L27 21L28 21L28 20ZM12 21L12 22L13 22L13 21ZM21 21L21 24L24 24L24 21ZM22 22L22 23L23 23L23 22ZM14 23L14 25L15 25L15 23ZM25 24L25 25L26 25L26 24ZM16 25L16 27L17 27L17 25ZM8 27L8 28L9 28L9 27ZM11 28L11 29L12 29L12 28Z" fill="url(#g1)"/></g></g></svg>
