<?xml version="1.0" encoding="UTF-8"?>
<svg xmlns="http://www.w3.org/2000/svg" version="1.1" width="100" height="100" viewBox="0 0 100 100"><rect x="0" y="0" width="100" height="100" fill="#8fe5ad" fill-opacity="0.05"/><g transform="scale(0.546)"><g transform="translate(79,79)"><path fill-rule="evenodd" d="M10 0L10 1L9 1L9 2L8 2L8 8L9 8L9 9L8 9L8 10L5 10L5 9L7 9L7 8L2 8L2 9L4 9L4 10L2 10L2 11L3 11L3 12L0 12L0 17L1 17L1 14L2 14L2 16L4 16L4 15L5 15L5 17L7 17L7 16L6 16L6 15L7 15L7 14L8 14L8 16L9 16L9 13L10 13L10 16L11 16L11 13L12 13L12 14L13 14L13 15L12 15L12 17L13 17L13 15L16 15L16 16L15 16L15 17L14 17L14 18L15 18L15 19L16 19L16 20L15 20L15 21L16 21L16 22L17 22L17 25L18 25L18 24L19 24L19 25L20 25L20 24L21 24L21 25L25 25L25 24L24 24L24 23L25 23L25 21L24 21L24 20L25 20L25 9L24 9L24 10L20 10L20 9L23 9L23 8L18 8L18 11L19 11L19 12L18 12L18 14L17 14L17 12L14 12L14 14L13 14L13 13L12 13L12 12L13 12L13 11L16 11L16 8L17 8L17 6L16 6L16 8L15 8L15 10L11 10L11 8L12 8L12 7L13 7L13 6L14 6L14 7L15 7L15 6L14 6L14 5L11 5L11 6L10 6L10 4L16 4L16 5L17 5L17 4L16 4L16 3L17 3L17 2L16 2L16 3L14 3L14 2L15 2L15 0L14 0L14 1L13 1L13 0ZM16 0L16 1L17 1L17 0ZM10 1L10 2L9 2L9 3L10 3L10 2L11 2L11 3L13 3L13 2L11 2L11 1ZM9 6L9 8L10 8L10 6ZM11 6L11 7L12 7L12 6ZM0 8L0 11L1 11L1 8ZM9 9L9 10L8 10L8 11L6 11L6 12L8 12L8 13L9 13L9 12L10 12L10 11L11 11L11 12L12 12L12 11L11 11L11 10L10 10L10 9ZM4 10L4 11L5 11L5 10ZM9 10L9 11L10 11L10 10ZM20 11L20 12L19 12L19 13L20 13L20 12L21 12L21 15L20 15L20 14L19 14L19 15L17 15L17 14L16 14L16 15L17 15L17 16L19 16L19 15L20 15L20 16L21 16L21 18L24 18L24 16L23 16L23 15L22 15L22 14L24 14L24 13L23 13L23 12L24 12L24 11ZM4 12L4 13L3 13L3 15L4 15L4 13L5 13L5 12ZM6 13L6 14L7 14L7 13ZM21 15L21 16L22 16L22 17L23 17L23 16L22 16L22 15ZM8 17L8 18L11 18L11 21L12 21L12 22L13 22L13 23L12 23L12 25L13 25L13 24L14 24L14 25L15 25L15 24L14 24L14 23L15 23L15 22L14 22L14 21L12 21L12 19L13 19L13 18L11 18L11 17ZM17 17L17 20L20 20L20 17ZM18 18L18 19L19 19L19 18ZM8 19L8 23L9 23L9 22L10 22L10 25L11 25L11 22L10 22L10 21L9 21L9 19ZM21 19L21 21L20 21L20 23L22 23L22 24L23 24L23 23L24 23L24 21L23 21L23 19ZM17 21L17 22L18 22L18 21ZM22 22L22 23L23 23L23 22ZM8 24L8 25L9 25L9 24ZM0 0L7 0L7 7L0 7ZM1 1L1 6L6 6L6 1ZM5 3.5A1.5 1.5 0 0 1 3.5 5A1.5 1.5 0 0 1 2 3.5A1.5 1.5 0 0 1 3.5 2A1.5 1.5 0 0 1 5 3.5ZM18 0L25 0L25 7L18 7ZM19 1L19 6L24 6L24 1ZM23 3.5A1.5 1.5 0 0 1 21.5 5A1.5 1.5 0 0 1 20 3.5A1.5 1.5 0 0 1 21.5 2A1.5 1.5 0 0 1 23 3.5ZM0 18L7 18L7 25L0 25ZM1 19L1 24L6 24L6 19ZM5 21.5A1.5 1.5 0 0 1 3.5 23A1.5 1.5 0 0 1 2 21.5A1.5 1.5 0 0 1 3.5 20A1.5 1.5 0 0 1 5 21.5Z" fill="#3dc6e2"/></g></g></svg>
