<?xml version="1.0" encoding="UTF-8"?>
<svg xmlns="http://www.w3.org/2000/svg" version="1.1" width="900" height="900" viewBox="0 0 900 900"><rect x="0" y="0" width="900" height="900" fill="#5b0758" fill-opacity="0.75"/><g transform="scale(33.333)"><g transform="translate(1,1)"><g><g transform="translate(3.5,3.5)"><path fill-rule="evenodd" d="M-3.5 -3.5L3.5 -3.5L3.5 3.5L-3.5 3.5ZM-2.5 -2.5L-2.5 2.5L2.5 2.5L2.5 -2.5Z" fill="#014fe3"/><path fill-rule="evenodd" d="M1.5 0A1.5 1.5 0 0 1 0 1.5A1.5 1.5 0 0 1 -1.5 0A1.5 1.5 0 0 1 0 -1.5A1.5 1.5 0 0 1 1.5 0Z" fill="#556569"/></g></g><g><g transform="translate(21.5,3.5)"><g transform="rotate(90)"><path fill-rule="evenodd" d="M-3.5 -3.5L3.5 -3.5L3.5 3.5L-3.5 3.5ZM-2.5 -2.5L-2.5 2.5L2.5 2.5L2.5 -2.5Z" fill="#51c995"/><path fill-rule="evenodd" d="M1.5 0A1.5 1.5 0 0 1 0 1.5A1.5 1.5 0 0 1 -1.5 0A1.5 1.5 0 0 1 0 -1.5A1.5 1.5 0 0 1 1.5 0Z" fill="#68777c"/></g></g></g><g><g transform="translate(3.5,21.5)"><g transform="rotate(-90)"><path fill-rule="evenodd" d="M-3.5 -3.5L3.5 -3.5L3.5 3.5L-3.5 3.5ZM-2.5 -2.5L-2.5 2.5L2.5 2.5L2.5 -2.5Z" fill="#b4a12a"/><path fill-rule="evenodd" d="M1.5 0A1.5 1.5 0 0 1 0 1.5A1.5 1.5 0 0 1 -1.5 0A1.5 1.5 0 0 1 0 -1.5A1.5 1.5 0 0 1 1.5 0Z" fill="#3cc461"/></g></g></g><defs><linearGradient gradientUnits="userSpaceOnUse" x1="0" y1="0" x2="25" y2="0" id="g1"><stop offset="0%" stop-color="#b645bd"/><stop offset="100%" stop-color="#4dd9f1"/></linearGradient></defs><path fill-rule="evenodd" d="M10 0L10 1L9 1L9 2L8 2L8 3L9 3L9 5L10 5L10 7L11 7L11 8L12 8L12 9L11 9L11 10L10 10L10 9L9 9L9 6L8 6L8 8L4 8L4 9L3 9L3 8L0 8L0 10L1 10L1 14L0 14L0 15L1 15L1 16L0 16L0 17L1 17L1 16L4 16L4 17L7 17L7 16L6 16L6 15L8 15L8 16L10 16L10 14L12 14L12 12L13 12L13 15L14 15L14 14L15 14L15 15L16 15L16 18L15 18L15 16L14 16L14 17L13 17L13 16L12 16L12 15L11 15L11 16L12 16L12 17L10 17L10 18L11 18L11 19L10 19L10 20L9 20L9 17L8 17L8 21L9 21L9 22L8 22L8 25L10 25L10 24L12 24L12 25L13 25L13 24L12 24L12 23L11 23L11 22L12 22L12 20L14 20L14 21L15 21L15 23L19 23L19 22L20 22L20 24L19 24L19 25L22 25L22 24L23 24L23 25L25 25L25 22L24 22L24 24L23 24L23 23L22 23L22 24L21 24L21 20L22 20L22 21L23 21L23 20L24 20L24 21L25 21L25 20L24 20L24 19L25 19L25 18L24 18L24 17L25 17L25 16L24 16L24 17L23 17L23 20L22 20L22 18L21 18L21 16L22 16L22 14L21 14L21 13L22 13L22 12L23 12L23 15L25 15L25 14L24 14L24 13L25 13L25 12L24 12L24 11L25 11L25 9L24 9L24 11L22 11L22 12L19 12L19 11L20 11L20 9L19 9L19 8L17 8L17 9L18 9L18 11L17 11L17 10L16 10L16 9L15 9L15 8L14 8L14 7L15 7L15 6L16 6L16 7L17 7L17 6L16 6L16 5L17 5L17 4L16 4L16 2L17 2L17 0L16 0L16 1L14 1L14 2L15 2L15 3L12 3L12 2L11 2L11 3L12 3L12 5L10 5L10 3L9 3L9 2L10 2L10 1L11 1L11 0ZM13 4L13 7L12 7L12 6L11 6L11 7L12 7L12 8L13 8L13 9L14 9L14 8L13 8L13 7L14 7L14 5L16 5L16 4ZM22 8L22 9L23 9L23 8ZM1 9L1 10L2 10L2 11L3 11L3 13L2 13L2 14L1 14L1 15L2 15L2 14L3 14L3 15L4 15L4 16L5 16L5 14L3 14L3 13L4 13L4 12L5 12L5 13L6 13L6 14L8 14L8 15L9 15L9 14L10 14L10 12L9 12L9 11L10 11L10 10L9 10L9 11L8 11L8 10L7 10L7 9L6 9L6 10L5 10L5 9L4 9L4 10L5 10L5 11L3 11L3 10L2 10L2 9ZM6 10L6 11L5 11L5 12L6 12L6 13L7 13L7 12L6 12L6 11L7 11L7 10ZM14 10L14 11L15 11L15 14L16 14L16 10ZM11 11L11 12L12 12L12 11ZM17 12L17 13L18 13L18 14L19 14L19 16L21 16L21 14L19 14L19 13L18 13L18 12ZM8 13L8 14L9 14L9 13ZM17 17L17 20L20 20L20 17ZM13 18L13 19L14 19L14 20L15 20L15 21L16 21L16 19L14 19L14 18ZM18 18L18 19L19 19L19 18ZM11 19L11 20L10 20L10 22L9 22L9 23L10 23L10 22L11 22L11 20L12 20L12 19ZM17 21L17 22L18 22L18 21ZM13 22L13 23L14 23L14 22ZM16 24L16 25L17 25L17 24Z" fill="url(#g1)"/></g></g></svg>
