<?xml version="1.0" encoding="UTF-8"?>
<svg xmlns="http://www.w3.org/2000/svg" version="1.1" width="900" height="900" viewBox="0 0 900 900"><rect x="0" y="0" width="900" height="900" fill="#3bf198" fill-opacity="0.65"/><g transform="scale(9.091)"><g transform="translate(37,37)"><g><g transform="translate(3.5,3.5)"><path fill-rule="evenodd" d="M-3.5 -3.5L3.5 -3.5L3.5 3.5L-3.5 3.5ZM-2.5 -2.5L-2.5 2.5L2.5 2.5L2.5 -2.5Z" fill="#e735c4"/><path fill-rule="evenodd" d="M1.5 0A1.5 1.5 0 0 1 0 1.5A1.5 1.5 0 0 1 -1.5 0A1.5 1.5 0 0 1 0 -1.5A1.5 1.5 0 0 1 1.5 0Z" fill="#b48619"/></g></g><g><g transform="translate(21.5,3.5)"><g transform="rotate(90)"><path fill-rule="evenodd" d="M-3.5 -3.5L3.5 -3.5L3.5 3.5L-3.5 3.5ZM-2.5 -2.5L-2.5 2.5L2.5 2.5L2.5 -2.5Z" fill="#140922"/><path fill-rule="evenodd" d="M1.5 0A1.5 1.5 0 0 1 0 1.5A1.5 1.5 0 0 1 -1.5 0A1.5 1.5 0 0 1 0 -1.5A1.5 1.5 0 0 1 1.5 0Z" fill="#fd3abb"/></g></g></g><g><g transform="translate(3.5,21.5)"><g transform="rotate(-90)"><path fill-rule="evenodd" d="M-3.5 -3.5L3.5 -3.5L3.5 3.5L-3.5 3.5ZM-2.5 -2.5L-2.5 2.5L2.5 2.5L2.5 -2.5Z" fill="#c20397"/><path fill-rule="evenodd" d="M1.5 0A1.5 1.5 0 0 1 0 1.5A1.5 1.5 0 0 1 -1.5 0A1.5 1.5 0 0 1 0 -1.5A1.5 1.5 0 0 1 1.5 0Z" fill="#95bf7c"/></g></g></g><defs><linearGradient gradientUnits="userSpaceOnUse" x1="0" y1="0" x2="25" y2="0" id="g1"><stop offset="0%" stop-color="#9a28eb"/><stop offset="100%" stop-color="#f0f0a7"/></linearGradient></defs><path fill-rule="evenodd" d="M8.75 0.5A0.25 0.25 0 0 1 8.5 0.75A0.25 0.25 0 0 1 8.25 0.5A0.25 0.25 0 0 1 8.5 0.25A0.25 0.25 0 0 1 8.75 0.5ZM11.75 0.5A0.25 0.25 0 0 1 11.5 0.75A0.25 0.25 0 0 1 11.25 0.5A0.25 0.25 0 0 1 11.5 0.25A0.25 0.25 0 0 1 11.75 0.5ZM12.75 0.5A0.25 0.25 0 0 1 12.5 0.75A0.25 0.25 0 0 1 12.25 0.5A0.25 0.25 0 0 1 12.5 0.25A0.25 0.25 0 0 1 12.75 0.5ZM13.75 0.5A0.25 0.25 0 0 1 13.5 0.75A0.25 0.25 0 0 1 13.25 0.5A0.25 0.25 0 0 1 13.5 0.25A0.25 0.25 0 0 1 13.75 0.5ZM14.75 0.5A0.25 0.25 0 0 1 14.5 0.75A0.25 0.25 0 0 1 14.25 0.5A0.25 0.25 0 0 1 14.5 0.25A0.25 0.25 0 0 1 14.75 0.5ZM15.75 0.5A0.25 0.25 0 0 1 15.5 0.75A0.25 0.25 0 0 1 15.25 0.5A0.25 0.25 0 0 1 15.5 0.25A0.25 0.25 0 0 1 15.75 0.5ZM16.75 0.5A0.25 0.25 0 0 1 16.5 0.75A0.25 0.25 0 0 1 16.25 0.5A0.25 0.25 0 0 1 16.5 0.25A0.25 0.25 0 0 1 16.75 0.5ZM9.75 1.5A0.25 0.25 0 0 1 9.5 1.75A0.25 0.25 0 0 1 9.25 1.5A0.25 0.25 0 0 1 9.5 1.25A0.25 0.25 0 0 1 9.75 1.5ZM11.75 1.5A0.25 0.25 0 0 1 11.5 1.75A0.25 0.25 0 0 1 11.25 1.5A0.25 0.25 0 0 1 11.5 1.25A0.25 0.25 0 0 1 11.75 1.5ZM13.75 1.5A0.25 0.25 0 0 1 13.5 1.75A0.25 0.25 0 0 1 13.25 1.5A0.25 0.25 0 0 1 13.5 1.25A0.25 0.25 0 0 1 13.75 1.5ZM14.75 1.5A0.25 0.25 0 0 1 14.5 1.75A0.25 0.25 0 0 1 14.25 1.5A0.25 0.25 0 0 1 14.5 1.25A0.25 0.25 0 0 1 14.75 1.5ZM8.75 2.5A0.25 0.25 0 0 1 8.5 2.75A0.25 0.25 0 0 1 8.25 2.5A0.25 0.25 0 0 1 8.5 2.25A0.25 0.25 0 0 1 8.75 2.5ZM11.75 2.5A0.25 0.25 0 0 1 11.5 2.75A0.25 0.25 0 0 1 11.25 2.5A0.25 0.25 0 0 1 11.5 2.25A0.25 0.25 0 0 1 11.75 2.5ZM14.75 2.5A0.25 0.25 0 0 1 14.5 2.75A0.25 0.25 0 0 1 14.25 2.5A0.25 0.25 0 0 1 14.5 2.25A0.25 0.25 0 0 1 14.75 2.5ZM16.75 2.5A0.25 0.25 0 0 1 16.5 2.75A0.25 0.25 0 0 1 16.25 2.5A0.25 0.25 0 0 1 16.5 2.25A0.25 0.25 0 0 1 16.75 2.5ZM9.75 3.5A0.25 0.25 0 0 1 9.5 3.75A0.25 0.25 0 0 1 9.25 3.5A0.25 0.25 0 0 1 9.5 3.25A0.25 0.25 0 0 1 9.75 3.5ZM10.75 3.5A0.25 0.25 0 0 1 10.5 3.75A0.25 0.25 0 0 1 10.25 3.5A0.25 0.25 0 0 1 10.5 3.25A0.25 0.25 0 0 1 10.75 3.5ZM14.75 3.5A0.25 0.25 0 0 1 14.5 3.75A0.25 0.25 0 0 1 14.25 3.5A0.25 0.25 0 0 1 14.5 3.25A0.25 0.25 0 0 1 14.75 3.5ZM16.75 3.5A0.25 0.25 0 0 1 16.5 3.75A0.25 0.25 0 0 1 16.25 3.5A0.25 0.25 0 0 1 16.5 3.25A0.25 0.25 0 0 1 16.75 3.5ZM12.75 4.5A0.25 0.25 0 0 1 12.5 4.75A0.25 0.25 0 0 1 12.25 4.5A0.25 0.25 0 0 1 12.5 4.25A0.25 0.25 0 0 1 12.75 4.5ZM13.75 4.5A0.25 0.25 0 0 1 13.5 4.75A0.25 0.25 0 0 1 13.25 4.5A0.25 0.25 0 0 1 13.5 4.25A0.25 0.25 0 0 1 13.75 4.5ZM15.75 4.5A0.25 0.25 0 0 1 15.5 4.75A0.25 0.25 0 0 1 15.25 4.5A0.25 0.25 0 0 1 15.5 4.25A0.25 0.25 0 0 1 15.75 4.5ZM8.75 5.5A0.25 0.25 0 0 1 8.5 5.75A0.25 0.25 0 0 1 8.25 5.5A0.25 0.25 0 0 1 8.5 5.25A0.25 0.25 0 0 1 8.75 5.5ZM9.75 5.5A0.25 0.25 0 0 1 9.5 5.75A0.25 0.25 0 0 1 9.25 5.5A0.25 0.25 0 0 1 9.5 5.25A0.25 0.25 0 0 1 9.75 5.5ZM11.75 5.5A0.25 0.25 0 0 1 11.5 5.75A0.25 0.25 0 0 1 11.25 5.5A0.25 0.25 0 0 1 11.5 5.25A0.25 0.25 0 0 1 11.75 5.5ZM12.75 5.5A0.25 0.25 0 0 1 12.5 5.75A0.25 0.25 0 0 1 12.25 5.5A0.25 0.25 0 0 1 12.5 5.25A0.25 0.25 0 0 1 12.75 5.5ZM13.75 5.5A0.25 0.25 0 0 1 13.5 5.75A0.25 0.25 0 0 1 13.25 5.5A0.25 0.25 0 0 1 13.5 5.25A0.25 0.25 0 0 1 13.75 5.5ZM14.75 5.5A0.25 0.25 0 0 1 14.5 5.75A0.25 0.25 0 0 1 14.25 5.5A0.25 0.25 0 0 1 14.5 5.25A0.25 0.25 0 0 1 14.75 5.5ZM8.75 6.5A0.25 0.25 0 0 1 8.5 6.75A0.25 0.25 0 0 1 8.25 6.5A0.25 0.25 0 0 1 8.5 6.25A0.25 0.25 0 0 1 8.75 6.5ZM10.75 6.5A0.25 0.25 0 0 1 10.5 6.75A0.25 0.25 0 0 1 10.25 6.5A0.25 0.25 0 0 1 10.5 6.25A0.25 0.25 0 0 1 10.75 6.5ZM12.75 6.5A0.25 0.25 0 0 1 12.5 6.75A0.25 0.25 0 0 1 12.25 6.5A0.25 0.25 0 0 1 12.5 6.25A0.25 0.25 0 0 1 12.75 6.5ZM14.75 6.5A0.25 0.25 0 0 1 14.5 6.75A0.25 0.25 0 0 1 14.25 6.5A0.25 0.25 0 0 1 14.5 6.25A0.25 0.25 0 0 1 14.75 6.5ZM16.75 6.5A0.25 0.25 0 0 1 16.5 6.75A0.25 0.25 0 0 1 16.25 6.5A0.25 0.25 0 0 1 16.5 6.25A0.25 0.25 0 0 1 16.75 6.5ZM15.75 7.5A0.25 0.25 0 0 1 15.5 7.75A0.25 0.25 0 0 1 15.25 7.5A0.25 0.25 0 0 1 15.5 7.25A0.25 0.25 0 0 1 15.75 7.5ZM16.75 7.5A0.25 0.25 0 0 1 16.5 7.75A0.25 0.25 0 0 1 16.25 7.5A0.25 0.25 0 0 1 16.5 7.25A0.25 0.25 0 0 1 16.75 7.5ZM0.75 8.5A0.25 0.25 0 0 1 0.5 8.75A0.25 0.25 0 0 1 0.25 8.5A0.25 0.25 0 0 1 0.5 8.25A0.25 0.25 0 0 1 0.75 8.5ZM2.75 8.5A0.25 0.25 0 0 1 2.5 8.75A0.25 0.25 0 0 1 2.25 8.5A0.25 0.25 0 0 1 2.5 8.25A0.25 0.25 0 0 1 2.75 8.5ZM6.75 8.5A0.25 0.25 0 0 1 6.5 8.75A0.25 0.25 0 0 1 6.25 8.5A0.25 0.25 0 0 1 6.5 8.25A0.25 0.25 0 0 1 6.75 8.5ZM7.75 8.5A0.25 0.25 0 0 1 7.5 8.75A0.25 0.25 0 0 1 7.25 8.5A0.25 0.25 0 0 1 7.5 8.25A0.25 0.25 0 0 1 7.75 8.5ZM13.75 8.5A0.25 0.25 0 0 1 13.5 8.75A0.25 0.25 0 0 1 13.25 8.5A0.25 0.25 0 0 1 13.5 8.25A0.25 0.25 0 0 1 13.75 8.5ZM14.75 8.5A0.25 0.25 0 0 1 14.5 8.75A0.25 0.25 0 0 1 14.25 8.5A0.25 0.25 0 0 1 14.5 8.25A0.25 0.25 0 0 1 14.75 8.5ZM15.75 8.5A0.25 0.25 0 0 1 15.5 8.75A0.25 0.25 0 0 1 15.25 8.5A0.25 0.25 0 0 1 15.5 8.25A0.25 0.25 0 0 1 15.75 8.5ZM16.75 8.5A0.25 0.25 0 0 1 16.5 8.75A0.25 0.25 0 0 1 16.25 8.5A0.25 0.25 0 0 1 16.5 8.25A0.25 0.25 0 0 1 16.75 8.5ZM19.75 8.5A0.25 0.25 0 0 1 19.5 8.75A0.25 0.25 0 0 1 19.25 8.5A0.25 0.25 0 0 1 19.5 8.25A0.25 0.25 0 0 1 19.75 8.5ZM22.75 8.5A0.25 0.25 0 0 1 22.5 8.75A0.25 0.25 0 0 1 22.25 8.5A0.25 0.25 0 0 1 22.5 8.25A0.25 0.25 0 0 1 22.75 8.5ZM24.75 8.5A0.25 0.25 0 0 1 24.5 8.75A0.25 0.25 0 0 1 24.25 8.5A0.25 0.25 0 0 1 24.5 8.25A0.25 0.25 0 0 1 24.75 8.5ZM3.75 9.5A0.25 0.25 0 0 1 3.5 9.75A0.25 0.25 0 0 1 3.25 9.5A0.25 0.25 0 0 1 3.5 9.25A0.25 0.25 0 0 1 3.75 9.5ZM7.75 9.5A0.25 0.25 0 0 1 7.5 9.75A0.25 0.25 0 0 1 7.25 9.5A0.25 0.25 0 0 1 7.5 9.25A0.25 0.25 0 0 1 7.75 9.5ZM8.75 9.5A0.25 0.25 0 0 1 8.5 9.75A0.25 0.25 0 0 1 8.25 9.5A0.25 0.25 0 0 1 8.5 9.25A0.25 0.25 0 0 1 8.75 9.5ZM14.75 9.5A0.25 0.25 0 0 1 14.5 9.75A0.25 0.25 0 0 1 14.25 9.5A0.25 0.25 0 0 1 14.5 9.25A0.25 0.25 0 0 1 14.75 9.5ZM15.75 9.5A0.25 0.25 0 0 1 15.5 9.75A0.25 0.25 0 0 1 15.25 9.5A0.25 0.25 0 0 1 15.5 9.25A0.25 0.25 0 0 1 15.75 9.5ZM17.75 9.5A0.25 0.25 0 0 1 17.5 9.75A0.25 0.25 0 0 1 17.25 9.5A0.25 0.25 0 0 1 17.5 9.25A0.25 0.25 0 0 1 17.75 9.5ZM19.75 9.5A0.25 0.25 0 0 1 19.5 9.75A0.25 0.25 0 0 1 19.25 9.5A0.25 0.25 0 0 1 19.5 9.25A0.25 0.25 0 0 1 19.75 9.5ZM20.75 9.5A0.25 0.25 0 0 1 20.5 9.75A0.25 0.25 0 0 1 20.25 9.5A0.25 0.25 0 0 1 20.5 9.25A0.25 0.25 0 0 1 20.75 9.5ZM21.75 9.5A0.25 0.25 0 0 1 21.5 9.75A0.25 0.25 0 0 1 21.25 9.5A0.25 0.25 0 0 1 21.5 9.25A0.25 0.25 0 0 1 21.75 9.5ZM23.75 9.5A0.25 0.25 0 0 1 23.5 9.75A0.25 0.25 0 0 1 23.25 9.5A0.25 0.25 0 0 1 23.5 9.25A0.25 0.25 0 0 1 23.75 9.5ZM0.75 10.5A0.25 0.25 0 0 1 0.5 10.75A0.25 0.25 0 0 1 0.25 10.5A0.25 0.25 0 0 1 0.5 10.25A0.25 0.25 0 0 1 0.75 10.5ZM2.75 10.5A0.25 0.25 0 0 1 2.5 10.75A0.25 0.25 0 0 1 2.25 10.5A0.25 0.25 0 0 1 2.5 10.25A0.25 0.25 0 0 1 2.75 10.5ZM4.75 10.5A0.25 0.25 0 0 1 4.5 10.75A0.25 0.25 0 0 1 4.25 10.5A0.25 0.25 0 0 1 4.5 10.25A0.25 0.25 0 0 1 4.75 10.5ZM6.75 10.5A0.25 0.25 0 0 1 6.5 10.75A0.25 0.25 0 0 1 6.25 10.5A0.25 0.25 0 0 1 6.5 10.25A0.25 0.25 0 0 1 6.75 10.5ZM7.75 10.5A0.25 0.25 0 0 1 7.5 10.75A0.25 0.25 0 0 1 7.25 10.5A0.25 0.25 0 0 1 7.5 10.25A0.25 0.25 0 0 1 7.75 10.5ZM8.75 10.5A0.25 0.25 0 0 1 8.5 10.75A0.25 0.25 0 0 1 8.25 10.5A0.25 0.25 0 0 1 8.5 10.25A0.25 0.25 0 0 1 8.75 10.5ZM9.75 10.5A0.25 0.25 0 0 1 9.5 10.75A0.25 0.25 0 0 1 9.25 10.5A0.25 0.25 0 0 1 9.5 10.25A0.25 0.25 0 0 1 9.75 10.5ZM10.75 10.5A0.25 0.25 0 0 1 10.5 10.75A0.25 0.25 0 0 1 10.25 10.5A0.25 0.25 0 0 1 10.5 10.25A0.25 0.25 0 0 1 10.75 10.5ZM11.75 10.5A0.25 0.25 0 0 1 11.5 10.75A0.25 0.25 0 0 1 11.25 10.5A0.25 0.25 0 0 1 11.5 10.25A0.25 0.25 0 0 1 11.75 10.5ZM15.75 10.5A0.25 0.25 0 0 1 15.5 10.75A0.25 0.25 0 0 1 15.25 10.5A0.25 0.25 0 0 1 15.5 10.25A0.25 0.25 0 0 1 15.75 10.5ZM17.75 10.5A0.25 0.25 0 0 1 17.5 10.75A0.25 0.25 0 0 1 17.25 10.5A0.25 0.25 0 0 1 17.5 10.25A0.25 0.25 0 0 1 17.75 10.5ZM18.75 10.5A0.25 0.25 0 0 1 18.5 10.75A0.25 0.25 0 0 1 18.25 10.5A0.25 0.25 0 0 1 18.5 10.25A0.25 0.25 0 0 1 18.75 10.5ZM19.75 10.5A0.25 0.25 0 0 1 19.5 10.75A0.25 0.25 0 0 1 19.25 10.5A0.25 0.25 0 0 1 19.5 10.25A0.25 0.25 0 0 1 19.75 10.5ZM23.75 10.5A0.25 0.25 0 0 1 23.5 10.75A0.25 0.25 0 0 1 23.25 10.5A0.25 0.25 0 0 1 23.5 10.25A0.25 0.25 0 0 1 23.75 10.5ZM24.75 10.5A0.25 0.25 0 0 1 24.5 10.75A0.25 0.25 0 0 1 24.25 10.5A0.25 0.25 0 0 1 24.5 10.25A0.25 0.25 0 0 1 24.75 10.5ZM2.75 11.5A0.25 0.25 0 0 1 2.5 11.75A0.25 0.25 0 0 1 2.25 11.5A0.25 0.25 0 0 1 2.5 11.25A0.25 0.25 0 0 1 2.75 11.5ZM3.75 11.5A0.25 0.25 0 0 1 3.5 11.75A0.25 0.25 0 0 1 3.25 11.5A0.25 0.25 0 0 1 3.5 11.25A0.25 0.25 0 0 1 3.75 11.5ZM5.75 11.5A0.25 0.25 0 0 1 5.5 11.75A0.25 0.25 0 0 1 5.25 11.5A0.25 0.25 0 0 1 5.5 11.25A0.25 0.25 0 0 1 5.75 11.5ZM7.75 11.5A0.25 0.25 0 0 1 7.5 11.75A0.25 0.25 0 0 1 7.25 11.5A0.25 0.25 0 0 1 7.5 11.25A0.25 0.25 0 0 1 7.75 11.5ZM8.75 11.5A0.25 0.25 0 0 1 8.5 11.75A0.25 0.25 0 0 1 8.25 11.5A0.25 0.25 0 0 1 8.5 11.25A0.25 0.25 0 0 1 8.75 11.5ZM9.75 11.5A0.25 0.25 0 0 1 9.5 11.75A0.25 0.25 0 0 1 9.25 11.5A0.25 0.25 0 0 1 9.5 11.25A0.25 0.25 0 0 1 9.75 11.5ZM13.75 11.5A0.25 0.25 0 0 1 13.5 11.75A0.25 0.25 0 0 1 13.25 11.5A0.25 0.25 0 0 1 13.5 11.25A0.25 0.25 0 0 1 13.75 11.5ZM15.75 11.5A0.25 0.25 0 0 1 15.5 11.75A0.25 0.25 0 0 1 15.25 11.5A0.25 0.25 0 0 1 15.5 11.25A0.25 0.25 0 0 1 15.75 11.5ZM16.75 11.5A0.25 0.25 0 0 1 16.5 11.75A0.25 0.25 0 0 1 16.25 11.5A0.25 0.25 0 0 1 16.5 11.25A0.25 0.25 0 0 1 16.75 11.5ZM18.75 11.5A0.25 0.25 0 0 1 18.5 11.75A0.25 0.25 0 0 1 18.25 11.5A0.25 0.25 0 0 1 18.5 11.25A0.25 0.25 0 0 1 18.75 11.5ZM19.75 11.5A0.25 0.25 0 0 1 19.5 11.75A0.25 0.25 0 0 1 19.25 11.5A0.25 0.25 0 0 1 19.5 11.25A0.25 0.25 0 0 1 19.75 11.5ZM21.75 11.5A0.25 0.25 0 0 1 21.5 11.75A0.25 0.25 0 0 1 21.25 11.5A0.25 0.25 0 0 1 21.5 11.25A0.25 0.25 0 0 1 21.75 11.5ZM23.75 11.5A0.25 0.25 0 0 1 23.5 11.75A0.25 0.25 0 0 1 23.25 11.5A0.25 0.25 0 0 1 23.5 11.25A0.25 0.25 0 0 1 23.75 11.5ZM1.75 12.5A0.25 0.25 0 0 1 1.5 12.75A0.25 0.25 0 0 1 1.25 12.5A0.25 0.25 0 0 1 1.5 12.25A0.25 0.25 0 0 1 1.75 12.5ZM3.75 12.5A0.25 0.25 0 0 1 3.5 12.75A0.25 0.25 0 0 1 3.25 12.5A0.25 0.25 0 0 1 3.5 12.25A0.25 0.25 0 0 1 3.75 12.5ZM5.75 12.5A0.25 0.25 0 0 1 5.5 12.75A0.25 0.25 0 0 1 5.25 12.5A0.25 0.25 0 0 1 5.5 12.25A0.25 0.25 0 0 1 5.75 12.5ZM6.75 12.5A0.25 0.25 0 0 1 6.5 12.75A0.25 0.25 0 0 1 6.25 12.5A0.25 0.25 0 0 1 6.5 12.25A0.25 0.25 0 0 1 6.75 12.5ZM7.75 12.5A0.25 0.25 0 0 1 7.5 12.75A0.25 0.25 0 0 1 7.25 12.5A0.25 0.25 0 0 1 7.5 12.25A0.25 0.25 0 0 1 7.75 12.5ZM8.75 12.5A0.25 0.25 0 0 1 8.5 12.75A0.25 0.25 0 0 1 8.25 12.5A0.25 0.25 0 0 1 8.5 12.25A0.25 0.25 0 0 1 8.75 12.5ZM9.75 12.5A0.25 0.25 0 0 1 9.5 12.75A0.25 0.25 0 0 1 9.25 12.5A0.25 0.25 0 0 1 9.5 12.25A0.25 0.25 0 0 1 9.75 12.5ZM10.75 12.5A0.25 0.25 0 0 1 10.5 12.75A0.25 0.25 0 0 1 10.25 12.5A0.25 0.25 0 0 1 10.5 12.25A0.25 0.25 0 0 1 10.75 12.5ZM11.75 12.5A0.25 0.25 0 0 1 11.5 12.75A0.25 0.25 0 0 1 11.25 12.5A0.25 0.25 0 0 1 11.5 12.25A0.25 0.25 0 0 1 11.75 12.5ZM13.75 12.5A0.25 0.25 0 0 1 13.5 12.75A0.25 0.25 0 0 1 13.25 12.5A0.25 0.25 0 0 1 13.5 12.25A0.25 0.25 0 0 1 13.75 12.5ZM14.75 12.5A0.25 0.25 0 0 1 14.5 12.75A0.25 0.25 0 0 1 14.25 12.5A0.25 0.25 0 0 1 14.5 12.25A0.25 0.25 0 0 1 14.75 12.5ZM15.75 12.5A0.25 0.25 0 0 1 15.5 12.75A0.25 0.25 0 0 1 15.25 12.5A0.25 0.25 0 0 1 15.5 12.25A0.25 0.25 0 0 1 15.75 12.5ZM17.75 12.5A0.25 0.25 0 0 1 17.5 12.75A0.25 0.25 0 0 1 17.25 12.5A0.25 0.25 0 0 1 17.5 12.25A0.25 0.25 0 0 1 17.75 12.5ZM18.75 12.5A0.25 0.25 0 0 1 18.5 12.75A0.25 0.25 0 0 1 18.25 12.5A0.25 0.25 0 0 1 18.5 12.25A0.25 0.25 0 0 1 18.75 12.5ZM20.75 12.5A0.25 0.25 0 0 1 20.5 12.75A0.25 0.25 0 0 1 20.25 12.5A0.25 0.25 0 0 1 20.5 12.25A0.25 0.25 0 0 1 20.75 12.5ZM22.75 12.5A0.25 0.25 0 0 1 22.5 12.75A0.25 0.25 0 0 1 22.25 12.5A0.25 0.25 0 0 1 22.5 12.25A0.25 0.25 0 0 1 22.75 12.5ZM24.75 12.5A0.25 0.25 0 0 1 24.5 12.75A0.25 0.25 0 0 1 24.25 12.5A0.25 0.25 0 0 1 24.5 12.25A0.25 0.25 0 0 1 24.75 12.5ZM3.75 13.5A0.25 0.25 0 0 1 3.5 13.75A0.25 0.25 0 0 1 3.25 13.5A0.25 0.25 0 0 1 3.5 13.25A0.25 0.25 0 0 1 3.75 13.5ZM4.75 13.5A0.25 0.25 0 0 1 4.5 13.75A0.25 0.25 0 0 1 4.25 13.5A0.25 0.25 0 0 1 4.5 13.25A0.25 0.25 0 0 1 4.75 13.5ZM5.75 13.5A0.25 0.25 0 0 1 5.5 13.75A0.25 0.25 0 0 1 5.25 13.5A0.25 0.25 0 0 1 5.5 13.25A0.25 0.25 0 0 1 5.75 13.5ZM8.75 13.5A0.25 0.25 0 0 1 8.5 13.75A0.25 0.25 0 0 1 8.25 13.5A0.25 0.25 0 0 1 8.5 13.25A0.25 0.25 0 0 1 8.75 13.5ZM10.75 13.5A0.25 0.25 0 0 1 10.5 13.75A0.25 0.25 0 0 1 10.25 13.5A0.25 0.25 0 0 1 10.5 13.25A0.25 0.25 0 0 1 10.75 13.5ZM14.75 13.5A0.25 0.25 0 0 1 14.5 13.75A0.25 0.25 0 0 1 14.25 13.5A0.25 0.25 0 0 1 14.5 13.25A0.25 0.25 0 0 1 14.75 13.5ZM16.75 13.5A0.25 0.25 0 0 1 16.5 13.75A0.25 0.25 0 0 1 16.25 13.5A0.25 0.25 0 0 1 16.5 13.25A0.25 0.25 0 0 1 16.75 13.5ZM21.75 13.5A0.25 0.25 0 0 1 21.5 13.75A0.25 0.25 0 0 1 21.25 13.5A0.25 0.25 0 0 1 21.5 13.25A0.25 0.25 0 0 1 21.75 13.5ZM0.75 14.5A0.25 0.25 0 0 1 0.5 14.75A0.25 0.25 0 0 1 0.25 14.5A0.25 0.25 0 0 1 0.5 14.25A0.25 0.25 0 0 1 0.75 14.5ZM1.75 14.5A0.25 0.25 0 0 1 1.5 14.75A0.25 0.25 0 0 1 1.25 14.5A0.25 0.25 0 0 1 1.5 14.25A0.25 0.25 0 0 1 1.75 14.5ZM6.75 14.5A0.25 0.25 0 0 1 6.5 14.75A0.25 0.25 0 0 1 6.25 14.5A0.25 0.25 0 0 1 6.5 14.25A0.25 0.25 0 0 1 6.75 14.5ZM8.75 14.5A0.25 0.25 0 0 1 8.5 14.75A0.25 0.25 0 0 1 8.25 14.5A0.25 0.25 0 0 1 8.5 14.25A0.25 0.25 0 0 1 8.75 14.5ZM11.75 14.5A0.25 0.25 0 0 1 11.5 14.75A0.25 0.25 0 0 1 11.25 14.5A0.25 0.25 0 0 1 11.5 14.25A0.25 0.25 0 0 1 11.75 14.5ZM15.75 14.5A0.25 0.25 0 0 1 15.5 14.75A0.25 0.25 0 0 1 15.25 14.5A0.25 0.25 0 0 1 15.5 14.25A0.25 0.25 0 0 1 15.75 14.5ZM16.75 14.5A0.25 0.25 0 0 1 16.5 14.75A0.25 0.25 0 0 1 16.25 14.5A0.25 0.25 0 0 1 16.5 14.25A0.25 0.25 0 0 1 16.75 14.5ZM18.75 14.5A0.25 0.25 0 0 1 18.5 14.75A0.25 0.25 0 0 1 18.25 14.5A0.25 0.25 0 0 1 18.5 14.25A0.25 0.25 0 0 1 18.75 14.5ZM19.75 14.5A0.25 0.25 0 0 1 19.5 14.75A0.25 0.25 0 0 1 19.25 14.5A0.25 0.25 0 0 1 19.5 14.25A0.25 0.25 0 0 1 19.75 14.5ZM21.75 14.5A0.25 0.25 0 0 1 21.5 14.75A0.25 0.25 0 0 1 21.25 14.5A0.25 0.25 0 0 1 21.5 14.25A0.25 0.25 0 0 1 21.75 14.5ZM24.75 14.5A0.25 0.25 0 0 1 24.5 14.75A0.25 0.25 0 0 1 24.25 14.5A0.25 0.25 0 0 1 24.5 14.25A0.25 0.25 0 0 1 24.75 14.5ZM2.75 15.5A0.25 0.25 0 0 1 2.5 15.75A0.25 0.25 0 0 1 2.25 15.5A0.25 0.25 0 0 1 2.5 15.25A0.25 0.25 0 0 1 2.75 15.5ZM3.75 15.5A0.25 0.25 0 0 1 3.5 15.75A0.25 0.25 0 0 1 3.25 15.5A0.25 0.25 0 0 1 3.5 15.25A0.25 0.25 0 0 1 3.75 15.5ZM4.75 15.5A0.25 0.25 0 0 1 4.5 15.75A0.25 0.25 0 0 1 4.25 15.5A0.25 0.25 0 0 1 4.5 15.25A0.25 0.25 0 0 1 4.75 15.5ZM7.75 15.5A0.25 0.25 0 0 1 7.5 15.75A0.25 0.25 0 0 1 7.25 15.5A0.25 0.25 0 0 1 7.5 15.25A0.25 0.25 0 0 1 7.75 15.5ZM9.75 15.5A0.25 0.25 0 0 1 9.5 15.75A0.25 0.25 0 0 1 9.25 15.5A0.25 0.25 0 0 1 9.5 15.25A0.25 0.25 0 0 1 9.75 15.5ZM13.75 15.5A0.25 0.25 0 0 1 13.5 15.75A0.25 0.25 0 0 1 13.25 15.5A0.25 0.25 0 0 1 13.5 15.25A0.25 0.25 0 0 1 13.75 15.5ZM15.75 15.5A0.25 0.25 0 0 1 15.5 15.75A0.25 0.25 0 0 1 15.25 15.5A0.25 0.25 0 0 1 15.5 15.25A0.25 0.25 0 0 1 15.75 15.5ZM16.75 15.5A0.25 0.25 0 0 1 16.5 15.75A0.25 0.25 0 0 1 16.25 15.5A0.25 0.25 0 0 1 16.5 15.25A0.25 0.25 0 0 1 16.75 15.5ZM18.75 15.5A0.25 0.25 0 0 1 18.5 15.75A0.25 0.25 0 0 1 18.25 15.5A0.25 0.25 0 0 1 18.5 15.25A0.25 0.25 0 0 1 18.75 15.5ZM19.75 15.5A0.25 0.25 0 0 1 19.5 15.75A0.25 0.25 0 0 1 19.25 15.5A0.25 0.25 0 0 1 19.5 15.25A0.25 0.25 0 0 1 19.75 15.5ZM22.75 15.5A0.25 0.25 0 0 1 22.5 15.75A0.25 0.25 0 0 1 22.25 15.5A0.25 0.25 0 0 1 22.5 15.25A0.25 0.25 0 0 1 22.75 15.5ZM23.75 15.5A0.25 0.25 0 0 1 23.5 15.75A0.25 0.25 0 0 1 23.25 15.5A0.25 0.25 0 0 1 23.5 15.25A0.25 0.25 0 0 1 23.75 15.5ZM0.75 16.5A0.25 0.25 0 0 1 0.5 16.75A0.25 0.25 0 0 1 0.25 16.5A0.25 0.25 0 0 1 0.5 16.25A0.25 0.25 0 0 1 0.75 16.5ZM1.75 16.5A0.25 0.25 0 0 1 1.5 16.75A0.25 0.25 0 0 1 1.25 16.5A0.25 0.25 0 0 1 1.5 16.25A0.25 0.25 0 0 1 1.75 16.5ZM2.75 16.5A0.25 0.25 0 0 1 2.5 16.75A0.25 0.25 0 0 1 2.25 16.5A0.25 0.25 0 0 1 2.5 16.25A0.25 0.25 0 0 1 2.75 16.5ZM5.75 16.5A0.25 0.25 0 0 1 5.5 16.75A0.25 0.25 0 0 1 5.25 16.5A0.25 0.25 0 0 1 5.5 16.25A0.25 0.25 0 0 1 5.75 16.5ZM6.75 16.5A0.25 0.25 0 0 1 6.5 16.75A0.25 0.25 0 0 1 6.25 16.5A0.25 0.25 0 0 1 6.5 16.25A0.25 0.25 0 0 1 6.75 16.5ZM7.75 16.5A0.25 0.25 0 0 1 7.5 16.75A0.25 0.25 0 0 1 7.25 16.5A0.25 0.25 0 0 1 7.5 16.25A0.25 0.25 0 0 1 7.75 16.5ZM9.75 16.5A0.25 0.25 0 0 1 9.5 16.75A0.25 0.25 0 0 1 9.25 16.5A0.25 0.25 0 0 1 9.5 16.25A0.25 0.25 0 0 1 9.75 16.5ZM11.75 16.5A0.25 0.25 0 0 1 11.5 16.75A0.25 0.25 0 0 1 11.25 16.5A0.25 0.25 0 0 1 11.5 16.25A0.25 0.25 0 0 1 11.75 16.5ZM12.75 16.5A0.25 0.25 0 0 1 12.5 16.75A0.25 0.25 0 0 1 12.25 16.5A0.25 0.25 0 0 1 12.5 16.25A0.25 0.25 0 0 1 12.75 16.5ZM15.75 16.5A0.25 0.25 0 0 1 15.5 16.75A0.25 0.25 0 0 1 15.25 16.5A0.25 0.25 0 0 1 15.5 16.25A0.25 0.25 0 0 1 15.75 16.5ZM16.75 16.5A0.25 0.25 0 0 1 16.5 16.75A0.25 0.25 0 0 1 16.25 16.5A0.25 0.25 0 0 1 16.5 16.25A0.25 0.25 0 0 1 16.75 16.5ZM17.75 16.5A0.25 0.25 0 0 1 17.5 16.75A0.25 0.25 0 0 1 17.25 16.5A0.25 0.25 0 0 1 17.5 16.25A0.25 0.25 0 0 1 17.75 16.5ZM18.75 16.5A0.25 0.25 0 0 1 18.5 16.75A0.25 0.25 0 0 1 18.25 16.5A0.25 0.25 0 0 1 18.5 16.25A0.25 0.25 0 0 1 18.75 16.5ZM19.75 16.5A0.25 0.25 0 0 1 19.5 16.75A0.25 0.25 0 0 1 19.25 16.5A0.25 0.25 0 0 1 19.5 16.25A0.25 0.25 0 0 1 19.75 16.5ZM20.75 16.5A0.25 0.25 0 0 1 20.5 16.75A0.25 0.25 0 0 1 20.25 16.5A0.25 0.25 0 0 1 20.5 16.25A0.25 0.25 0 0 1 20.75 16.5ZM22.75 16.5A0.25 0.25 0 0 1 22.5 16.75A0.25 0.25 0 0 1 22.25 16.5A0.25 0.25 0 0 1 22.5 16.25A0.25 0.25 0 0 1 22.75 16.5ZM23.75 16.5A0.25 0.25 0 0 1 23.5 16.75A0.25 0.25 0 0 1 23.25 16.5A0.25 0.25 0 0 1 23.5 16.25A0.25 0.25 0 0 1 23.75 16.5ZM24.75 16.5A0.25 0.25 0 0 1 24.5 16.75A0.25 0.25 0 0 1 24.25 16.5A0.25 0.25 0 0 1 24.5 16.25A0.25 0.25 0 0 1 24.75 16.5ZM8.75 17.5A0.25 0.25 0 0 1 8.5 17.75A0.25 0.25 0 0 1 8.25 17.5A0.25 0.25 0 0 1 8.5 17.25A0.25 0.25 0 0 1 8.75 17.5ZM10.75 17.5A0.25 0.25 0 0 1 10.5 17.75A0.25 0.25 0 0 1 10.25 17.5A0.25 0.25 0 0 1 10.5 17.25A0.25 0.25 0 0 1 10.75 17.5ZM12.75 17.5A0.25 0.25 0 0 1 12.5 17.75A0.25 0.25 0 0 1 12.25 17.5A0.25 0.25 0 0 1 12.5 17.25A0.25 0.25 0 0 1 12.75 17.5ZM14.75 17.5A0.25 0.25 0 0 1 14.5 17.75A0.25 0.25 0 0 1 14.25 17.5A0.25 0.25 0 0 1 14.5 17.25A0.25 0.25 0 0 1 14.75 17.5ZM15.75 17.5A0.25 0.25 0 0 1 15.5 17.75A0.25 0.25 0 0 1 15.25 17.5A0.25 0.25 0 0 1 15.5 17.25A0.25 0.25 0 0 1 15.75 17.5ZM16.75 17.5A0.25 0.25 0 0 1 16.5 17.75A0.25 0.25 0 0 1 16.25 17.5A0.25 0.25 0 0 1 16.5 17.25A0.25 0.25 0 0 1 16.75 17.5ZM20.75 17.5A0.25 0.25 0 0 1 20.5 17.75A0.25 0.25 0 0 1 20.25 17.5A0.25 0.25 0 0 1 20.5 17.25A0.25 0.25 0 0 1 20.75 17.5ZM21.75 17.5A0.25 0.25 0 0 1 21.5 17.75A0.25 0.25 0 0 1 21.25 17.5A0.25 0.25 0 0 1 21.5 17.25A0.25 0.25 0 0 1 21.75 17.5ZM8.75 18.5A0.25 0.25 0 0 1 8.5 18.75A0.25 0.25 0 0 1 8.25 18.5A0.25 0.25 0 0 1 8.5 18.25A0.25 0.25 0 0 1 8.75 18.5ZM9.75 18.5A0.25 0.25 0 0 1 9.5 18.75A0.25 0.25 0 0 1 9.25 18.5A0.25 0.25 0 0 1 9.5 18.25A0.25 0.25 0 0 1 9.75 18.5ZM10.75 18.5A0.25 0.25 0 0 1 10.5 18.75A0.25 0.25 0 0 1 10.25 18.5A0.25 0.25 0 0 1 10.5 18.25A0.25 0.25 0 0 1 10.75 18.5ZM12.75 18.5A0.25 0.25 0 0 1 12.5 18.75A0.25 0.25 0 0 1 12.25 18.5A0.25 0.25 0 0 1 12.5 18.25A0.25 0.25 0 0 1 12.75 18.5ZM13.75 18.5A0.25 0.25 0 0 1 13.5 18.75A0.25 0.25 0 0 1 13.25 18.5A0.25 0.25 0 0 1 13.5 18.25A0.25 0.25 0 0 1 13.75 18.5ZM14.75 18.5A0.25 0.25 0 0 1 14.5 18.75A0.25 0.25 0 0 1 14.25 18.5A0.25 0.25 0 0 1 14.5 18.25A0.25 0.25 0 0 1 14.75 18.5ZM16.75 18.5A0.25 0.25 0 0 1 16.5 18.75A0.25 0.25 0 0 1 16.25 18.5A0.25 0.25 0 0 1 16.5 18.25A0.25 0.25 0 0 1 16.75 18.5ZM18.75 18.5A0.25 0.25 0 0 1 18.5 18.75A0.25 0.25 0 0 1 18.25 18.5A0.25 0.25 0 0 1 18.5 18.25A0.25 0.25 0 0 1 18.75 18.5ZM20.75 18.5A0.25 0.25 0 0 1 20.5 18.75A0.25 0.25 0 0 1 20.25 18.5A0.25 0.25 0 0 1 20.5 18.25A0.25 0.25 0 0 1 20.75 18.5ZM24.75 18.5A0.25 0.25 0 0 1 24.5 18.75A0.25 0.25 0 0 1 24.25 18.5A0.25 0.25 0 0 1 24.5 18.25A0.25 0.25 0 0 1 24.75 18.5ZM10.75 19.5A0.25 0.25 0 0 1 10.5 19.75A0.25 0.25 0 0 1 10.25 19.5A0.25 0.25 0 0 1 10.5 19.25A0.25 0.25 0 0 1 10.75 19.5ZM11.75 19.5A0.25 0.25 0 0 1 11.5 19.75A0.25 0.25 0 0 1 11.25 19.5A0.25 0.25 0 0 1 11.5 19.25A0.25 0.25 0 0 1 11.75 19.5ZM12.75 19.5A0.25 0.25 0 0 1 12.5 19.75A0.25 0.25 0 0 1 12.25 19.5A0.25 0.25 0 0 1 12.5 19.25A0.25 0.25 0 0 1 12.75 19.5ZM16.75 19.5A0.25 0.25 0 0 1 16.5 19.75A0.25 0.25 0 0 1 16.25 19.5A0.25 0.25 0 0 1 16.5 19.25A0.25 0.25 0 0 1 16.75 19.5ZM20.75 19.5A0.25 0.25 0 0 1 20.5 19.75A0.25 0.25 0 0 1 20.25 19.5A0.25 0.25 0 0 1 20.5 19.25A0.25 0.25 0 0 1 20.75 19.5ZM24.75 19.5A0.25 0.25 0 0 1 24.5 19.75A0.25 0.25 0 0 1 24.25 19.5A0.25 0.25 0 0 1 24.5 19.25A0.25 0.25 0 0 1 24.75 19.5ZM9.75 20.5A0.25 0.25 0 0 1 9.5 20.75A0.25 0.25 0 0 1 9.25 20.5A0.25 0.25 0 0 1 9.5 20.25A0.25 0.25 0 0 1 9.75 20.5ZM13.75 20.5A0.25 0.25 0 0 1 13.5 20.75A0.25 0.25 0 0 1 13.25 20.5A0.25 0.25 0 0 1 13.5 20.25A0.25 0.25 0 0 1 13.75 20.5ZM14.75 20.5A0.25 0.25 0 0 1 14.5 20.75A0.25 0.25 0 0 1 14.25 20.5A0.25 0.25 0 0 1 14.5 20.25A0.25 0.25 0 0 1 14.75 20.5ZM15.75 20.5A0.25 0.25 0 0 1 15.5 20.75A0.25 0.25 0 0 1 15.25 20.5A0.25 0.25 0 0 1 15.5 20.25A0.25 0.25 0 0 1 15.75 20.5ZM16.75 20.5A0.25 0.25 0 0 1 16.5 20.75A0.25 0.25 0 0 1 16.25 20.5A0.25 0.25 0 0 1 16.5 20.25A0.25 0.25 0 0 1 16.75 20.5ZM17.75 20.5A0.25 0.25 0 0 1 17.5 20.75A0.25 0.25 0 0 1 17.25 20.5A0.25 0.25 0 0 1 17.5 20.25A0.25 0.25 0 0 1 17.75 20.5ZM18.75 20.5A0.25 0.25 0 0 1 18.5 20.75A0.25 0.25 0 0 1 18.25 20.5A0.25 0.25 0 0 1 18.5 20.25A0.25 0.25 0 0 1 18.75 20.5ZM19.75 20.5A0.25 0.25 0 0 1 19.5 20.75A0.25 0.25 0 0 1 19.25 20.5A0.25 0.25 0 0 1 19.5 20.25A0.25 0.25 0 0 1 19.75 20.5ZM20.75 20.5A0.25 0.25 0 0 1 20.5 20.75A0.25 0.25 0 0 1 20.25 20.5A0.25 0.25 0 0 1 20.5 20.25A0.25 0.25 0 0 1 20.75 20.5ZM23.75 20.5A0.25 0.25 0 0 1 23.5 20.75A0.25 0.25 0 0 1 23.25 20.5A0.25 0.25 0 0 1 23.5 20.25A0.25 0.25 0 0 1 23.75 20.5ZM10.75 21.5A0.25 0.25 0 0 1 10.5 21.75A0.25 0.25 0 0 1 10.25 21.5A0.25 0.25 0 0 1 10.5 21.25A0.25 0.25 0 0 1 10.75 21.5ZM13.75 21.5A0.25 0.25 0 0 1 13.5 21.75A0.25 0.25 0 0 1 13.25 21.5A0.25 0.25 0 0 1 13.5 21.25A0.25 0.25 0 0 1 13.75 21.5ZM16.75 21.5A0.25 0.25 0 0 1 16.5 21.75A0.25 0.25 0 0 1 16.25 21.5A0.25 0.25 0 0 1 16.5 21.25A0.25 0.25 0 0 1 16.75 21.5ZM17.75 21.5A0.25 0.25 0 0 1 17.5 21.75A0.25 0.25 0 0 1 17.25 21.5A0.25 0.25 0 0 1 17.5 21.25A0.25 0.25 0 0 1 17.75 21.5ZM19.75 21.5A0.25 0.25 0 0 1 19.5 21.75A0.25 0.25 0 0 1 19.25 21.5A0.25 0.25 0 0 1 19.5 21.25A0.25 0.25 0 0 1 19.75 21.5ZM21.75 21.5A0.25 0.25 0 0 1 21.5 21.75A0.25 0.25 0 0 1 21.25 21.5A0.25 0.25 0 0 1 21.5 21.25A0.25 0.25 0 0 1 21.75 21.5ZM23.75 21.5A0.25 0.25 0 0 1 23.5 21.75A0.25 0.25 0 0 1 23.25 21.5A0.25 0.25 0 0 1 23.5 21.25A0.25 0.25 0 0 1 23.75 21.5ZM8.75 22.5A0.25 0.25 0 0 1 8.5 22.75A0.25 0.25 0 0 1 8.25 22.5A0.25 0.25 0 0 1 8.5 22.25A0.25 0.25 0 0 1 8.75 22.5ZM11.75 22.5A0.25 0.25 0 0 1 11.5 22.75A0.25 0.25 0 0 1 11.25 22.5A0.25 0.25 0 0 1 11.5 22.25A0.25 0.25 0 0 1 11.75 22.5ZM16.75 22.5A0.25 0.25 0 0 1 16.5 22.75A0.25 0.25 0 0 1 16.25 22.5A0.25 0.25 0 0 1 16.5 22.25A0.25 0.25 0 0 1 16.75 22.5ZM17.75 22.5A0.25 0.25 0 0 1 17.5 22.75A0.25 0.25 0 0 1 17.25 22.5A0.25 0.25 0 0 1 17.5 22.25A0.25 0.25 0 0 1 17.75 22.5ZM20.75 22.5A0.25 0.25 0 0 1 20.5 22.75A0.25 0.25 0 0 1 20.25 22.5A0.25 0.25 0 0 1 20.5 22.25A0.25 0.25 0 0 1 20.75 22.5ZM23.75 22.5A0.25 0.25 0 0 1 23.5 22.75A0.25 0.25 0 0 1 23.25 22.5A0.25 0.25 0 0 1 23.5 22.25A0.25 0.25 0 0 1 23.75 22.5ZM24.75 22.5A0.25 0.25 0 0 1 24.5 22.75A0.25 0.25 0 0 1 24.25 22.5A0.25 0.25 0 0 1 24.5 22.25A0.25 0.25 0 0 1 24.75 22.5ZM9.75 23.5A0.25 0.25 0 0 1 9.5 23.75A0.25 0.25 0 0 1 9.25 23.5A0.25 0.25 0 0 1 9.5 23.25A0.25 0.25 0 0 1 9.75 23.5ZM10.75 23.5A0.25 0.25 0 0 1 10.5 23.75A0.25 0.25 0 0 1 10.25 23.5A0.25 0.25 0 0 1 10.5 23.25A0.25 0.25 0 0 1 10.75 23.5ZM13.75 23.5A0.25 0.25 0 0 1 13.5 23.75A0.25 0.25 0 0 1 13.25 23.5A0.25 0.25 0 0 1 13.5 23.25A0.25 0.25 0 0 1 13.75 23.5ZM15.75 23.5A0.25 0.25 0 0 1 15.5 23.75A0.25 0.25 0 0 1 15.25 23.5A0.25 0.25 0 0 1 15.5 23.25A0.25 0.25 0 0 1 15.75 23.5ZM17.75 23.5A0.25 0.25 0 0 1 17.5 23.75A0.25 0.25 0 0 1 17.25 23.5A0.25 0.25 0 0 1 17.5 23.25A0.25 0.25 0 0 1 17.75 23.5ZM19.75 23.5A0.25 0.25 0 0 1 19.5 23.75A0.25 0.25 0 0 1 19.25 23.5A0.25 0.25 0 0 1 19.5 23.25A0.25 0.25 0 0 1 19.75 23.5ZM20.75 23.5A0.25 0.25 0 0 1 20.5 23.75A0.25 0.25 0 0 1 20.25 23.5A0.25 0.25 0 0 1 20.5 23.25A0.25 0.25 0 0 1 20.75 23.5ZM23.75 23.5A0.25 0.25 0 0 1 23.5 23.75A0.25 0.25 0 0 1 23.25 23.5A0.25 0.25 0 0 1 23.5 23.25A0.25 0.25 0 0 1 23.75 23.5ZM24.75 23.5A0.25 0.25 0 0 1 24.5 23.75A0.25 0.25 0 0 1 24.25 23.5A0.25 0.25 0 0 1 24.5 23.25A0.25 0.25 0 0 1 24.75 23.5ZM8.75 24.5A0.25 0.25 0 0 1 8.5 24.75A0.25 0.25 0 0 1 8.25 24.5A0.25 0.25 0 0 1 8.5 24.25A0.25 0.25 0 0 1 8.75 24.5ZM9.75 24.5A0.25 0.25 0 0 1 9.5 24.75A0.25 0.25 0 0 1 9.25 24.5A0.25 0.25 0 0 1 9.5 24.25A0.25 0.25 0 0 1 9.75 24.5ZM10.75 24.5A0.25 0.25 0 0 1 10.5 24.75A0.25 0.25 0 0 1 10.25 24.5A0.25 0.25 0 0 1 10.5 24.25A0.25 0.25 0 0 1 10.75 24.5ZM11.75 24.5A0.25 0.25 0 0 1 11.5 24.75A0.25 0.25 0 0 1 11.25 24.5A0.25 0.25 0 0 1 11.5 24.25A0.25 0.25 0 0 1 11.75 24.5ZM12.75 24.5A0.25 0.25 0 0 1 12.5 24.75A0.25 0.25 0 0 1 12.25 24.5A0.25 0.25 0 0 1 12.5 24.25A0.25 0.25 0 0 1 12.75 24.5ZM13.75 24.5A0.25 0.25 0 0 1 13.5 24.75A0.25 0.25 0 0 1 13.25 24.5A0.25 0.25 0 0 1 13.5 24.25A0.25 0.25 0 0 1 13.75 24.5ZM15.75 24.5A0.25 0.25 0 0 1 15.5 24.75A0.25 0.25 0 0 1 15.25 24.5A0.25 0.25 0 0 1 15.5 24.25A0.25 0.25 0 0 1 15.75 24.5ZM16.75 24.5A0.25 0.25 0 0 1 16.5 24.75A0.25 0.25 0 0 1 16.25 24.5A0.25 0.25 0 0 1 16.5 24.25A0.25 0.25 0 0 1 16.75 24.5ZM17.75 24.5A0.25 0.25 0 0 1 17.5 24.75A0.25 0.25 0 0 1 17.25 24.5A0.25 0.25 0 0 1 17.5 24.25A0.25 0.25 0 0 1 17.75 24.5ZM20.75 24.5A0.25 0.25 0 0 1 20.5 24.75A0.25 0.25 0 0 1 20.25 24.5A0.25 0.25 0 0 1 20.5 24.25A0.25 0.25 0 0 1 20.75 24.5ZM22.75 24.5A0.25 0.25 0 0 1 22.5 24.75A0.25 0.25 0 0 1 22.25 24.5A0.25 0.25 0 0 1 22.5 24.25A0.25 0.25 0 0 1 22.75 24.5ZM24.75 24.5A0.25 0.25 0 0 1 24.5 24.75A0.25 0.25 0 0 1 24.25 24.5A0.25 0.25 0 0 1 24.5 24.25A0.25 0.25 0 0 1 24.75 24.5Z" fill="url(#g1)"/></g></g></svg>
